<svg xmlns="http://www.w3.org/2000/svg" xmlns:xlink="http://www.w3.org/1999/xlink" width="480" zoomAndPan="magnify" viewBox="0 0 360 359.999987" height="480" preserveAspectRatio="xMidYMid meet" version="1.0"><rect x="-36" width="432" fill="#ffffff" y="-35.999999" height="431.999984" fill-opacity="1"/><rect x="-36" width="432" fill="#ffffff" y="-35.999999" height="431.999984" fill-opacity="1"/><path fill="#737373" d="M -0.113281 -0.195312 L 358.746094 -0.195312 L 358.746094 365.113281 L -0.113281 365.113281 Z M -0.113281 -0.195312 " fill-opacity="1" fill-rule="nonzero"/><path stroke-linecap="butt" transform="matrix(0, -0.75, 0.75, 0, 245.107927, 359.999972)" fill="none" stroke-linejoin="miter" d="M -0.0000378667 2.001931 L 480 2.001931 " stroke="#000000" stroke-width="4" stroke-opacity="1" stroke-miterlimit="4"/><path fill="#caddff" d="M 74.441406 136.699219 C 94.117188 116.871094 88.484375 104.445312 101.945312 95.265625 C 122.664062 81.140625 161.328125 93.292969 184.136719 112.722656 C 212.074219 136.519531 226.488281 179.972656 210.066406 219.28125 C 192.582031 261.140625 146.574219 282.875 105.519531 276.324219 C 68.855469 270.476562 32.816406 241.542969 29.207031 206.847656 C 28.816406 203.085938 27.085938 182.753906 39.207031 165.226562 C 49.222656 150.738281 58.84375 152.417969 74.441406 136.699219 " fill-opacity="1" fill-rule="nonzero"/><path fill="#99b9ff" d="M 58.527344 115.390625 C 71.578125 112.984375 83.628906 119.039062 85.445312 128.914062 C 86.257812 133.335938 84.878906 137.769531 81.945312 141.539062 L 87.816406 150.578125 L 75.484375 147.222656 C 72.488281 149.0625 68.96875 150.441406 65.101562 151.152344 C 52.050781 153.558594 40 147.5 38.183594 137.625 C 36.367188 127.75 45.476562 117.792969 58.527344 115.390625 " fill-opacity="1" fill-rule="nonzero"/><path fill="#000000" d="M 49.121094 117.171875 C 49.011719 117.171875 48.90625 117.121094 48.839844 117.023438 C 48.734375 116.867188 48.777344 116.652344 48.933594 116.550781 C 49.222656 116.355469 49.519531 116.164062 49.816406 115.980469 C 49.972656 115.882812 50.183594 115.929688 50.285156 116.089844 C 50.382812 116.25 50.332031 116.460938 50.171875 116.558594 C 49.882812 116.738281 49.59375 116.925781 49.3125 117.117188 C 49.253906 117.15625 49.1875 117.171875 49.121094 117.171875 " fill-opacity="1" fill-rule="nonzero"/><path fill="#000000" d="M 61.335938 148.929688 C 50.480469 148.929688 41.335938 143.167969 39.761719 134.601562 C 38.710938 128.871094 41.175781 122.953125 46.53125 118.371094 C 46.675781 118.25 46.890625 118.265625 47.011719 118.410156 C 47.136719 118.550781 47.117188 118.765625 46.976562 118.890625 C 41.808594 123.308594 39.425781 128.992188 40.433594 134.476562 C 42.210938 144.152344 54.109375 150.097656 66.953125 147.730469 C 67.914062 147.550781 68.875 147.328125 69.804688 147.066406 C 69.988281 147.015625 70.175781 147.121094 70.226562 147.304688 C 70.277344 147.484375 70.171875 147.671875 69.988281 147.722656 C 69.039062 147.992188 68.058594 148.21875 67.078125 148.402344 C 65.132812 148.757812 63.207031 148.929688 61.335938 148.929688 " fill-opacity="1" fill-rule="nonzero"/><path fill="#000000" d="M 89.730469 147.832031 C 89.703125 147.832031 89.671875 147.828125 89.640625 147.820312 L 77.449219 144.503906 C 76.566406 145.039062 75.632812 145.539062 74.675781 145.984375 C 74.503906 146.066406 74.304688 145.992188 74.222656 145.820312 C 74.144531 145.652344 74.21875 145.445312 74.386719 145.367188 C 75.367188 144.910156 76.320312 144.398438 77.21875 143.84375 C 77.300781 143.796875 77.398438 143.78125 77.488281 143.804688 L 88.957031 146.925781 L 83.574219 138.632812 C 83.492188 138.511719 83.5 138.351562 83.589844 138.238281 C 86.566406 134.421875 87.785156 130.035156 87.023438 125.890625 C 86.164062 121.222656 82.945312 117.269531 77.960938 114.765625 C 72.941406 112.242188 66.742188 111.484375 60.503906 112.636719 C 59.03125 112.90625 57.578125 113.285156 56.183594 113.753906 C 56.007812 113.8125 55.8125 113.71875 55.753906 113.539062 C 55.691406 113.359375 55.789062 113.167969 55.96875 113.105469 C 57.390625 112.625 58.875 112.242188 60.378906 111.964844 C 66.765625 110.789062 73.117188 111.566406 78.265625 114.152344 C 83.449219 116.757812 86.796875 120.882812 87.695312 125.765625 C 88.480469 130.035156 87.265625 134.535156 84.277344 138.464844 L 90.015625 147.304688 C 90.09375 147.421875 90.089844 147.578125 90.007812 147.691406 C 89.941406 147.78125 89.839844 147.832031 89.730469 147.832031 " fill-opacity="1" fill-rule="nonzero"/><path fill="#5479f7" d="M 64.320312 128.578125 C 64.132812 128.578125 63.980469 128.425781 63.980469 128.238281 C 63.980469 128.046875 64.132812 127.894531 64.320312 127.894531 L 80.738281 127.855469 C 80.925781 127.855469 81.078125 128.007812 81.078125 128.195312 C 81.078125 128.382812 80.925781 128.535156 80.738281 128.539062 L 64.320312 128.578125 " fill-opacity="1" fill-rule="nonzero"/><path fill="#5479f7" d="M 45.5 128.101562 C 45.3125 128.101562 45.160156 127.949219 45.160156 127.765625 C 45.160156 127.574219 45.308594 127.421875 45.5 127.421875 L 61.183594 127.332031 C 61.183594 127.332031 61.1875 127.332031 61.1875 127.332031 C 61.375 127.332031 61.527344 127.484375 61.527344 127.671875 C 61.527344 127.859375 61.375 128.015625 61.1875 128.015625 L 45.503906 128.101562 C 45.5 128.101562 45.5 128.101562 45.5 128.101562 " fill-opacity="1" fill-rule="nonzero"/><path fill="#5479f7" d="M 80.027344 132.851562 C 80.027344 132.851562 80.027344 132.851562 80.023438 132.851562 L 58.574219 132.585938 C 58.386719 132.585938 58.234375 132.429688 58.238281 132.242188 C 58.242188 132.054688 58.394531 131.902344 58.578125 131.902344 C 58.582031 131.902344 58.582031 131.902344 58.582031 131.902344 L 80.03125 132.167969 C 80.222656 132.171875 80.371094 132.324219 80.371094 132.515625 C 80.367188 132.699219 80.214844 132.851562 80.027344 132.851562 " fill-opacity="1" fill-rule="nonzero"/><path fill="#5479f7" d="M 54.421875 132.535156 C 54.417969 132.535156 54.417969 132.535156 54.417969 132.535156 L 44.785156 132.417969 C 44.597656 132.414062 44.449219 132.261719 44.449219 132.070312 C 44.453125 131.882812 44.605469 131.734375 44.789062 131.734375 C 44.792969 131.734375 44.792969 131.734375 44.792969 131.734375 L 54.425781 131.855469 C 54.613281 131.855469 54.761719 132.011719 54.761719 132.199219 C 54.757812 132.386719 54.605469 132.535156 54.421875 132.535156 " fill-opacity="1" fill-rule="nonzero"/><path fill="#5479f7" d="M 80.640625 136.5 C 80.640625 136.5 80.640625 136.5 80.636719 136.5 L 72.78125 136.449219 C 72.589844 136.449219 72.441406 136.296875 72.441406 136.109375 C 72.441406 135.917969 72.59375 135.769531 72.78125 135.769531 C 72.78125 135.769531 72.78125 135.769531 72.785156 135.769531 L 80.640625 135.816406 C 80.832031 135.816406 80.984375 135.972656 80.980469 136.160156 C 80.980469 136.347656 80.828125 136.5 80.640625 136.5 " fill-opacity="1" fill-rule="nonzero"/><path fill="#5479f7" d="M 70.90625 136.480469 C 70.90625 136.480469 70.902344 136.480469 70.902344 136.480469 L 45.398438 136.0625 C 45.207031 136.058594 45.058594 135.90625 45.0625 135.714844 C 45.066406 135.527344 45.21875 135.375 45.40625 135.382812 L 70.914062 135.796875 C 71.101562 135.800781 71.25 135.957031 71.25 136.144531 C 71.246094 136.332031 71.09375 136.480469 70.90625 136.480469 " fill-opacity="1" fill-rule="nonzero"/><path fill="#5479f7" d="M 188.371094 267.597656 L 103.859375 267.597656 C 100.21875 267.597656 97.640625 264.65625 98.097656 261.03125 L 118.90625 96.742188 C 119.367188 93.113281 122.691406 90.175781 126.332031 90.175781 L 206.601562 89.238281 C 215.8125 89.238281 217.0625 93.113281 216.605469 96.742188 L 195.796875 261.03125 C 195.335938 264.65625 192.011719 267.597656 188.371094 267.597656 " fill-opacity="1" fill-rule="nonzero"/><path fill="#ffffff" d="M 183.285156 267.597656 L 98.773438 267.597656 C 95.132812 267.597656 92.554688 264.644531 93.011719 260.996094 L 113.820312 95.871094 C 114.28125 92.226562 117.605469 89.269531 121.25 89.269531 L 205.757812 89.269531 C 209.398438 89.269531 211.980469 92.226562 211.519531 95.871094 L 190.710938 260.996094 C 190.25 264.644531 186.925781 267.597656 183.285156 267.597656 " fill-opacity="1" fill-rule="nonzero"/><path fill="#caddff" d="M 97.828125 261.222656 L 117.699219 103.558594 C 117.804688 102.714844 118.570312 102.03125 119.410156 102.03125 L 204.375 102.03125 C 205.21875 102.03125 205.8125 102.714844 205.707031 103.558594 L 185.835938 261.222656 C 185.730469 262.066406 184.964844 262.746094 184.121094 262.746094 L 99.160156 262.746094 C 98.316406 262.746094 97.722656 262.066406 97.828125 261.222656 " fill-opacity="1" fill-rule="nonzero"/><path fill="#caddff" d="M 162.445312 97.667969 C 161.082031 97.667969 160.113281 96.558594 160.285156 95.191406 C 160.457031 93.828125 161.703125 92.71875 163.066406 92.71875 C 164.433594 92.71875 165.398438 93.828125 165.226562 95.191406 C 165.054688 96.558594 163.808594 97.667969 162.445312 97.667969 " fill-opacity="1" fill-rule="nonzero"/><path fill="#000000" d="M 183.285156 267.9375 L 113.53125 267.9375 C 113.34375 267.9375 113.191406 267.785156 113.191406 267.597656 C 113.191406 267.410156 113.34375 267.257812 113.53125 267.257812 L 183.285156 267.257812 C 186.753906 267.257812 189.933594 264.429688 190.371094 260.953125 L 211.179688 95.828125 C 211.390625 94.15625 210.9375 92.585938 209.90625 91.410156 C 208.882812 90.25 207.410156 89.609375 205.757812 89.609375 L 121.25 89.609375 C 117.777344 89.609375 114.597656 92.4375 114.160156 95.914062 L 100.46875 204.566406 C 100.445312 204.753906 100.273438 204.886719 100.085938 204.863281 C 99.902344 204.839844 99.769531 204.667969 99.792969 204.484375 L 113.484375 95.828125 C 113.960938 92.023438 117.445312 88.929688 121.25 88.929688 L 205.757812 88.929688 C 207.605469 88.929688 209.261719 89.648438 210.417969 90.960938 C 211.582031 92.28125 212.09375 94.042969 211.855469 95.914062 L 191.046875 261.039062 C 190.570312 264.84375 187.085938 267.9375 183.285156 267.9375 " fill-opacity="1" fill-rule="nonzero"/><path fill="#000000" d="M 184.125 263.089844 L 156.464844 263.089844 C 156.277344 263.089844 156.125 262.9375 156.125 262.746094 C 156.125 262.558594 156.277344 262.40625 156.464844 262.40625 L 184.125 262.40625 C 184.796875 262.40625 185.414062 261.855469 185.5 261.179688 L 205.367188 103.515625 C 205.410156 103.203125 205.324219 102.914062 205.136719 102.703125 C 204.953125 102.492188 204.683594 102.375 204.375 102.375 L 119.414062 102.375 C 118.738281 102.375 118.121094 102.921875 118.035156 103.601562 L 104.285156 212.71875 C 104.261719 212.90625 104.089844 213.039062 103.902344 213.015625 C 103.71875 212.992188 103.585938 212.824219 103.609375 212.636719 L 117.359375 103.515625 C 117.488281 102.507812 118.40625 101.691406 119.414062 101.691406 L 204.375 101.691406 C 204.878906 101.691406 205.332031 101.890625 205.648438 102.25 C 205.96875 102.613281 206.109375 103.089844 206.046875 103.601562 L 186.175781 261.265625 C 186.050781 262.269531 185.128906 263.089844 184.125 263.089844 " fill-opacity="1" fill-rule="nonzero"/><path fill="#000000" d="M 108.847656 196.75 C 108.847656 196.734375 108.847656 196.722656 108.847656 196.707031 C 108.933594 192.238281 111.695312 187.683594 117.058594 183.167969 C 120.820312 180.003906 124.519531 178.011719 124.671875 177.929688 C 125.914062 177.265625 127.457031 177.734375 128.121094 178.976562 C 128.785156 180.21875 128.316406 181.761719 127.074219 182.425781 C 123.460938 184.367188 114.058594 190.734375 113.941406 196.804688 C 113.941406 196.816406 113.941406 196.824219 113.941406 196.835938 C 113.910156 198.757812 114.476562 200.257812 115.679688 201.414062 C 118.558594 204.183594 124.398438 204.476562 126.402344 204.355469 C 127.808594 204.273438 129.011719 205.34375 129.097656 206.75 C 129.179688 208.15625 128.109375 209.367188 126.707031 209.449219 C 126.320312 209.472656 117.210938 209.957031 112.152344 205.09375 C 109.902344 202.929688 108.792969 200.125 108.847656 196.75 " fill-opacity="1" fill-rule="nonzero"/><path fill="#5479f7" d="M 126.902344 214.957031 L 127.152344 199.855469 C 127.175781 198.445312 128.332031 197.324219 129.742188 197.347656 C 131.148438 197.371094 132.269531 198.53125 132.246094 199.9375 L 132 215.042969 C 131.976562 216.449219 130.816406 217.574219 129.410156 217.550781 C 128.003906 217.527344 126.882812 216.367188 126.902344 214.957031 " fill-opacity="1" fill-rule="nonzero"/><path fill="#5479f7" d="M 106.335938 151.160156 L 111.65625 151.160156 C 111.867188 151.160156 112.039062 150.992188 112.039062 150.78125 L 112.039062 134.847656 C 112.039062 134.636719 111.867188 134.464844 111.65625 134.464844 L 106.335938 134.464844 C 105.214844 134.464844 104.308594 135.375 104.308594 136.492188 L 104.308594 149.136719 C 104.308594 150.253906 105.214844 151.160156 106.335938 151.160156 " fill-opacity="1" fill-rule="nonzero"/><path fill="#ffffff" d="M 185.4375 151.160156 L 180.050781 151.160156 L 180.050781 136.078125 L 185.4375 136.078125 C 186.730469 136.078125 187.78125 137.128906 187.78125 138.425781 L 187.78125 148.8125 C 187.78125 150.109375 186.730469 151.160156 185.4375 151.160156 " fill-opacity="1" fill-rule="nonzero"/><path fill="#000000" d="M 180.390625 150.820312 L 181.140625 150.820312 C 184.613281 150.820312 187.4375 147.992188 187.4375 144.511719 L 187.4375 142.730469 C 187.4375 139.25 184.613281 136.421875 181.140625 136.421875 L 180.390625 136.421875 Z M 181.140625 151.503906 L 180.050781 151.503906 C 179.863281 151.503906 179.710938 151.351562 179.710938 151.160156 L 179.710938 136.078125 C 179.710938 135.890625 179.863281 135.738281 180.050781 135.738281 L 181.140625 135.738281 C 184.988281 135.738281 188.121094 138.875 188.121094 142.730469 L 188.121094 144.511719 C 188.121094 148.367188 184.988281 151.503906 181.140625 151.503906 " fill-opacity="1" fill-rule="nonzero"/><path fill="#ffffff" d="M 182.488281 142.996094 C 182.488281 126.789062 166.171875 110.027344 146.042969 110.027344 C 125.917969 110.027344 109.601562 126.789062 109.601562 142.996094 C 109.601562 159.203125 125.917969 168.714844 146.042969 168.714844 C 166.171875 168.714844 182.488281 159.203125 182.488281 142.996094 " fill-opacity="1" fill-rule="nonzero"/><path fill="#000000" d="M 146.046875 110.367188 C 125.382812 110.367188 109.945312 127.59375 109.945312 142.996094 C 109.945312 150.605469 113.582031 157.054688 120.464844 161.652344 C 126.960938 165.988281 136.042969 168.375 146.046875 168.375 C 156.046875 168.375 165.128906 165.988281 171.625 161.652344 C 178.507812 157.054688 182.144531 150.605469 182.144531 142.996094 C 182.144531 127.59375 166.707031 110.367188 146.046875 110.367188 Z M 146.046875 169.058594 C 135.910156 169.058594 126.691406 166.628906 120.089844 162.21875 C 113.007812 157.488281 109.261719 150.84375 109.261719 142.996094 C 109.261719 134.960938 113.191406 126.644531 120.042969 120.1875 C 127.226562 113.414062 136.460938 109.683594 146.046875 109.683594 C 155.628906 109.683594 164.863281 113.414062 172.046875 120.1875 C 178.898438 126.644531 182.824219 134.960938 182.824219 142.996094 C 182.824219 150.84375 179.082031 157.488281 172 162.21875 C 165.398438 166.628906 156.179688 169.058594 146.046875 169.058594 " fill-opacity="1" fill-rule="nonzero"/><path fill="#ffffff" d="M 136.917969 173.585938 L 155.171875 173.585938 C 163.175781 173.585938 169.660156 180.078125 169.660156 188.089844 C 169.660156 193.382812 169.144531 198.664062 168.121094 203.855469 L 165.496094 217.167969 C 163.664062 226.46875 155.515625 233.175781 146.046875 233.175781 C 136.574219 233.175781 128.429688 226.46875 126.59375 217.167969 L 123.96875 203.855469 C 122.945312 198.664062 122.429688 193.382812 122.429688 188.089844 C 122.429688 180.078125 128.917969 173.585938 136.917969 173.585938 " fill-opacity="1" fill-rule="nonzero"/><path fill="#000000" d="M 136.917969 173.925781 C 129.117188 173.925781 122.769531 180.28125 122.769531 188.089844 C 122.769531 193.351562 123.285156 198.632812 124.304688 203.792969 L 126.929688 217.101562 C 128.726562 226.214844 136.765625 232.832031 146.042969 232.832031 C 155.324219 232.832031 163.367188 226.214844 165.164062 217.101562 L 167.789062 203.792969 C 168.804688 198.632812 169.320312 193.351562 169.320312 188.089844 C 169.320312 180.28125 162.972656 173.925781 155.171875 173.925781 Z M 146.042969 233.515625 C 136.441406 233.515625 128.121094 226.667969 126.261719 217.234375 L 123.636719 203.925781 C 122.609375 198.722656 122.089844 193.394531 122.089844 188.089844 C 122.089844 179.90625 128.742188 173.246094 136.917969 173.246094 L 155.171875 173.246094 C 163.347656 173.246094 170 179.90625 170 188.089844 C 170 193.394531 169.480469 198.722656 168.457031 203.925781 L 165.832031 217.234375 C 163.96875 226.667969 155.648438 233.515625 146.042969 233.515625 " fill-opacity="1" fill-rule="nonzero"/><path fill="#caddff" d="M 144.871094 205.726562 L 147.21875 205.726562 C 152.058594 205.726562 155.980469 201.796875 155.980469 196.953125 L 155.980469 173.585938 L 136.109375 173.585938 L 136.109375 196.953125 C 136.109375 201.796875 140.03125 205.726562 144.871094 205.726562 " fill-opacity="1" fill-rule="nonzero"/><path fill="#000000" d="M 155.980469 173.925781 L 136.109375 173.925781 C 135.921875 173.925781 135.769531 173.773438 135.769531 173.585938 C 135.769531 173.394531 135.921875 173.242188 136.109375 173.242188 L 155.980469 173.242188 C 156.171875 173.242188 156.324219 173.394531 156.324219 173.585938 C 156.324219 173.773438 156.171875 173.925781 155.980469 173.925781 " fill-opacity="1" fill-rule="nonzero"/><path fill="#000000" d="M 121.546875 138.132812 L 156.636719 138.132812 C 160.28125 138.132812 163.238281 141.320312 163.238281 145.253906 L 163.238281 149.902344 C 163.238281 152.902344 161.636719 156.082031 158.878906 156.597656 C 149.15625 158.429688 129.027344 158.429688 119.300781 156.597656 C 116.542969 156.082031 114.945312 152.902344 114.945312 149.902344 L 114.945312 145.253906 C 114.945312 141.320312 117.898438 138.132812 121.546875 138.132812 " fill-opacity="1" fill-rule="nonzero"/><path fill="#5479f7" d="M 147.335938 147.484375 C 147.335938 148.800781 148.328125 149.871094 149.546875 149.871094 C 150.769531 149.871094 151.761719 148.800781 151.761719 147.484375 C 151.761719 146.164062 150.769531 145.097656 149.546875 145.097656 C 148.328125 145.097656 147.335938 146.164062 147.335938 147.484375 " fill-opacity="1" fill-rule="nonzero"/><path fill="#5479f7" d="M 123.808594 147.484375 C 123.808594 148.800781 124.800781 149.871094 126.019531 149.871094 C 127.242188 149.871094 128.230469 148.800781 128.230469 147.484375 C 128.230469 146.164062 127.242188 145.097656 126.019531 145.097656 C 124.800781 145.097656 123.808594 146.164062 123.808594 147.484375 " fill-opacity="1" fill-rule="nonzero"/><path fill="#5479f7" d="M 160.523438 161.511719 C 160.378906 161.511719 160.25 161.421875 160.199219 161.277344 C 160.144531 161.097656 160.238281 160.90625 160.417969 160.847656 L 171.621094 157.152344 C 176.730469 155.46875 179.847656 150.382812 179.035156 145.0625 L 178.226562 139.785156 C 178.199219 139.597656 178.324219 139.425781 178.511719 139.398438 C 178.699219 139.367188 178.871094 139.496094 178.898438 139.683594 L 179.707031 144.957031 C 180.570312 150.609375 177.261719 156.011719 171.835938 157.800781 L 160.628906 161.496094 C 160.597656 161.507812 160.558594 161.511719 160.523438 161.511719 " fill-opacity="1" fill-rule="nonzero"/><path fill="#5479f7" d="M 183.835938 137.515625 C 183.6875 137.515625 183.546875 137.414062 183.507812 137.261719 C 183.488281 137.191406 181.609375 130.230469 176.675781 123.476562 C 172.136719 117.269531 164.007812 109.960938 151.023438 110.425781 C 150.839844 110.433594 150.675781 110.285156 150.671875 110.097656 C 150.664062 109.910156 150.8125 109.753906 151 109.746094 C 156.863281 109.535156 162.265625 110.847656 167.042969 113.644531 C 170.859375 115.878906 174.289062 119.054688 177.238281 123.089844 C 182.242188 129.949219 184.148438 137.015625 184.167969 137.085938 C 184.214844 137.269531 184.105469 137.457031 183.925781 137.503906 C 183.894531 137.511719 183.867188 137.515625 183.835938 137.515625 " fill-opacity="1" fill-rule="nonzero"/><path fill="#99b9ff" d="M 174.28125 145.394531 C 173.679688 140.640625 176.722656 136.34375 181.070312 135.792969 C 181.546875 135.734375 183.316406 135.6875 183.78125 135.71875 C 187.554688 135.972656 189.5 139.167969 190.035156 143.398438 C 190.609375 147.960938 188.875 152.21875 184.800781 153.03125 C 184.632812 153.066406 183.425781 153.160156 183.25 153.160156 C 178.484375 153.175781 174.882812 150.144531 174.28125 145.394531 " fill-opacity="1" fill-rule="nonzero"/><path fill="#5479f7" d="M 176.160156 145.238281 C 175.65625 140.476562 178.777344 136.242188 183.136719 135.773438 C 187.496094 135.308594 191.445312 138.792969 191.953125 143.554688 C 192.457031 148.3125 189.335938 152.550781 184.976562 153.015625 C 180.617188 153.480469 176.667969 150 176.160156 145.238281 " fill-opacity="1" fill-rule="nonzero"/><path fill="#5479f7" d="M 163.050781 162.832031 L 154.324219 163.664062 C 153.992188 163.695312 153.691406 163.445312 153.660156 163.113281 L 153.40625 160.425781 C 153.371094 160.089844 153.621094 159.792969 153.953125 159.761719 L 162.679688 158.929688 C 163.015625 158.898438 163.3125 159.144531 163.34375 159.480469 L 163.597656 162.167969 C 163.632812 162.5 163.382812 162.800781 163.050781 162.832031 " fill-opacity="1" fill-rule="nonzero"/><path fill="#99b9ff" d="M 127.269531 225.097656 L 161.25 225.097656 L 148.050781 189.363281 L 114.074219 189.363281 L 127.269531 225.097656 " fill-opacity="1" fill-rule="nonzero"/><path fill="#000000" d="M 127.507812 224.757812 L 160.757812 224.757812 L 147.8125 189.703125 L 114.5625 189.703125 Z M 161.25 225.4375 L 127.269531 225.4375 C 127.128906 225.4375 127 225.347656 126.953125 225.214844 L 113.753906 189.480469 C 113.714844 189.375 113.730469 189.257812 113.792969 189.167969 C 113.855469 189.074219 113.960938 189.019531 114.074219 189.019531 L 148.050781 189.019531 C 148.195312 189.019531 148.320312 189.109375 148.371094 189.246094 L 161.570312 224.980469 C 161.605469 225.082031 161.59375 225.203125 161.527344 225.292969 C 161.464844 225.382812 161.359375 225.4375 161.25 225.4375 " fill-opacity="1" fill-rule="nonzero"/><path fill="#000000" d="M 169.355469 216.222656 C 174.34375 216.222656 181.097656 215.511719 185.425781 212.191406 C 187.921875 210.273438 189.378906 207.746094 189.757812 204.675781 C 191.460938 190.886719 174.839844 182.992188 174.132812 182.664062 C 172.855469 182.070312 171.34375 182.625 170.75 183.902344 C 170.15625 185.179688 170.710938 186.695312 171.984375 187.289062 C 172.125 187.355469 185.949219 193.953125 184.703125 204.050781 C 184.492188 205.734375 183.714844 207.074219 182.324219 208.140625 C 177.566406 211.796875 165.015625 211.703125 161.417969 211.199219 C 160.027344 211 159.34375 211.925781 159.148438 213.320312 C 158.953125 214.714844 160.019531 216.046875 161.417969 216.203125 C 163.4375 216.421875 165.800781 216.222656 169.355469 216.222656 " fill-opacity="1" fill-rule="nonzero"/><path fill="#000000" d="M 150.550781 219.695312 L 155.445312 219.695312 C 158.117188 219.695312 160.335938 217.6875 160.597656 215.023438 L 160.769531 213.320312 C 160.914062 211.863281 160.4375 210.40625 159.457031 209.324219 C 158.476562 208.238281 157.074219 207.617188 155.613281 207.617188 L 147.8125 207.617188 C 146.40625 207.617188 145.265625 208.757812 145.265625 210.167969 C 145.265625 211.574219 146.40625 212.71875 147.8125 212.71875 L 155.613281 212.71875 C 155.628906 212.71875 155.652344 212.71875 155.679688 212.746094 C 155.703125 212.773438 155.703125 212.796875 155.699219 212.8125 L 155.53125 214.515625 C 155.527344 214.5625 155.488281 214.59375 155.445312 214.59375 L 150.550781 214.59375 C 149.144531 214.59375 148.003906 215.734375 148.003906 217.144531 C 148.003906 218.554688 149.144531 219.695312 150.550781 219.695312 " fill-opacity="1" fill-rule="nonzero"/><path fill="#99b9ff" d="M 94.800781 95.902344 C 97.859375 94.941406 101.117188 96.644531 102.078125 99.710938 C 103.035156 102.773438 101.332031 106.035156 98.273438 106.996094 C 95.214844 107.953125 91.957031 106.25 91 103.1875 C 90.039062 100.121094 91.742188 96.863281 94.800781 95.902344 Z M 85.070312 103.863281 L 85.746094 106.019531 L 88.199219 105.816406 C 88.445312 106.289062 88.722656 106.734375 89.039062 107.144531 L 87.8125 109.28125 L 89.472656 110.808594 L 91.496094 109.40625 C 91.941406 109.6875 92.40625 109.929688 92.886719 110.132812 L 92.894531 112.601562 L 95.09375 113.09375 L 96.144531 110.867188 C 96.664062 110.886719 97.1875 110.863281 97.714844 110.796875 L 98.949219 112.929688 L 101.101562 112.253906 L 100.902344 109.796875 C 101.371094 109.550781 101.816406 109.269531 102.230469 108.957031 L 104.363281 110.183594 L 105.886719 108.523438 L 104.484375 106.492188 C 104.765625 106.050781 105.007812 105.585938 105.210938 105.101562 L 107.675781 105.097656 L 108.167969 102.894531 L 105.945312 101.839844 C 105.964844 101.320312 105.941406 100.796875 105.875 100.269531 L 108.007812 99.03125 L 107.332031 96.878906 L 104.878906 97.078125 C 104.632812 96.609375 104.351562 96.164062 104.039062 95.75 L 105.265625 93.613281 L 103.601562 92.085938 L 101.578125 93.488281 C 101.136719 93.210938 100.671875 92.964844 100.1875 92.761719 L 100.183594 90.296875 L 97.984375 89.804688 L 96.929688 92.027344 C 96.410156 92.007812 95.886719 92.03125 95.363281 92.097656 L 94.125 89.964844 L 91.972656 90.640625 L 92.175781 93.097656 C 91.707031 93.34375 91.261719 93.625 90.847656 93.9375 L 88.714844 92.710938 L 87.1875 94.371094 L 88.589844 96.402344 C 88.308594 96.84375 88.066406 97.308594 87.863281 97.792969 L 85.398438 97.796875 L 84.910156 100 L 87.132812 101.054688 C 87.109375 101.574219 87.132812 102.097656 87.199219 102.625 L 85.070312 103.863281 " fill-opacity="1" fill-rule="nonzero"/><path fill="#caddff" d="M 72.367188 94.082031 C 74.394531 93.449219 76.554688 94.578125 77.191406 96.609375 C 77.828125 98.640625 76.699219 100.804688 74.667969 101.441406 C 72.640625 102.078125 70.480469 100.945312 69.84375 98.914062 C 69.207031 96.882812 70.335938 94.722656 72.367188 94.082031 Z M 65.914062 99.363281 L 66.359375 100.792969 L 67.988281 100.660156 C 68.148438 100.972656 68.335938 101.265625 68.542969 101.539062 L 67.730469 102.957031 L 68.832031 103.972656 L 70.175781 103.039062 C 70.46875 103.226562 70.777344 103.386719 71.097656 103.523438 L 71.101562 105.160156 L 72.558594 105.484375 L 73.257812 104.007812 C 73.601562 104.023438 73.949219 104.007812 74.296875 103.964844 L 75.117188 105.378906 L 76.542969 104.929688 L 76.410156 103.300781 C 76.722656 103.136719 77.019531 102.949219 77.292969 102.742188 L 78.707031 103.554688 L 79.71875 102.453125 L 78.789062 101.109375 C 78.976562 100.816406 79.136719 100.507812 79.269531 100.1875 L 80.902344 100.183594 L 81.230469 98.722656 L 79.757812 98.023438 C 79.769531 97.679688 79.753906 97.332031 79.710938 96.980469 L 81.125 96.160156 L 80.675781 94.730469 L 79.046875 94.867188 C 78.886719 94.550781 78.699219 94.257812 78.492188 93.984375 L 79.304688 92.566406 L 78.203125 91.554688 L 76.859375 92.484375 C 76.566406 92.296875 76.257812 92.136719 75.9375 92 L 75.933594 90.367188 L 74.476562 90.039062 L 73.777344 91.515625 C 73.433594 91.503906 73.085938 91.515625 72.738281 91.5625 L 71.917969 90.148438 L 70.492188 90.59375 L 70.625 92.226562 C 70.3125 92.386719 70.019531 92.574219 69.742188 92.78125 L 68.328125 91.96875 L 67.316406 93.070312 L 68.246094 94.417969 C 68.0625 94.710938 67.898438 95.019531 67.765625 95.339844 L 66.132812 95.34375 L 65.804688 96.804688 L 67.28125 97.503906 C 67.265625 97.84375 67.28125 98.195312 67.324219 98.542969 L 65.914062 99.363281 " fill-opacity="1" fill-rule="nonzero"/><path fill="#000000" d="M 185.429688 111.332031 C 185.414062 111.332031 185.394531 111.328125 185.375 111.328125 C 185.191406 111.296875 185.0625 111.125 185.09375 110.9375 L 185.367188 109.191406 C 185.398438 109.003906 185.574219 108.878906 185.757812 108.90625 C 185.941406 108.9375 186.070312 109.109375 186.042969 109.296875 L 185.765625 111.042969 C 185.738281 111.210938 185.59375 111.332031 185.429688 111.332031 " fill-opacity="1" fill-rule="nonzero"/><path fill="#000000" d="M 184.464844 117.449219 C 184.449219 117.449219 184.429688 117.445312 184.414062 117.441406 C 184.226562 117.414062 184.101562 117.238281 184.128906 117.054688 L 184.40625 115.304688 C 184.433594 115.121094 184.609375 114.992188 184.792969 115.023438 C 184.980469 115.050781 185.109375 115.226562 185.078125 115.414062 L 184.804688 117.160156 C 184.777344 117.328125 184.632812 117.449219 184.464844 117.449219 " fill-opacity="1" fill-rule="nonzero"/><path fill="#000000" d="M 182.941406 113.144531 C 182.921875 113.144531 182.902344 113.144531 182.882812 113.140625 L 181.167969 112.84375 C 180.984375 112.8125 180.859375 112.632812 180.890625 112.449219 C 180.921875 112.261719 181.097656 112.136719 181.285156 112.171875 L 183 112.46875 C 183.183594 112.5 183.308594 112.675781 183.277344 112.863281 C 183.25 113.027344 183.105469 113.144531 182.941406 113.144531 " fill-opacity="1" fill-rule="nonzero"/><path fill="#000000" d="M 188.945312 114.183594 C 188.925781 114.183594 188.90625 114.183594 188.886719 114.179688 L 187.171875 113.882812 C 186.988281 113.851562 186.863281 113.671875 186.894531 113.488281 C 186.925781 113.300781 187.101562 113.175781 187.289062 113.210938 L 189.003906 113.507812 C 189.1875 113.539062 189.3125 113.714844 189.28125 113.898438 C 189.253906 114.066406 189.109375 114.183594 188.945312 114.183594 " fill-opacity="1" fill-rule="nonzero"/><path fill="#000000" d="M 176.578125 232.242188 C 176.558594 232.242188 176.539062 232.238281 176.523438 232.238281 C 176.335938 232.207031 176.210938 232.03125 176.238281 231.847656 L 176.515625 230.097656 C 176.542969 229.914062 176.71875 229.785156 176.90625 229.816406 C 177.089844 229.84375 177.21875 230.019531 177.1875 230.207031 L 176.914062 231.953125 C 176.886719 232.121094 176.742188 232.242188 176.578125 232.242188 " fill-opacity="1" fill-rule="nonzero"/><path fill="#000000" d="M 175.613281 238.359375 C 175.59375 238.359375 175.574219 238.355469 175.558594 238.351562 C 175.371094 238.324219 175.246094 238.148438 175.273438 237.964844 L 175.550781 236.214844 C 175.578125 236.03125 175.753906 235.902344 175.941406 235.929688 C 176.125 235.960938 176.253906 236.136719 176.222656 236.324219 L 175.949219 238.070312 C 175.921875 238.238281 175.777344 238.359375 175.613281 238.359375 " fill-opacity="1" fill-rule="nonzero"/><path fill="#000000" d="M 174.089844 234.054688 C 174.070312 234.054688 174.046875 234.050781 174.03125 234.050781 L 172.316406 233.753906 C 172.128906 233.722656 172.003906 233.542969 172.035156 233.359375 C 172.070312 233.171875 172.242188 233.046875 172.429688 233.078125 L 174.144531 233.375 C 174.332031 233.410156 174.457031 233.585938 174.421875 233.769531 C 174.394531 233.9375 174.25 234.054688 174.089844 234.054688 " fill-opacity="1" fill-rule="nonzero"/><path fill="#000000" d="M 180.089844 235.09375 C 180.070312 235.09375 180.050781 235.089844 180.035156 235.089844 L 178.316406 234.792969 C 178.132812 234.757812 178.007812 234.582031 178.039062 234.398438 C 178.074219 234.210938 178.246094 234.085938 178.433594 234.117188 L 180.148438 234.414062 C 180.335938 234.449219 180.460938 234.625 180.425781 234.808594 C 180.398438 234.976562 180.253906 235.09375 180.089844 235.09375 " fill-opacity="1" fill-rule="nonzero"/><path fill="#ffffff" d="M 156.875 241.195312 C 157.429688 241.117188 158.046875 241.160156 158.726562 241.386719 L 166.789062 243.164062 C 166.789062 243.164062 165.007812 245.355469 163.152344 245.480469 C 164.15625 247.042969 164.730469 248.433594 164.730469 248.433594 C 164.730469 248.433594 168.304688 249.320312 169.042969 249.648438 C 169.777344 249.972656 170.835938 250.335938 171.351562 251.105469 C 171.871094 251.875 171.808594 253.035156 171.808594 253.035156 L 163.253906 252.496094 L 155.574219 246.058594 L 141.480469 253.058594 L 142.105469 244.367188 L 156.875 241.195312 " fill-opacity="1" fill-rule="nonzero"/><path fill="#000000" d="M 163.386719 252.164062 L 171.464844 252.671875 C 171.4375 252.304688 171.355469 251.722656 171.070312 251.296875 C 170.683594 250.71875 169.878906 250.375 169.234375 250.101562 C 169.117188 250.054688 169.007812 250.007812 168.902344 249.960938 C 168.320312 249.699219 165.636719 249.007812 164.648438 248.765625 C 164.542969 248.738281 164.457031 248.664062 164.417969 248.5625 C 164.414062 248.550781 163.839844 247.179688 162.863281 245.664062 C 162.800781 245.5625 162.792969 245.433594 162.847656 245.328125 C 162.902344 245.21875 163.007812 245.148438 163.128906 245.140625 C 164.335938 245.058594 165.542969 243.984375 166.140625 243.371094 L 158.652344 241.722656 C 158.640625 241.71875 158.628906 241.714844 158.617188 241.710938 C 158.039062 241.519531 157.472656 241.457031 156.933594 241.53125 L 142.425781 244.644531 L 141.863281 252.488281 L 155.421875 245.753906 C 155.542969 245.695312 155.6875 245.710938 155.789062 245.796875 Z M 141.480469 253.402344 C 141.414062 253.402344 141.347656 253.382812 141.289062 253.34375 C 141.1875 253.273438 141.128906 253.15625 141.140625 253.035156 L 141.765625 244.339844 C 141.777344 244.191406 141.886719 244.0625 142.035156 244.03125 L 156.800781 240.859375 C 156.808594 240.859375 156.816406 240.859375 156.824219 240.855469 C 157.46875 240.765625 158.136719 240.835938 158.816406 241.058594 L 166.859375 242.832031 C 166.976562 242.855469 167.070312 242.941406 167.109375 243.050781 C 167.148438 243.164062 167.128906 243.289062 167.050781 243.378906 C 166.984375 243.464844 165.472656 245.300781 163.710938 245.734375 C 164.378906 246.835938 164.816406 247.777344 164.976562 248.140625 C 165.699219 248.324219 168.507812 249.039062 169.179688 249.335938 C 169.28125 249.382812 169.386719 249.425781 169.5 249.472656 C 170.226562 249.785156 171.132812 250.167969 171.632812 250.914062 C 172.210938 251.769531 172.152344 253 172.148438 253.054688 C 172.144531 253.144531 172.105469 253.230469 172.039062 253.292969 C 171.96875 253.351562 171.878906 253.382812 171.789062 253.375 L 163.230469 252.835938 C 163.160156 252.832031 163.089844 252.804688 163.03125 252.757812 L 155.523438 246.464844 L 141.632812 253.367188 C 141.582031 253.390625 141.53125 253.402344 141.480469 253.402344 " fill-opacity="1" fill-rule="nonzero"/><path fill="#5479f7" d="M 156.464844 248.550781 C 156.464844 248.550781 151.355469 240.589844 151.347656 240.578125 C 150.945312 239.953125 147.585938 240.953125 146.964844 240.988281 C 144.734375 241.117188 142.417969 240.753906 140.195312 240.507812 C 135.453125 239.980469 130.734375 239.21875 126.070312 238.21875 C 122.257812 237.402344 118.425781 236.410156 115.046875 234.460938 C 110.601562 231.898438 108.269531 227.902344 106.488281 223.238281 C 105.140625 219.71875 103.535156 216.773438 101.53125 213.546875 C 98.558594 208.773438 93.625 204.859375 89.53125 202.824219 C 83.167969 199.664062 75.769531 198.136719 68.71875 199.546875 C 55.117188 202.261719 45.8125 210.203125 45.8125 210.203125 C 38.414062 216.117188 24.742188 236.746094 29.617188 246.679688 C 35.59375 258.859375 51.707031 251.734375 51.707031 251.734375 C 51.707031 251.734375 53.273438 254.292969 49.910156 262.066406 C 45.824219 271.515625 51.742188 272.78125 51.742188 272.78125 C 65.5 279.511719 101.9375 278.007812 98.828125 270.488281 C 95.503906 262.441406 95.445312 252.238281 95.445312 252.238281 C 100.042969 256.789062 110 257.75 110 257.75 C 110 257.75 118.40625 258.546875 123.746094 257.636719 C 153.617188 253.203125 156.464844 248.550781 156.464844 248.550781 " fill-opacity="1" fill-rule="nonzero"/><path fill="#000000" d="M 51.914062 245.792969 C 51.773438 245.792969 51.640625 245.703125 51.589844 245.5625 C 47.039062 232.371094 49.152344 221.714844 49.175781 221.609375 C 49.210938 221.421875 49.394531 221.304688 49.578125 221.34375 C 49.761719 221.378906 49.878906 221.5625 49.839844 221.746094 C 49.820312 221.851562 47.746094 232.335938 52.234375 245.339844 C 52.296875 245.519531 52.203125 245.710938 52.023438 245.773438 C 51.988281 245.785156 51.949219 245.792969 51.914062 245.792969 " fill-opacity="1" fill-rule="nonzero"/><path fill="#000000" d="M 95.175781 252.648438 C 95.089844 252.648438 95.003906 252.617188 94.9375 252.554688 C 87.820312 245.59375 82.863281 229.425781 82.65625 228.738281 C 82.601562 228.558594 82.703125 228.367188 82.882812 228.3125 C 83.0625 228.257812 83.253906 228.363281 83.308594 228.542969 C 83.359375 228.707031 88.421875 245.226562 95.414062 252.066406 C 95.550781 252.195312 95.550781 252.414062 95.421875 252.546875 C 95.351562 252.617188 95.265625 252.648438 95.175781 252.648438 " fill-opacity="1" fill-rule="nonzero"/><path fill="#ffffff" d="M 76.488281 167.285156 C 79.234375 167.296875 81.769531 168.785156 83.148438 171.167969 C 83.789062 172.269531 84.371094 173.296875 84.488281 173.589844 C 84.753906 174.25 85.34375 176.46875 87.503906 178.613281 C 87.71875 178.824219 87.75 179.15625 87.5625 179.394531 L 86.179688 181.167969 C 86.082031 181.289062 86.042969 181.445312 86.070312 181.597656 C 86.234375 182.542969 87.058594 185.976562 86.816406 186.59375 C 86.300781 187.90625 83.164062 188.261719 82.238281 188.339844 C 82.0625 188.355469 81.90625 188.453125 81.824219 188.605469 C 81.523438 189.148438 80.726562 190.707031 80.074219 194.59375 C 79.082031 200.519531 84.722656 201.441406 83.574219 202.023438 C 75.558594 206.070312 60.804688 205.152344 61.660156 203.464844 C 62.363281 202.082031 70.460938 198.492188 71.214844 188.75 C 71.683594 182.671875 63.183594 182.171875 69.308594 170.605469 C 70.730469 167.917969 73.8125 167.273438 76.488281 167.285156 " fill-opacity="1" fill-rule="nonzero"/><path fill="#000000" d="M 61.972656 203.601562 C 62.007812 203.644531 62.140625 203.761719 62.554688 203.90625 C 65.433594 204.914062 76.464844 205.140625 83.261719 201.796875 C 83.152344 201.710938 83 201.601562 82.867188 201.511719 C 81.621094 200.636719 79.023438 198.816406 79.738281 194.539062 C 80.199219 191.804688 80.796875 189.75 81.523438 188.4375 C 81.664062 188.1875 81.917969 188.023438 82.207031 188 C 83.96875 187.851562 86.148438 187.363281 86.5 186.46875 C 86.648438 186.078125 86.144531 183.664062 85.929688 182.636719 C 85.847656 182.230469 85.773438 181.875 85.734375 181.65625 C 85.691406 181.410156 85.757812 181.15625 85.910156 180.957031 L 87.292969 179.183594 C 87.371094 179.085938 87.359375 178.945312 87.265625 178.855469 C 85.328125 176.933594 84.625 174.976562 84.289062 174.035156 C 84.242188 173.90625 84.203125 173.796875 84.171875 173.714844 C 84.117188 173.582031 83.875 173.101562 82.855469 171.339844 C 81.535156 169.058594 79.09375 167.640625 76.484375 167.625 C 76.460938 167.625 76.4375 167.625 76.414062 167.625 C 74.050781 167.625 70.980469 168.175781 69.609375 170.765625 C 65.820312 177.921875 67.726562 180.664062 69.566406 183.316406 C 70.632812 184.847656 71.734375 186.433594 71.554688 188.773438 C 70.960938 196.410156 66.019531 200.285156 63.367188 202.367188 C 62.699219 202.890625 62.121094 203.34375 61.972656 203.601562 Z M 68.734375 205.234375 C 65.0625 205.234375 62.171875 204.765625 61.503906 204.097656 C 61.273438 203.867188 61.21875 203.578125 61.355469 203.3125 C 61.550781 202.921875 62.105469 202.488281 62.945312 201.828125 C 65.519531 199.8125 70.304688 196.058594 70.875 188.722656 C 71.035156 186.625 70.050781 185.207031 69.007812 183.707031 C 67.140625 181.019531 65.023438 177.972656 69.007812 170.445312 C 70.21875 168.152344 72.78125 166.941406 76.410156 166.941406 C 76.4375 166.941406 76.460938 166.941406 76.488281 166.941406 C 79.335938 166.957031 82.003906 168.511719 83.445312 170.996094 C 84.640625 173.0625 84.761719 173.363281 84.804688 173.460938 C 84.839844 173.546875 84.878906 173.664062 84.929688 173.804688 C 85.25 174.699219 85.917969 176.558594 87.746094 178.367188 C 88.082031 178.703125 88.121094 179.234375 87.832031 179.605469 L 86.449219 181.378906 C 86.410156 181.421875 86.394531 181.480469 86.40625 181.539062 C 86.441406 181.75 86.515625 182.09375 86.597656 182.496094 C 87.101562 184.917969 87.324219 186.234375 87.132812 186.71875 C 86.5625 188.171875 83.539062 188.574219 82.265625 188.679688 C 82.203125 188.683594 82.148438 188.71875 82.121094 188.769531 C 81.261719 190.320312 80.71875 192.824219 80.410156 194.652344 C 79.765625 198.503906 82.039062 200.097656 83.257812 200.949219 C 83.777344 201.3125 84.09375 201.535156 84.066406 201.878906 C 84.058594 202.007812 83.992188 202.191406 83.726562 202.324219 C 79.511719 204.457031 73.476562 205.234375 68.734375 205.234375 " fill-opacity="1" fill-rule="nonzero"/><path fill="#000000" d="M 81.160156 176.652344 L 84.363281 172.636719 C 86.011719 170.574219 85.433594 167.539062 83.160156 166.207031 C 82.527344 165.839844 81.785156 165.453125 80.957031 165.097656 C 72.726562 161.546875 63.292969 167.40625 63.28125 176.382812 C 63.277344 180.054688 65.730469 184.3125 70.945312 188.097656 C 70.945312 188.097656 74.609375 185.207031 74.5625 182.078125 C 74.5625 182.078125 71.902344 178.917969 75.648438 177.320312 C 76.367188 177.015625 77.183594 177.039062 77.882812 177.382812 C 79.011719 177.941406 80.375 177.636719 81.160156 176.652344 " fill-opacity="1" fill-rule="nonzero"/><path fill="#000000" d="M 76.273438 183.855469 C 75.210938 183.855469 73.847656 183.402344 72.835938 181.488281 C 72.75 181.320312 72.8125 181.113281 72.980469 181.027344 C 73.144531 180.9375 73.351562 181 73.441406 181.167969 C 75.035156 184.191406 77.542969 182.933594 77.648438 182.878906 C 77.816406 182.789062 78.019531 182.855469 78.109375 183.023438 C 78.195312 183.1875 78.132812 183.394531 77.964844 183.480469 C 77.949219 183.488281 77.230469 183.855469 76.273438 183.855469 " fill-opacity="1" fill-rule="nonzero"/><path fill="#000000" d="M 67.574219 167.859375 C 67.574219 167.859375 64.792969 158.230469 54.648438 160.042969 C 48.316406 161.175781 42.789062 165.4375 39.75 172.390625 C 37.5 177.535156 37.59375 182.085938 37.101562 187.480469 C 36.65625 192.304688 32.367188 195.523438 31.394531 200.113281 C 30.210938 205.710938 35.652344 209.75 40.898438 208.710938 C 46.757812 207.546875 52.191406 201.414062 54.589844 196.277344 C 57.070312 190.96875 57.480469 185.070312 58.734375 179.417969 C 59.277344 176.96875 59.6875 173.589844 61.632812 171.894531 C 62.632812 171.023438 65.917969 170.929688 66.488281 169.875 C 66.488281 169.871094 67.574219 167.859375 67.574219 167.859375 " fill-opacity="1" fill-rule="nonzero"/></svg>