<svg xmlns="http://www.w3.org/2000/svg" xmlns:xlink="http://www.w3.org/1999/xlink" width="480" zoomAndPan="magnify" viewBox="0 0 360 359.999987" height="480" preserveAspectRatio="xMidYMid meet" version="1.0"><defs><clipPath id="8af56503f9"><path d="M 36 22.414062 L 147 22.414062 L 147 342.664062 L 36 342.664062 Z M 36 22.414062 " clip-rule="nonzero"/></clipPath></defs><rect x="-36" width="432" fill="#ffffff" y="-35.999999" height="431.999984" fill-opacity="1"/><rect x="-36" width="432" fill="#ffffff" y="-35.999999" height="431.999984" fill-opacity="1"/><path fill="#d9d9d9" d="M -0.113281 -0.195312 L 358.746094 -0.195312 L 358.746094 365.113281 L -0.113281 365.113281 Z M -0.113281 -0.195312 " fill-opacity="1" fill-rule="nonzero"/><path stroke-linecap="butt" transform="matrix(0, -0.75, 0.75, 0, 245.107927, 359.999972)" fill="none" stroke-linejoin="miter" d="M -0.0000378667 2.001931 L 480 2.001931 " stroke="#000000" stroke-width="4" stroke-opacity="1" stroke-miterlimit="4"/><path fill="#1f3a68" d="M 138.433594 45.210938 L 47.058594 45.210938 L 47.058594 36.527344 L 138.433594 36.527344 L 138.433594 45.210938 " fill-opacity="1" fill-rule="nonzero"/><path fill="#1f3a68" d="M 138.433594 68.890625 L 47.058594 68.890625 L 47.058594 60.207031 L 138.433594 60.207031 L 138.433594 68.890625 " fill-opacity="1" fill-rule="nonzero"/><path fill="#1f3a68" d="M 135.296875 305.660156 L 43.90625 305.660156 L 43.90625 296.976562 L 135.296875 296.976562 L 135.296875 305.660156 " fill-opacity="1" fill-rule="nonzero"/><path fill="#1f3a68" d="M 135.296875 329.339844 L 43.90625 329.339844 L 43.90625 320.660156 L 135.296875 320.660156 L 135.296875 329.339844 " fill-opacity="1" fill-rule="nonzero"/><path fill="#1f3a68" d="M 130.890625 145.144531 C 129.484375 143.101562 128.007812 140.972656 126.742188 138.730469 L 52.164062 138.730469 C 50.828125 141.761719 49.140625 144.59375 47.367188 147.414062 L 132.355469 147.414062 C 131.890625 146.652344 131.398438 145.890625 130.890625 145.144531 " fill-opacity="1" fill-rule="nonzero"/><path fill="#1f3a68" d="M 134.308594 172.769531 L 42.921875 172.769531 L 42.921875 164.089844 L 134.308594 164.089844 L 134.308594 172.769531 " fill-opacity="1" fill-rule="nonzero"/><path fill="#1f3a68" d="M 137.25 198.128906 L 45.875 198.128906 L 45.875 189.445312 L 137.25 189.445312 L 137.25 198.128906 " fill-opacity="1" fill-rule="nonzero"/><path fill="#1f3a68" d="M 134.367188 214.804688 L 51.390625 214.804688 C 53.5 217.734375 55.78125 220.554688 57.847656 223.472656 L 129.246094 223.472656 C 130.976562 220.609375 132.691406 217.707031 134.367188 214.804688 " fill-opacity="1" fill-rule="nonzero"/><g clip-path="url(#8af56503f9)"><path fill="#1f3a68" d="M 138.796875 342.351562 C 134.226562 342.351562 130.527344 338.65625 130.527344 334.078125 C 130.527344 300.164062 109.085938 282.980469 86.40625 264.769531 C 62.8125 245.855469 36.070312 224.402344 36.070312 182.539062 C 36.070312 140.675781 62.8125 119.222656 86.40625 100.308594 C 109.085938 82.097656 130.527344 64.898438 130.527344 31 C 130.527344 26.433594 134.226562 22.71875 138.796875 22.71875 C 143.371094 22.71875 147.070312 26.433594 147.070312 31 C 147.070312 72.863281 120.328125 94.316406 96.734375 113.246094 C 74.042969 131.445312 52.613281 148.640625 52.613281 182.539062 C 52.613281 216.4375 74.042969 233.632812 96.734375 251.84375 C 120.328125 270.761719 147.070312 292.214844 147.070312 334.078125 C 147.070312 338.65625 143.371094 342.351562 138.796875 342.351562 " fill-opacity="1" fill-rule="nonzero"/><path fill="#4eb1cb" d="M 44.34375 342.351562 C 39.769531 342.351562 36.070312 338.65625 36.070312 334.078125 C 36.070312 292.214844 62.8125 270.761719 86.40625 251.84375 C 109.085938 233.632812 130.527344 216.4375 130.527344 182.539062 C 130.527344 148.640625 109.085938 131.445312 86.40625 113.246094 C 62.8125 94.316406 36.070312 72.863281 36.070312 31 C 36.070312 26.433594 39.769531 22.71875 44.34375 22.71875 C 48.914062 22.71875 52.613281 26.433594 52.613281 31 C 52.613281 64.898438 74.042969 82.097656 96.734375 100.308594 C 120.328125 119.222656 147.070312 140.675781 147.070312 182.539062 C 147.070312 224.402344 120.328125 245.855469 96.734375 264.769531 C 74.042969 282.980469 52.613281 300.164062 52.613281 334.078125 C 52.613281 338.65625 48.914062 342.351562 44.34375 342.351562 " fill-opacity="1" fill-rule="nonzero"/></g></svg>