<svg xmlns="http://www.w3.org/2000/svg" xmlns:xlink="http://www.w3.org/1999/xlink" width="500" zoomAndPan="magnify" viewBox="0 0 375 374.999991" height="500" preserveAspectRatio="xMidYMid meet" version="1.0"><defs><g/></defs><rect x="-37.5" width="450" fill="#ffffff" y="-37.499999" height="449.999989" fill-opacity="1"/><rect x="-37.5" width="450" fill="#2c135d" y="-37.499999" height="449.999989" fill-opacity="1"/><g fill="#ffffff" fill-opacity="1"><g transform="translate(40.188547, 165.917531)"><g><path d="M 25.234375 0.65625 C 20.984375 0.65625 17.234375 -0.222656 13.984375 -1.984375 C 10.742188 -3.753906 8.207031 -6.410156 6.375 -9.953125 C 4.539062 -13.503906 3.625 -17.882812 3.625 -23.09375 C 3.625 -28.289062 4.539062 -32.660156 6.375 -36.203125 C 8.207031 -39.753906 10.742188 -42.414062 13.984375 -44.1875 C 17.234375 -45.957031 20.984375 -46.84375 25.234375 -46.84375 C 29.679688 -46.84375 33.457031 -45.972656 36.5625 -44.234375 C 39.664062 -42.492188 41.878906 -39.847656 43.203125 -36.296875 L 36.546875 -32.21875 L 35.75 -32.25 C 34.757812 -34.644531 33.414062 -36.363281 31.71875 -37.40625 C 30.03125 -38.457031 27.867188 -38.984375 25.234375 -38.984375 C 21.398438 -38.984375 18.410156 -37.710938 16.265625 -35.171875 C 14.117188 -32.628906 13.046875 -28.601562 13.046875 -23.09375 C 13.046875 -17.59375 14.117188 -13.570312 16.265625 -11.03125 C 18.410156 -8.5 21.398438 -7.234375 25.234375 -7.234375 C 31.234375 -7.234375 34.910156 -10.148438 36.265625 -15.984375 L 37.046875 -15.984375 L 43.78125 -12.46875 C 42.507812 -8.09375 40.347656 -4.8125 37.296875 -2.625 C 34.242188 -0.4375 30.222656 0.65625 25.234375 0.65625 Z M 25.234375 0.65625 "/></g></g></g><g fill="#ffffff" fill-opacity="1"><g transform="translate(85.482428, 165.917531)"><g><path d="M 5.015625 0 L 5.015625 -48.828125 L 13.765625 -48.828125 L 13.765625 -30.296875 L 14.4375 -30.171875 C 15.59375 -31.867188 17.007812 -33.179688 18.6875 -34.109375 C 20.375 -35.035156 22.410156 -35.5 24.796875 -35.5 C 32.484375 -35.5 36.328125 -31.140625 36.328125 -22.421875 L 36.328125 0 L 27.578125 0 L 27.578125 -21.328125 C 27.578125 -23.703125 27.101562 -25.425781 26.15625 -26.5 C 25.207031 -27.570312 23.734375 -28.109375 21.734375 -28.109375 C 19.285156 -28.109375 17.34375 -27.289062 15.90625 -25.65625 C 14.476562 -24.03125 13.765625 -21.488281 13.765625 -18.03125 L 13.765625 0 Z M 5.015625 0 "/></g></g></g><g fill="#ffffff" fill-opacity="1"><g transform="translate(126.291141, 165.917531)"><g><path d="M 5.015625 0 L 5.015625 -34.84375 L 13.515625 -34.84375 L 13.515625 -29.65625 L 14.1875 -29.53125 C 15.03125 -31.46875 16.132812 -32.890625 17.5 -33.796875 C 18.863281 -34.703125 20.523438 -35.15625 22.484375 -35.15625 C 24.460938 -35.15625 25.96875 -34.816406 27 -34.140625 L 25.515625 -26.59375 L 24.859375 -26.46875 C 24.285156 -26.695312 23.734375 -26.863281 23.203125 -26.96875 C 22.679688 -27.070312 22.039062 -27.125 21.28125 -27.125 C 18.84375 -27.125 16.976562 -26.265625 15.6875 -24.546875 C 14.40625 -22.835938 13.765625 -20.085938 13.765625 -16.296875 L 13.765625 0 Z M 5.015625 0 "/></g></g></g><g fill="#ffffff" fill-opacity="1"><g transform="translate(153.612764, 165.917531)"><g><path d="M 9.375 -39.015625 C 7.800781 -39.015625 6.519531 -39.488281 5.53125 -40.4375 C 4.539062 -41.394531 4.046875 -42.632812 4.046875 -44.15625 C 4.046875 -45.65625 4.539062 -46.882812 5.53125 -47.84375 C 6.519531 -48.800781 7.800781 -49.28125 9.375 -49.28125 C 10.425781 -49.28125 11.363281 -49.054688 12.1875 -48.609375 C 13.007812 -48.171875 13.644531 -47.566406 14.09375 -46.796875 C 14.550781 -46.023438 14.78125 -45.144531 14.78125 -44.15625 C 14.78125 -43.164062 14.550781 -42.28125 14.09375 -41.5 C 13.644531 -40.71875 13.007812 -40.109375 12.1875 -39.671875 C 11.363281 -39.234375 10.425781 -39.015625 9.375 -39.015625 Z M 5.015625 0 L 5.015625 -34.84375 L 13.765625 -34.84375 L 13.765625 0 Z M 5.015625 0 "/></g></g></g><g fill="#ffffff" fill-opacity="1"><g transform="translate(172.374665, 165.917531)"><g><path d="M 16.296875 0.65625 C 13.921875 0.65625 11.742188 0.378906 9.765625 -0.171875 C 7.785156 -0.734375 6.09375 -1.503906 4.6875 -2.484375 C 3.289062 -3.460938 2.253906 -4.582031 1.578125 -5.84375 L 6.4375 -11.09375 L 7.109375 -11.09375 C 8.265625 -9.53125 9.628906 -8.359375 11.203125 -7.578125 C 12.785156 -6.796875 14.503906 -6.40625 16.359375 -6.40625 C 18.066406 -6.40625 19.351562 -6.710938 20.21875 -7.328125 C 21.082031 -7.941406 21.515625 -8.816406 21.515625 -9.953125 C 21.515625 -10.835938 21.203125 -11.578125 20.578125 -12.171875 C 19.953125 -12.773438 18.945312 -13.242188 17.5625 -13.578125 L 12.953125 -14.6875 C 9.492188 -15.507812 6.96875 -16.765625 5.375 -18.453125 C 3.789062 -20.148438 3 -22.304688 3 -24.921875 C 3 -27.085938 3.550781 -28.96875 4.65625 -30.5625 C 5.757812 -32.164062 7.316406 -33.390625 9.328125 -34.234375 C 11.335938 -35.078125 13.679688 -35.5 16.359375 -35.5 C 19.492188 -35.5 22.09375 -35.046875 24.15625 -34.140625 C 26.226562 -33.234375 27.84375 -32.023438 29 -30.515625 L 24.328125 -25.453125 L 23.6875 -25.453125 C 22.71875 -26.546875 21.628906 -27.34375 20.421875 -27.84375 C 19.210938 -28.351562 17.859375 -28.609375 16.359375 -28.609375 C 12.910156 -28.609375 11.1875 -27.535156 11.1875 -25.390625 C 11.1875 -24.484375 11.503906 -23.742188 12.140625 -23.171875 C 12.785156 -22.609375 13.921875 -22.148438 15.546875 -21.796875 L 19.828125 -20.84375 C 23.367188 -20.082031 25.953125 -18.863281 27.578125 -17.1875 C 29.210938 -15.519531 30.03125 -13.273438 30.03125 -10.453125 C 30.03125 -8.242188 29.484375 -6.296875 28.390625 -4.609375 C 27.296875 -2.921875 25.71875 -1.617188 23.65625 -0.703125 C 21.59375 0.203125 19.140625 0.65625 16.296875 0.65625 Z M 16.296875 0.65625 "/></g></g></g><g fill="#ffffff" fill-opacity="1"><g transform="translate(204.497313, 165.917531)"><g><path d="M 24.03125 -8.3125 L 26.3125 -1.828125 C 25.363281 -1.046875 24.171875 -0.4375 22.734375 0 C 21.304688 0.4375 19.6875 0.65625 17.875 0.65625 C 14.101562 0.65625 11.238281 -0.367188 9.28125 -2.421875 C 7.320312 -4.472656 6.34375 -7.457031 6.34375 -11.375 L 6.34375 -27.921875 L 1.046875 -27.921875 L 1.046875 -34.875 L 6.34375 -34.875 L 6.34375 -41.65625 L 15.09375 -43.078125 L 15.09375 -34.875 L 24.984375 -34.875 L 24.984375 -27.921875 L 15.09375 -27.921875 L 15.09375 -12 C 15.09375 -10.269531 15.453125 -9.007812 16.171875 -8.21875 C 16.890625 -7.4375 17.929688 -7.046875 19.296875 -7.046875 C 20.859375 -7.046875 22.21875 -7.46875 23.375 -8.3125 Z M 24.03125 -8.3125 "/></g></g></g><g fill="#ffffff" fill-opacity="1"><g transform="translate(231.56625, 165.917531)"><g><path d="M 9.375 -39.015625 C 7.800781 -39.015625 6.519531 -39.488281 5.53125 -40.4375 C 4.539062 -41.394531 4.046875 -42.632812 4.046875 -44.15625 C 4.046875 -45.65625 4.539062 -46.882812 5.53125 -47.84375 C 6.519531 -48.800781 7.800781 -49.28125 9.375 -49.28125 C 10.425781 -49.28125 11.363281 -49.054688 12.1875 -48.609375 C 13.007812 -48.171875 13.644531 -47.566406 14.09375 -46.796875 C 14.550781 -46.023438 14.78125 -45.144531 14.78125 -44.15625 C 14.78125 -43.164062 14.550781 -42.28125 14.09375 -41.5 C 13.644531 -40.71875 13.007812 -40.109375 12.1875 -39.671875 C 11.363281 -39.234375 10.425781 -39.015625 9.375 -39.015625 Z M 5.015625 0 L 5.015625 -34.84375 L 13.765625 -34.84375 L 13.765625 0 Z M 5.015625 0 "/></g></g></g><g fill="#ffffff" fill-opacity="1"><g transform="translate(250.328151, 165.917531)"><g><path d="M 5.015625 0 L 5.015625 -34.84375 L 13.421875 -34.84375 L 13.421875 -29.71875 L 14.09375 -29.5625 C 16.257812 -33.519531 19.773438 -35.5 24.640625 -35.5 C 28.660156 -35.5 31.613281 -34.40625 33.5 -32.21875 C 35.382812 -30.03125 36.328125 -26.835938 36.328125 -22.640625 L 36.328125 0 L 27.578125 0 L 27.578125 -21.578125 C 27.578125 -23.890625 27.113281 -25.554688 26.1875 -26.578125 C 25.257812 -27.597656 23.773438 -28.109375 21.734375 -28.109375 C 19.222656 -28.109375 17.265625 -27.296875 15.859375 -25.671875 C 14.460938 -24.054688 13.765625 -21.507812 13.765625 -18.03125 L 13.765625 0 Z M 5.015625 0 "/></g></g></g><g fill="#ffffff" fill-opacity="1"><g transform="translate(291.136864, 165.917531)"><g><path d="M 34.421875 -15.453125 L 12.03125 -15.453125 C 12.28125 -12.410156 13.140625 -10.203125 14.609375 -8.828125 C 16.085938 -7.453125 18.101562 -6.765625 20.65625 -6.765625 C 22.65625 -6.765625 24.273438 -7.132812 25.515625 -7.875 C 26.765625 -8.625 27.765625 -9.757812 28.515625 -11.28125 L 29.1875 -11.28125 L 35 -7.546875 C 33.863281 -5.109375 32.144531 -3.128906 29.84375 -1.609375 C 27.550781 -0.0976562 24.488281 0.65625 20.65625 0.65625 C 17.050781 0.65625 13.9375 -0.0234375 11.3125 -1.390625 C 8.695312 -2.753906 6.675781 -4.789062 5.25 -7.5 C 3.832031 -10.207031 3.125 -13.507812 3.125 -17.40625 C 3.125 -21.363281 3.867188 -24.695312 5.359375 -27.40625 C 6.859375 -30.125 8.878906 -32.148438 11.421875 -33.484375 C 13.972656 -34.828125 16.84375 -35.5 20.03125 -35.5 C 24.957031 -35.5 28.726562 -34.191406 31.34375 -31.578125 C 33.96875 -28.972656 35.28125 -25.144531 35.28125 -20.09375 C 35.28125 -18.257812 35.21875 -16.835938 35.09375 -15.828125 Z M 26.90625 -21.09375 C 26.820312 -23.75 26.207031 -25.679688 25.0625 -26.890625 C 23.914062 -28.109375 22.238281 -28.71875 20.03125 -28.71875 C 15.601562 -28.71875 13 -26.175781 12.21875 -21.09375 Z M 26.90625 -21.09375 "/></g></g></g><g fill="#ffffff" fill-opacity="1"><g transform="translate(88.446356, 255.917525)"><g><path d="M 35.78125 0 L 1.890625 0 L 1.890625 -8.046875 L 25.046875 -37.875 L 24.828125 -38.53125 L 2.8125 -38.53125 L 2.8125 -46.171875 L 35.5625 -46.171875 L 35.5625 -38.125 L 12.40625 -8.3125 L 12.640625 -7.640625 L 35.78125 -7.640625 Z M 35.78125 0 "/></g></g></g><g fill="#ffffff" fill-opacity="1"><g transform="translate(126.159672, 255.917525)"><g><path d="M 5.015625 0 L 5.015625 -48.828125 L 13.765625 -48.828125 L 13.765625 -30.296875 L 14.4375 -30.171875 C 15.59375 -31.867188 17.007812 -33.179688 18.6875 -34.109375 C 20.375 -35.035156 22.410156 -35.5 24.796875 -35.5 C 32.484375 -35.5 36.328125 -31.140625 36.328125 -22.421875 L 36.328125 0 L 27.578125 0 L 27.578125 -21.328125 C 27.578125 -23.703125 27.101562 -25.425781 26.15625 -26.5 C 25.207031 -27.570312 23.734375 -28.109375 21.734375 -28.109375 C 19.285156 -28.109375 17.34375 -27.289062 15.90625 -25.65625 C 14.476562 -24.03125 13.765625 -21.488281 13.765625 -18.03125 L 13.765625 0 Z M 5.015625 0 "/></g></g></g><g fill="#ffffff" fill-opacity="1"><g transform="translate(166.968385, 255.917525)"><g><path d="M 13.578125 0.65625 C 11.347656 0.65625 9.410156 0.25 7.765625 -0.5625 C 6.128906 -1.382812 4.867188 -2.585938 3.984375 -4.171875 C 3.097656 -5.765625 2.65625 -7.679688 2.65625 -9.921875 C 2.65625 -11.984375 3.097656 -13.710938 3.984375 -15.109375 C 4.867188 -16.515625 6.234375 -17.664062 8.078125 -18.5625 C 9.929688 -19.457031 12.351562 -20.144531 15.34375 -20.625 C 17.4375 -20.957031 19.023438 -21.320312 20.109375 -21.71875 C 21.191406 -22.125 21.921875 -22.578125 22.296875 -23.078125 C 22.679688 -23.585938 22.875 -24.234375 22.875 -25.015625 C 22.875 -26.128906 22.484375 -26.976562 21.703125 -27.5625 C 20.921875 -28.15625 19.625 -28.453125 17.8125 -28.453125 C 15.875 -28.453125 14.03125 -28.019531 12.28125 -27.15625 C 10.539062 -26.300781 9.023438 -25.164062 7.734375 -23.75 L 7.109375 -23.75 L 3.4375 -29.28125 C 5.207031 -31.238281 7.363281 -32.765625 9.90625 -33.859375 C 12.457031 -34.953125 15.238281 -35.5 18.25 -35.5 C 22.863281 -35.5 26.203125 -34.519531 28.265625 -32.5625 C 30.328125 -30.601562 31.359375 -27.820312 31.359375 -24.21875 L 31.359375 -9.09375 C 31.359375 -7.539062 32.046875 -6.765625 33.421875 -6.765625 C 33.941406 -6.765625 34.457031 -6.859375 34.96875 -7.046875 L 35.40625 -6.921875 L 36.046875 -0.828125 C 35.554688 -0.503906 34.878906 -0.242188 34.015625 -0.046875 C 33.148438 0.148438 32.203125 0.25 31.171875 0.25 C 29.085938 0.25 27.460938 -0.144531 26.296875 -0.9375 C 25.128906 -1.738281 24.289062 -2.992188 23.78125 -4.703125 L 23.125 -4.765625 C 21.414062 -1.148438 18.234375 0.65625 13.578125 0.65625 Z M 16.359375 -5.875 C 18.378906 -5.875 19.992188 -6.550781 21.203125 -7.90625 C 22.421875 -9.269531 23.03125 -11.160156 23.03125 -13.578125 L 23.03125 -17.125 L 22.421875 -17.25 C 21.898438 -16.820312 21.210938 -16.46875 20.359375 -16.1875 C 19.503906 -15.90625 18.273438 -15.625 16.671875 -15.34375 C 14.773438 -15.03125 13.410156 -14.488281 12.578125 -13.71875 C 11.753906 -12.957031 11.34375 -11.867188 11.34375 -10.453125 C 11.34375 -8.960938 11.785156 -7.828125 12.671875 -7.046875 C 13.554688 -6.265625 14.785156 -5.875 16.359375 -5.875 Z M 16.359375 -5.875 "/></g></g></g><g fill="#ffffff" fill-opacity="1"><g transform="translate(203.702544, 255.917525)"><g><path d="M 5.015625 0 L 5.015625 -34.84375 L 13.421875 -34.84375 L 13.421875 -29.71875 L 14.09375 -29.5625 C 16.257812 -33.519531 19.773438 -35.5 24.640625 -35.5 C 28.660156 -35.5 31.613281 -34.40625 33.5 -32.21875 C 35.382812 -30.03125 36.328125 -26.835938 36.328125 -22.640625 L 36.328125 0 L 27.578125 0 L 27.578125 -21.578125 C 27.578125 -23.890625 27.113281 -25.554688 26.1875 -26.578125 C 25.257812 -27.597656 23.773438 -28.109375 21.734375 -28.109375 C 19.222656 -28.109375 17.265625 -27.296875 15.859375 -25.671875 C 14.460938 -24.054688 13.765625 -21.507812 13.765625 -18.03125 L 13.765625 0 Z M 5.015625 0 "/></g></g></g><g fill="#ffffff" fill-opacity="1"><g transform="translate(244.511257, 255.917525)"><g><path d="M 18.0625 14.78125 C 12.3125 14.78125 8.066406 13.9375 5.328125 12.25 C 2.597656 10.570312 1.234375 8.226562 1.234375 5.21875 C 1.234375 3.382812 1.816406 1.878906 2.984375 0.703125 C 4.148438 -0.460938 5.828125 -1.242188 8.015625 -1.640625 L 8.015625 -2.3125 C 6.835938 -3.019531 5.988281 -3.8125 5.46875 -4.6875 C 4.957031 -5.5625 4.703125 -6.578125 4.703125 -7.734375 C 4.703125 -10.535156 6.523438 -12.421875 10.171875 -13.390625 L 10.171875 -14.0625 C 8.296875 -15.132812 6.882812 -16.460938 5.9375 -18.046875 C 4.988281 -19.640625 4.515625 -21.5625 4.515625 -23.8125 C 4.515625 -26.132812 5.046875 -28.171875 6.109375 -29.921875 C 7.171875 -31.679688 8.726562 -33.050781 10.78125 -34.03125 C 12.832031 -35.007812 15.289062 -35.5 18.15625 -35.5 C 21.0625 -35.5 23.378906 -34.992188 25.109375 -33.984375 C 26.179688 -35.546875 26.800781 -37.347656 26.96875 -39.390625 L 27.640625 -39.796875 L 33.921875 -38.25 C 33.734375 -36.582031 33.25 -35.1875 32.46875 -34.0625 C 31.6875 -32.9375 30.476562 -31.929688 28.84375 -31.046875 L 28.84375 -30.359375 C 30.800781 -28.628906 31.78125 -26.21875 31.78125 -23.125 C 31.78125 -20.976562 31.238281 -19.050781 30.15625 -17.34375 C 29.082031 -15.632812 27.519531 -14.285156 25.46875 -13.296875 C 23.414062 -12.304688 20.976562 -11.8125 18.15625 -11.8125 L 16.828125 -11.84375 C 15.992188 -11.882812 15.40625 -11.90625 15.0625 -11.90625 C 14.257812 -11.90625 13.632812 -11.6875 13.1875 -11.25 C 12.738281 -10.820312 12.515625 -10.273438 12.515625 -9.609375 C 12.515625 -8.867188 12.804688 -8.289062 13.390625 -7.875 C 13.984375 -7.46875 14.847656 -7.242188 15.984375 -7.203125 L 23.78125 -6.921875 C 31.488281 -6.679688 35.34375 -3.363281 35.34375 3.03125 C 35.34375 5.28125 34.769531 7.285156 33.625 9.046875 C 32.476562 10.804688 30.617188 12.203125 28.046875 13.234375 C 25.472656 14.265625 22.144531 14.78125 18.0625 14.78125 Z M 18.15625 -17.9375 C 19.84375 -17.9375 21.160156 -18.429688 22.109375 -19.421875 C 23.054688 -20.410156 23.53125 -21.820312 23.53125 -23.65625 C 23.53125 -25.488281 23.054688 -26.894531 22.109375 -27.875 C 21.160156 -28.851562 19.84375 -29.34375 18.15625 -29.34375 C 16.457031 -29.34375 15.144531 -28.851562 14.21875 -27.875 C 13.289062 -26.894531 12.828125 -25.488281 12.828125 -23.65625 C 12.828125 -21.800781 13.289062 -20.382812 14.21875 -19.40625 C 15.144531 -18.425781 16.457031 -17.9375 18.15625 -17.9375 Z M 18.0625 8.4375 C 21.050781 8.4375 23.222656 8.015625 24.578125 7.171875 C 25.941406 6.328125 26.625 5.234375 26.625 3.890625 C 26.625 2.796875 26.273438 1.988281 25.578125 1.46875 C 24.890625 0.945312 23.785156 0.664062 22.265625 0.625 L 15.375 0.3125 C 15.144531 0.3125 14.929688 0.300781 14.734375 0.28125 C 14.535156 0.257812 14.34375 0.25 14.15625 0.25 C 12.675781 0.25 11.550781 0.5625 10.78125 1.1875 C 10.019531 1.820312 9.640625 2.703125 9.640625 3.828125 C 9.640625 5.296875 10.34375 6.429688 11.75 7.234375 C 13.15625 8.035156 15.257812 8.4375 18.0625 8.4375 Z M 18.0625 8.4375 "/></g></g></g></svg>