<svg xmlns="http://www.w3.org/2000/svg" width="480" height="480" version="1.0" viewBox="0 0 360 360"><defs><clipPath id="a"><path d="M205 128h13.25v9H205Zm0 0"/></clipPath><clipPath id="b"><path d="M107 97.078h40V141h-40Zm0 0"/></clipPath><clipPath id="c"><path d="M107 219h40v43.828h-40Zm0 0"/></clipPath></defs><path fill="#fff" d="M-36-36h432v432H-36z"/><path fill="#fff" d="M-36-36h432v432H-36z"/><path fill="#d9d9d9" d="M-.113-.195h358.86v365.308H-.114Zm0 0"/><path fill="none" stroke="#000" stroke-width="3" d="M246.61 360V0"/><g clip-path="url(#a)"><path d="M218.016 128.977a.88.88 0 0 0-.782-.48.85.85 0 0 0-.425.112l-10.512 6.168a.94.94 0 0 0-.352 1.254c.16.305.465.48.778.48.144 0 .289-.038.425-.113l10.516-6.168a.945.945 0 0 0 .352-1.253"/></g><g clip-path="url(#b)"><path d="m144.723 128.379-17.047 9.309v-18.532l10.629-5.804 6.418-3.504Zm-17.953-10.79-16.973-9.265 16.973-9.265 16.972 9.265Zm19.73-9.5q-.032-.105-.082-.198-.007-.011-.008-.016a.8.8 0 0 0-.144-.184 1 1 0 0 0-.164-.132q-.011-.007-.016-.008-.001-.005-.008-.004l-.02-.012-18.855-10.297a.9.9 0 0 0-.867 0l-18.856 10.297c-.007.004-.011.008-.02.012q-.003-.001-.007.004-.006.001-.012.008a1 1 0 0 0-.168.132l-.011.012a1 1 0 0 0-.13.172q-.006.005-.007.016a1 1 0 0 0-.082.199q-.005.007-.004.008a1 1 0 0 0-.027.226v17.43l1.804-1.035v-14.871l4.586 2.504 12.465 6.804v18.531l-14.09-7.69-1.84 1.05L126.337 140l.027.012q.052.022.106.039.035.018.07.031a1 1 0 0 0 .23.027 1 1 0 0 0 .231-.027q.035-.013.07-.031.052-.017.106-.04.016-.005.027-.011l18.856-10.293a.9.9 0 0 0 .472-.793v-20.59a1 1 0 0 0-.031-.226z"/></g><path d="m70.203 129.527 16.973 9.266-15.367 8.39-1.606.876-1.285-.704-15.688-8.562Zm17.95 29.32-17.048 9.31V149.62l15.641-8.535 1.406-.774ZM52.25 140.313l17.047 9.31v18.534l-14.106-7.703-1.836 1.055 16.415 8.96q.01.007.027.012c.031.012.07.028.105.04.024.007.047.023.07.027a1 1 0 0 0 .231.031 1 1 0 0 0 .227-.031c.027-.004.05-.02.074-.027q.052-.02.105-.04l.028-.011 18.855-10.297a.9.9 0 0 0 .469-.79v-20.589a1 1 0 0 0-.027-.227q-.005-.004-.004-.007a1 1 0 0 0-.082-.204c-.004-.003-.004-.007-.008-.011a.8.8 0 0 0-.13-.172l-.01-.016a1 1 0 0 0-.169-.129l-.011-.011q-.007.001-.008-.004-.013-.006-.02-.012l-18.855-10.293a.9.9 0 0 0-.867 0L50.914 138q-.013.006-.02.012-.006.005-.007.004c-.008.004-.008.007-.016.011a1 1 0 0 0-.164.13c-.008.003-.012.011-.016.015a.8.8 0 0 0-.129.172q0 .006-.007.011a1 1 0 0 0-.082.204v.007a1 1 0 0 0-.032.227v17.414l1.809-1.035zM70.203 209.824 53.23 200.56l16.973-9.266 16.973 9.266Zm-.906 20.098-17.047-9.309v-18.531l5.414 2.957 11.633 6.352Zm1.808 0V211.39l10.93-5.97 6.117-3.339v14.102l1.809 1.035v-16.66a.9.9 0 0 0-.027-.223q-.005-.006-.004-.012a1 1 0 0 0-.082-.199c-.004-.008-.004-.012-.008-.016a.8.8 0 0 0-.13-.168l-.01-.015a1 1 0 0 0-.169-.133c-.004 0-.008-.008-.011-.008q-.007-.005-.008-.004l-.02-.011-18.855-10.297a.92.92 0 0 0-.867 0L50.914 199.77q-.013.005-.02.011-.006-.001-.007.004c-.008 0-.008.008-.016.008a1 1 0 0 0-.164.133c-.008.004-.012.012-.016.015a.8.8 0 0 0-.129.168q0 .005-.007.016a1 1 0 0 0-.082.2v.01a.9.9 0 0 0-.032.224v20.59a.9.9 0 0 0 .473.792l18.856 10.293q.01.006.027.012c.031.016.066.027.101.043.028.008.051.02.075.027a1 1 0 0 0 .23.032 1 1 0 0 0 .227-.032c.027-.007.05-.02.074-.027.035-.016.07-.027.105-.043q.011-.006.028-.012l17.086-9.328-1.836-1.054zM144.723 189.316l-17.047 9.305V180.09l11.152-6.09 5.895-3.219Zm1.777-20.293a1.3 1.3 0 0 0-.082-.199q-.007-.005-.008-.015a1 1 0 0 0-.129-.168c-.004-.004-.008-.012-.015-.016a1 1 0 0 0-.164-.133q-.011-.001-.016-.008-.001.001-.008-.004c-.008-.003-.012-.007-.02-.011l-15.984-8.727-.012 2.051 13.68 7.469-16.972 9.265-16.973-9.265 14.21-7.758.013-2.063-16.54 9.028c-.007.004-.011.008-.02.011q-.003.005-.007.004-.006.007-.012.008a1 1 0 0 0-.168.133c-.003.004-.007.012-.011.016a1 1 0 0 0-.13.168q-.006.01-.007.015a1 1 0 0 0-.082.2q-.005.005-.004.011a1 1 0 0 0-.027.227v17.363l1.804-1.04v-14.804l4.856 2.653 12.195 6.656v18.531l-14.152-7.723-1.836 1.051 16.457 8.988c.008.004.02.004.027.008q.052.022.106.043.035.014.07.028.115.03.23.03a1 1 0 0 0 .231-.03c.023-.008.047-.02.07-.028q.052-.02.106-.043.016-.004.027-.007l18.856-10.297a.9.9 0 0 0 .472-.793v-20.586a1 1 0 0 0-.031-.227z"/><g clip-path="url(#c)"><path d="m144.723 251.082-17.047 9.309v-18.536l10.797-5.894 6.25-3.41Zm-17.953-10.789-16.973-9.266 16.973-9.265 16.972 9.265Zm-.903 20.098-17.05-9.309v-18.531l4.37 2.387 12.68 6.917Zm20.633-29.598q-.032-.105-.082-.203-.007-.006-.008-.012a1 1 0 0 0-.129-.172q-.005-.006-.015-.011a1 1 0 0 0-.164-.133q-.011-.006-.016-.012h-.008l-.02-.012-18.855-10.297a.9.9 0 0 0-.867 0l-18.856 10.297c-.007.004-.011.008-.02.012h-.007l-.012.012a1 1 0 0 0-.168.133l-.011.011a.9.9 0 0 0-.219.387c-.004.004-.004.004-.004.008a1 1 0 0 0-.027.226v20.59c0 .328.18.633.468.793l18.856 10.293.027.012q.052.022.106.039.035.02.07.027.115.03.23.031a1 1 0 0 0 .231-.03q.035-.009.07-.028.052-.017.106-.04.016-.005.027-.01l18.856-10.294a.9.9 0 0 0 .472-.793v-20.59a1 1 0 0 0-.031-.226z"/></g><path d="m201.293 158.848-17.05 9.308v-18.535l10.796-5.894 6.254-3.415Zm-17.953-10.79-1.758-.956-15.215-8.309 16.973-9.266 16.972 9.266-11.585 6.324Zm-.906 20.098-17.047-9.308v-18.536l5.281 2.887 11.766 6.422Zm20.632-29.597a1 1 0 0 0-.082-.204q-.004-.005-.007-.011a.8.8 0 0 0-.13-.172c-.003-.004-.007-.012-.011-.016a1 1 0 0 0-.168-.129l-.012-.011q-.007.001-.008-.004c-.007-.004-.011-.008-.02-.012l-18.855-10.293a.9.9 0 0 0-.867 0L164.046 138q-.006.006-.015.012-.006.005-.011.004c-.004.004-.004.007-.012.011a1 1 0 0 0-.164.13c-.008.003-.012.011-.016.015a.8.8 0 0 0-.129.172q-.001.006-.008.011a1 1 0 0 0-.082.204v.007a1 1 0 0 0-.03.227v20.59c0 .328.179.633.468.789l18.86 10.297.027.011q.054.02.101.04c.028.007.05.023.074.027a1 1 0 0 0 .23.031 1 1 0 0 0 .227-.031c.028-.004.051-.02.075-.027q.053-.02.105-.04l.027-.011 18.856-10.297a.9.9 0 0 0 .469-.79v-20.589a1 1 0 0 0-.028-.227q-.005-.004-.004-.007M201.293 220.613l-17.05 9.309V211.39l8.581-4.688 8.469-4.621Zm1.773-20.289a1 1 0 0 0-.082-.199q-.004-.011-.007-.016a.8.8 0 0 0-.13-.168l-.011-.015a1 1 0 0 0-.168-.133c-.004 0-.008-.008-.012-.008q-.007-.005-.008-.004c-.007-.004-.011-.008-.02-.011l-16.276-8.887-.012 2.05 13.972 7.626-16.972 9.265-16.973-9.265 13.918-7.598.008-2.063-16.246 8.872c-.004.003-.012.007-.016.011q-.006-.001-.011.004c-.004 0-.004.008-.012.008a1 1 0 0 0-.164.133c-.008.004-.012.012-.016.015a.8.8 0 0 0-.129.168q-.001.005-.008.016a1 1 0 0 0-.082.2v.01a.9.9 0 0 0-.03.224v16.66l1.808-1.035v-14.102l8.133 4.441 8.914 4.868v18.53l-14.778-8.07-1.84 1.055 17.09 9.328q.011.006.028.012c.03.016.066.027.101.043.028.008.05.02.074.027a1 1 0 0 0 .23.032 1 1 0 0 0 .227-.032c.028-.007.051-.02.075-.027.035-.016.07-.027.105-.043l.027-.012 18.856-10.293c.289-.16.469-.46.469-.793v-20.59a.9.9 0 0 0-.028-.222q-.002-.006-.004-.012"/><path d="M183.23 201.977h.036c.574-.02 1.043-.489 1.043-1.051l.05-9.074.008-2.051.082-15.258a.986.986 0 0 0-1.004-.98h-.035c-.574.019-1.043.488-1.043 1.05l-.082 15.2-.008 2.062-.05 9.117c0 .176.046.344.125.485.171.3.5.5.878.5M126.945 172.27h.035a1.074 1.074 0 0 0 1.047-1.051l.055-10.508.012-2.05.07-13.821c.004-.55-.445-.985-1.004-.985h-.035c-.574.02-1.043.493-1.043 1.051l-.07 13.446-.012 2.062-.059 10.875a.994.994 0 0 0 1.004.98M92.82 138.418c.164 0 .328-.04.48-.129l14.595-8.36 1.835-1.05 6.497-3.723c.492-.277.668-.914.402-1.422a1 1 0 0 0-.887-.546.96.96 0 0 0-.484.128l-6.442 3.692-1.804 1.035-14.676 8.406c-.492.278-.672.914-.402 1.426.183.348.53.543.886.543M53.148 159.34l7.414-4.25c.489-.278.668-.914.403-1.426a1 1 0 0 0-.887-.543.96.96 0 0 0-.484.129l-7.344 4.207-1.809 1.035-13.77 7.89c-.491.278-.671.915-.401 1.427a1 1 0 0 0 .886.543c.164 0 .328-.04.48-.13l13.676-7.831zM92.785 198.254c.184.348.528.547.887.547a1 1 0 0 0 .484-.13l13.68-7.835 1.836-1.055 7.406-4.242c.488-.281.668-.918.402-1.426a1.01 1.01 0 0 0-.886-.547 1 1 0 0 0-.48.13l-7.298 4.179-1.804 1.035-13.824 7.918a1.073 1.073 0 0 0-.403 1.426M103.758 227.406l-13.797-7.902-1.809-1.035-7.32-4.196a1 1 0 0 0-.484-.128c-.356 0-.703.199-.887.546a1.077 1.077 0 0 0 .402 1.426l8.067 4.621 1.789 1.024 13.07 7.488a1 1 0 0 0 .48.129c.36 0 .704-.2.887-.547.27-.508.09-1.148-.398-1.426M174.078 214.691a1 1 0 0 0-.887-.546 1 1 0 0 0-.48.128l-7.324 4.196-1.809 1.035-13.793 7.902c-.488.278-.668.918-.402 1.426.183.348.531.547.887.547a1 1 0 0 0 .484-.129l13.066-7.488 1.79-1.024 8.07-4.62c.488-.282.664-.919.398-1.427"/></svg>