<svg xmlns="http://www.w3.org/2000/svg" width="480" height="480" version="1.0" viewBox="0 0 360 360"><defs><clipPath id="a"><path d="M36 22.414h111v320.25H36Zm0 0"/></clipPath></defs><path fill="#fff" d="M-36-36h432v432H-36z"/><path fill="#fff" d="M-36-36h432v432H-36z"/><path fill="#d9d9d9" d="M-.113-.195h358.86v365.308H-.114Zm0 0"/><path fill="none" stroke="#000" stroke-width="3" d="M246.61 360V0"/><path fill="#1f3a68" d="M138.434 45.21H47.059v-8.683h91.375zM138.434 68.89H47.059v-8.683h91.375zM135.297 305.66h-91.39v-8.683h91.39zM135.297 329.34h-91.39v-8.68h91.39zM130.89 145.145c-1.406-2.043-2.882-4.172-4.148-6.415H52.164c-1.336 3.032-3.023 5.864-4.797 8.684h84.988a55 55 0 0 0-1.464-2.27M134.309 172.77H42.922v-8.68h91.387zM137.25 198.129H45.875v-8.684h91.375zM134.367 214.805H51.391c2.109 2.93 4.39 5.75 6.457 8.668h71.398a505 505 0 0 0 5.121-8.668"/><g clip-path="url(#a)"><path fill="#1f3a68" d="M138.797 342.352a8.264 8.264 0 0 1-8.27-8.274c0-33.914-21.441-51.098-44.12-69.308-23.594-18.915-50.337-40.368-50.337-82.23 0-41.864 26.743-63.317 50.336-82.231 22.68-18.211 44.121-35.41 44.121-69.309 0-4.566 3.7-8.281 8.27-8.281 4.574 0 8.273 3.715 8.273 8.281 0 41.863-26.742 63.316-50.336 82.246-22.691 18.2-44.12 35.395-44.12 69.293s21.429 51.094 44.12 69.305c23.594 18.918 50.336 40.37 50.336 82.234 0 4.578-3.699 8.274-8.273 8.274"/><path fill="#4eb1cb" d="M44.344 342.352a8.265 8.265 0 0 1-8.274-8.274c0-41.863 26.743-63.316 50.336-82.234 22.68-18.211 44.121-35.406 44.121-69.305 0-33.898-21.441-51.094-44.12-69.293C62.812 94.316 36.07 72.863 36.07 31c0-4.566 3.7-8.281 8.274-8.281 4.57 0 8.27 3.715 8.27 8.281 0 33.898 21.429 51.098 44.12 69.309 23.594 18.914 50.336 40.367 50.336 82.23s-26.742 63.316-50.336 82.23c-22.691 18.211-44.12 35.395-44.12 69.31 0 4.577-3.7 8.273-8.27 8.273"/></g></svg>