<svg xmlns="http://www.w3.org/2000/svg" width="480" height="480" version="1.0" viewBox="0 0 360 360"><defs><clipPath id="a"><path d="M24.105 117.21H219v131.25H24.105Zm0 0"/></clipPath><clipPath id="b"><path d="M24.105 117.21H219v131.25H24.105Zm0 0"/></clipPath></defs><path fill="#fff" d="M-36-36h432v432H-36z"/><path fill="#fff" d="M-36-36h432v432H-36z"/><path fill="#a6a6a6" d="M-.113-.195h358.86v365.308H-.114Zm0 0"/><path fill="none" stroke="#000" stroke-width="3" d="M246.61 360V0"/><g clip-path="url(#a)"><path fill="#fff" d="M166.023 244.637h-33.582a.88.88 0 0 0 .446-.325.92.92 0 0 0 .117-.824l-2.559-7.418h10.567c.625 0 1.191-.39 1.41-.972l10.976-28.914a1.52 1.52 0 0 0-.168-1.399 1.5 1.5 0 0 0-1.242-.652h-47.812a1.38 1.38 0 0 0-1.281.883l-10.317 27.187c-.05 0-.101-.008-.152-.004l-6.844-5.219c-.355-1.492-3.844-15.875-7.797-20.585-3.781-4.504-8.336-5.407-9.207-5.543l-2.453-3.754v-.762a6.65 6.65 0 0 0 2.617-1.899 5.5 5.5 0 0 0 .996-1.761 4.763 4.763 0 0 0 .32-8.562c.047-.255.102-.516.157-.786.2-.969.422-2.066.566-3.2.09-.683.266-3.026-1.117-4.464a5 5 0 0 0-.508-.46c-.933-1.97-2.37-3.333-6.273-3.575-1.653-.102-3.606-.004-5.32.668-.563-.004-4.055.11-5.594 3.25-1.41 2.883-.703 7.117-.48 8.242a4.77 4.77 0 0 0-3.29 4.527 4.765 4.765 0 0 0 4.758 4.766c.711 0 1.387-.164 1.996-.445v3.078l-3.113 3.765c-.883.297-7.824 2.747-10.903 7.317-3.222 4.789-5.894 19.398-6.12 26.91-.11 3.625.777 6.434 2.628 8.348 1.27 1.312 2.973 2.168 5.07 2.582h-16.55a1.86 1.86 0 0 0-1.86 1.863c0 1.027.832 1.86 1.86 1.86h140.058a1.862 1.862 0 0 0 0-3.723m-89.324-2.27-.008-.152a.3.3 0 0 0 .047-.16l-.32-6.203c.39.64.977 1.445 1.809 2.246 1.59 1.53 4.41 3.297 8.855 3.191.133.285.277.52.426.66.222.211.488.348.77.418Zm12.352 0c.035-.012.07-.015.105-.027.278-.098.5-.281.656-.516.204.262.458.45.739.543Zm30.55-.015c-.003.007-.011.007-.015.015H91.305c.293-.097.562-.308.765-.629q.09-.135.16-.293c.254.317.586.524.954.57.05.008.101.008.148.008.441 0 .848-.246 1.137-.691.48-.746.636-2.02.484-4.004a6 6 0 0 0-.039-.398c.18.254.371.59.547 1.027.117.281.2.566.277.844.153.543.297 1.054.668 1.492.25.297.82.55 1.383.434.457-.094.785-.418.934-.915.27-.914.297-2.316-.301-3.742h19.117l2.094 6.067a.23.23 0 0 1-.031.215m19.208-63.5-3.633 1.84-.602-.024-.707-.031a5.56 5.56 0 0 0-2.375.418l-7.894-22.711a1.57 1.57 0 0 0-1.489-1.059H80.273a1.185 1.185 0 0 0-1.121 1.582l11.133 32.031a1.82 1.82 0 0 0 1.707 1.22h72.836c.047 0 .09-.013.133-.016 1.457.007 2.918.011 4.348.011 4.582 0 8.78-.047 11.054-.195q.129-.006.258-.023l.172-.016a.29.29 0 0 0 .207-.11.3.3 0 0 0 .063-.226l-.266-1.945c5.648-.465 9.07-1.805 9.883-5.536.105-.484.18-.992.238-1.507 7.195-6.602 11.719-16.082 11.719-26.606 0-18.031-13.266-33.012-30.532-35.668q-.01-.018-.027-.043c-1.082-1.468-2.879-2.324-5.348-2.539-4.62-.406-10.546 1.614-12.12 3.121a4.1 4.1 0 0 0-.997 1.489c-13.449 5.234-23.011 18.336-23.011 33.64a35.96 35.96 0 0 0 8.207 22.903m2.43 9.406c.167.008.331 0 .488-.043.02-.004.035-.016.054-.02 1.66-.218 3.149-.625 4.387-1.148.363.324.887.394 1.266.277.21-.066.449-.219.707-.418q.55.33 1.113.64.029.125.062.231l-.054 1.239h-11.067c.125-.172.243-.399.352-.664.219.007.437.015.656.015.7 0 1.379-.043 2.035-.11m69.636-10.547 5.246-1.762a.3.3 0 0 0 .004-.566l-12.336-4.278a.29.29 0 0 0-.305.07.3.3 0 0 0-.074.31l4.274 12.355c.039.12.152.203.277.203h.004a.295.295 0 0 0 .277-.2l2.035-5.773c1.41.715 4.258 2.43 6.055 5.301 1.871 2.992 2.05 6.3.531 9.836-1.914 4.45-7.18 7.266-12.527 6.965-.668-2.55-1.68-4.715-3.004-6.457-.535-.7-1.383-1.676-2.562-2.082-1.051-.36-2.485-.172-3.184.89-.613.926-.387 2.082-.2 2.688.954 3.043 4.153 4.723 6.833 5.281a15 15 0 0 0 1.648.242q.187.76.332 1.567c.113.605.2 1.219.27 1.832h-24.29a2.11 2.11 0 0 0-2.105 2.11v19.394c0 .222.047.437.113.64l-.007.004a.3.3 0 0 0-.035.422c.058.07.144.106.226.106.02 0 .04-.008.059-.008.375.566 1.02.941 1.75.941h15.953c-2.2 1.528-5.48 3.285-8.086 4.492-7.695 3.567-26.227 4.442-37.75-2.297a.294.294 0 0 0-.406.106.295.295 0 0 0 .105.406c6.25 3.656 14.535 5.102 22.086 5.102 6.57 0 12.582-1.094 16.215-2.778 2.906-1.343 6.648-3.375 8.855-5.03h14.723a2.11 2.11 0 0 0 1.754-.942c.016 0 .035.008.055.008a.3.3 0 0 0 .226-.106.3.3 0 0 0-.035-.422l-.008-.004c.067-.203.113-.418.113-.64v-19.395a2.11 2.11 0 0 0-2.105-2.11h-6.805a30 30 0 0 0-.285-1.94 25 25 0 0 0-.297-1.419c5.535.247 10.934-2.71 12.922-7.328 3.184-7.406-1.398-13.007-6.535-15.734m-8.535 22.195c-2.512-.523-5.508-2.078-6.383-4.875-.156-.504-.352-1.457.125-2.176.367-.554 1.031-.792 1.676-.792.289 0 .57.046.82.132.781.27 1.508.868 2.281 1.883 1.243 1.633 2.2 3.656 2.852 6.04a14 14 0 0 1-1.371-.212M58.684 167.562c.05.102.152.168.265.168a.3.3 0 0 0 .27-.167l5.699-11.766a.29.29 0 0 0-.055-.34.3.3 0 0 0-.34-.059l-5.535 2.653c-1.582-3.649-1.808-8.953.602-11.43 1.695-1.738 4.672-2.293 7.41-1.379.71.235 1.383.551 2.016.918-.418 2.367.652 5.348 3.171 6.246.899.324 2.063.207 2.458-.644.437-.942-.45-1.91-.743-2.23-1.109-1.212-2.507-2.602-4.218-3.669.535-2.238 2.152-4.129 3.523-5.543a40 40 0 0 1 5.828-4.945v9.277c0 .227.047.442.113.645l-.007.004a.3.3 0 0 0 .191.527c.02 0 .04-.008.059-.012a2.1 2.1 0 0 0 1.75.946h31.695a2.1 2.1 0 0 0 1.75-.946c.02.004.039.012.055.012.086 0 .171-.039.23-.11a.297.297 0 0 0-.035-.417l-.008-.004c.067-.203.113-.418.113-.645v-14.957a41 41 0 0 1 2.942 1.012c3.387 1.309 10.465 5.414 12.797 8a.3.3 0 0 0 .422.02.3.3 0 0 0 .02-.422c-2.384-2.64-9.587-6.825-13.024-8.157a42 42 0 0 0-3.157-1.07v-3.82c0-1.16-.945-2.11-2.105-2.11H81.14c-1.16 0-2.106.95-2.106 2.11v9.398a40.5 40.5 0 0 0-6.254 5.246c-1.39 1.438-3.023 3.348-3.629 5.649a11.6 11.6 0 0 0-1.965-.875c-2.949-.985-6.171-.371-8.023 1.527-2.516 2.586-2.434 7.758-.918 11.625l-4.863-2.426a.297.297 0 0 0-.403.395Zm10.882-21.066c1.563 1.012 2.86 2.305 3.899 3.438.613.671.824 1.187.64 1.578-.234.504-1.074.566-1.718.336-2.14-.766-3.09-3.27-2.82-5.352m0 0"/></g><path fill="#d8d0c5" d="m69.824 244.492.024.145H54.832c0-.035.035-2.52 2.219-4.114.023.02.047.043.078.055.16.074.32.172.48.277.828.56 1.602 1.5 2.141 2.16.148.18.277.34.387.462.32.363.77.57 1.242.57h.043c.394-.008.746-.164.941-.41.008-.016.012-.028.02-.04.265.204.613.321.984.321q.065.001.125-.004c.414-.027.774-.2.985-.465v-.004c.261.192.566.305.87.305q.107-.001.208-.02c.437-.074.78-.378.941-.84.188-.527.184-1.386-.25-2.37a6 6 0 0 0-.383-.715c-.015-.028-.035-.051-.05-.078 1.496.488 2.417 1.265 2.992 2.074q.226.316.382.633c.372.718.52 1.41.61 1.906q.011.082.027.152m20.727-2.125H72.895v2.281h33.93a1.11 1.11 0 0 1-.716-.593 1.097 1.097 0 0 1 .07-1.094c.2-.305.544-.508.934-.508h12.297c.07 0 .133-.035.176-.086Zm62.68-37.582c.28.41.343.934.167 1.399l-10.976 28.914c-.219.582-.79.972-1.41.972h-10.567l-.207-.593-2.906-8.422a.3.3 0 0 0-.281-.2h-12.274a.3.3 0 0 0-.242.125.3.3 0 0 0-.039.27l2.836 8.227.207.593H92.891l.226-.593 11.672-30.75.227-.594h46.972c.496 0 .961.242 1.242.652m-21.852 11.156h-12.832a.297.297 0 0 0-.297.297c0 .168.133.301.297.301h12.832a.3.3 0 0 0 .3-.3.3.3 0 0 0-.3-.298m-2.137 6.72c0-.169-.133-.302-.297-.302h-12.832a.3.3 0 0 0-.3.301.3.3 0 0 0 .3.297h12.832a.297.297 0 0 0 .297-.297m.813-2.141a.297.297 0 0 0-.297-.297h-12.832a.298.298 0 1 0 0 .594h12.832a.297.297 0 0 0 .297-.297m.515-1.844a.297.297 0 1 0 0-.594h-12.836a.297.297 0 1 0 0 .594Zm18.832-32.848-.457.399c-.11.093-.21.183-.316.273a10 10 0 0 1-.488.406q.55.33 1.113.64-.066-.31-.043-.71c.016-.29.078-.613.187-.953Zm7.762-45.36c-1.707-2.034-1.41-4.48-1.172-6.445.09-.714.172-1.394.145-1.953-.035-.715-.227-1.64-.446-2.707-.097-.476-.199-.98-.296-1.508a2.2 2.2 0 0 1-.723-.445c-.844-.805-1.367-2.12-1.367-3.433q0-.488.093-.946.078-.376.215-.722c-13.449 5.234-23.011 18.336-23.011 33.64a35.96 35.96 0 0 0 8.207 22.903l.546-.278.375-3.074c.09-.664 2.2-16.34 6.293-21.215 3.825-4.555 12.575-8.25 14.008-8.836v-2.992a6.6 6.6 0 0 1-2.867-1.988m14.941-20.187c.145.203.27.434.383.676 1.18 2.512.653 6.813.344 8.676q-.013.04-.031.082c.191.05.39.125.59.246.46.277.78.77.925 1.418.036.152.055.309.07.469 1.087.175 2.266.543 3.009 1.312.953.992.925 1.88.902 2.656-.02.582-.035 1.082.351 1.594.41.543 1.04.7 1.707.863.805.204 1.641.41 2.004 1.352.407 1.04-.09 2.047-.53 2.938-.227.46-.442.894-.524 1.296-.16.801.054 1.41.265 2 .235.66.477 1.34.153 2.184-.332.86-1.168 1.148-1.961 1.363 2.14 1.352 4.129 2.922 5.242 4.57 2.598 3.86 4.766 13.856 5.68 21.516.023.16.488 3.156.304 6.172-.015.297-.039.598-.074.89 7.2-6.6 11.719-16.081 11.719-26.605 0-18.031-13.262-33.012-30.528-35.668m0 0"/><path fill="#f58e6d" d="m76.691 242.215.008.152h-.242a.3.3 0 0 0 .234-.152m8.891-15.235 6.844 5.22c-.043 0-.082-.005-.125-.005l-.813.035h-.004c-2.351.094-4.21.172-5.664 1.274-1.847 1.406-3.957 5.258-3.523 6.441q.002.004.004.008c.164.438.508.746.969.871.5.137 1.093.028 1.53-.25.06-.035.126-.066.177-.11.39-.32.726-.898 1.058-1.46q.105-.183.211-.356c.129.563.336 1.36.59 2.051q.118.318.242.59c-4.441.106-7.262-1.66-8.851-3.191a11.3 11.3 0 0 1-1.809-2.246l-.07-1.426-.957-18.707c-.008-.168-.164-.301-.313-.285a.297.297 0 0 0-.281.312l.957 18.777.387 7.563a.3.3 0 0 0 .289.281h-3.535v2.27h-3.047l-.024-.145a2 2 0 0 1-.027-.152c-.09-.492-.238-1.188-.61-1.906.356 0 .774-.07 1.028-.375.289-.352.27-.887-.055-1.59-1.183-2.563-6.383-4.63-9.902-4.63h-.008c-1.023 0-1.965.079-2.828.227a.3.3 0 0 0-.113-.046l-9.383-1.829 1.886-17.28a.295.295 0 0 0-.261-.329.296.296 0 0 0-.328.266l-1.918 17.55a.3.3 0 0 0 .238.329l8.52 1.656c-2.192.656-3.711 1.898-4.454 3.687-.785 1.887.188 3.485.836 4.27.098.117.188.219.266.297H42.516c-2.098-.414-3.801-1.27-5.07-2.582-1.852-1.914-2.739-4.723-2.63-8.348.227-7.512 2.899-22.121 6.121-26.91 3.079-4.57 10.02-7.02 10.903-7.317l3.113-3.765v.11a.297.297 0 1 0 .594 0v-.173l7.43 4.309 2.554-2.887v.113a.297.297 0 1 0 .594 0v-.09l2.453 3.755c.871.136 5.426 1.039 9.207 5.543 3.953 4.71 7.442 19.093 7.797 20.585m-17.035-25.527.105-.164a.293.293 0 0 0-.09-.41.294.294 0 0 0-.41.09l-.105.16-2.207 3.46-2.438-4.21-.109-.188a.3.3 0 0 0-.281-.148.3.3 0 0 0-.254.191l-.09.239-1.879 4.808-8.336-5.605-.273-.184a.29.29 0 0 0-.41.082.295.295 0 0 0 .078.41l.125.082 8.793 5.918c.05.032.109.051.168.051a.2.2 0 0 0 .09-.015.3.3 0 0 0 .187-.176l1.879-4.817 2.48 4.286c.051.09.149.144.25.148.098-.008.203-.05.258-.137Zm-4.848-6.066c1.086 0 1.969-.715 1.969-1.594 0-.156-.04-.305-.09-.45a1.45 1.45 0 0 0-.312-.503c-.36-.387-.926-.64-1.567-.64-.242 0-.472.042-.687.105a2.2 2.2 0 0 0-.547.257c-.434.286-.719.715-.73 1.2 0 .011-.005.02-.005.031 0 .203.051.394.137.574.285.594.996 1.02 1.832 1.02m91.985-7.004c-.32.367-.774.574-1.243.574q-.023-.002-.043-.004c-.394-.008-.746-.164-.941-.41-.008-.016-.012-.027-.02-.04a1.63 1.63 0 0 1-.988.325q-.058-.001-.12-.008c-.415-.027-.774-.195-.985-.465q.001-.004-.004-.003c-.258.191-.563.3-.867.3q-.106 0-.207-.015a1.1 1.1 0 0 1-.375-.14c-.004 0-.008-.005-.008-.005l-.024.524h7.34a4.7 4.7 0 0 1-1.34-.84 4 4 0 0 1-.175.207m24.937 3.515.172-.02a.29.29 0 0 0 .207-.108.3.3 0 0 0 .063-.227l-.266-1.945q-.294.02-.594.043a71 71 0 0 1-3.371.152c-.348.008-.766.012-1.234.012-1.625 0-3.91-.043-6.297-.09l-3.235-.059c.164.215.278.473.305.75a1.56 1.56 0 0 1-.324 1.106c-.024.031-.043.066-.067.093a1.53 1.53 0 0 1-1.02.497c1.458.007 2.923.015 4.349.015 4.586 0 8.785-.05 11.054-.195zm-1.844-12.656-17.707 2.738c-2.043-1.16-3.855-2.039-6.726-2.039h-.008c-1.406 0-2.824.457-4.102 1.164-.011.008-.023.012-.03.02l.241-5.574a.3.3 0 0 0-.02-.098c-.003-.012 0-.02-.003-.027a.3.3 0 0 0-.07-.102v-.004c-.024-.02-2.223-2.132-2.223-5.48 0-3.395 3.367-9.149 3.402-9.207a.29.29 0 0 0-.105-.406.3.3 0 0 0-.406.105c-.141.242-3.485 5.95-3.485 9.508 0 2.644 1.242 4.539 1.942 5.402.156.188.285.328.367.414l-.008.18h-9.809a.29.29 0 0 1-.222-.102.3.3 0 0 1-.075-.234c.09-.664 2.2-16.34 6.293-21.215 3.825-4.555 12.575-8.25 14.008-8.836q.147-.06.188-.074a.3.3 0 0 1 .379.148q.005.013.027.055c.152.266.941 1.492 3.012 1.7 3.09.316 6.047-1.68 6.722-2.169.09-.066.145-.109.149-.113a.3.3 0 0 1 .289-.043c.023.008.082.031.156.063.824.32 4.567 1.832 8.11 3.96q.347.213.695.43c2.144 1.352 4.133 2.922 5.246 4.57 2.598 3.86 4.762 13.856 5.68 21.516a.3.3 0 0 0-.34-.246.29.29 0 0 0-.246.293H178.87l-.012-.059-.047-.238-2.89-14.816a.3.3 0 0 0-.352-.235.297.297 0 0 0-.234.348l2.937 15.047.004.008v.004l.7 3.613Zm-5.836-32.734c.106-.125.157-.2.164-.207a.3.3 0 0 0-.09-.41.296.296 0 0 0-.41.086s-.066.097-.238.277c-.277.297-.844.824-1.879 1.527-1.328.903-4.066 2.36-7.441 1.965-2.586-.305-4.195-2.18-4.723-2.898-.125-.168-.187-.274-.191-.278a.298.298 0 0 0-.512.305c.012.02.066.105.152.23.497.711 2.235 2.883 5.207 3.23.415.052.817.071 1.211.071 3 0 5.395-1.293 6.633-2.133 1.258-.855 1.863-1.468 2.117-1.765m-69.394 33.699c.887.512 1.828.617 2.652.29 1.727-.688 2.418-3.056 1.535-5.282-.43-1.09-1.168-1.98-2.074-2.508-.547-.316-1.113-.477-1.66-.477q-.517 0-.992.188c-.824.328-1.442 1.047-1.738 2.031-.301 1.004-.23 2.16.203 3.25.43 1.09 1.168 1.98 2.074 2.508m29.27 11.512a.298.298 0 0 1-.282.398H91.992a1.81 1.81 0 0 1-1.707-1.219l-11.133-32.03a1.187 1.187 0 0 1 1.121-1.583h40.368c.125 0 .238.082.28.2l.138.398 11.691 33.637Zm-31.899-13.801c.48 1.215 1.309 2.21 2.332 2.805.637.37 1.305.558 1.957.558.414 0 .824-.078 1.211-.23 2.031-.809 2.871-3.524 1.871-6.055-.48-1.215-1.309-2.21-2.332-2.805-1.047-.605-2.172-.722-3.168-.324-1 .395-1.738 1.25-2.09 2.41-.34 1.133-.261 2.426.219 3.641m112.227 48.527-11.454-9.68-4.14 3.5a2.35 2.35 0 0 1-1.524.579 2.34 2.34 0 0 1-1.52-.578l-4.144-3.5-11.453 9.68-.344.292a.3.3 0 0 1-.136.059c.375.57 1.02.945 1.75.945h31.695c.73 0 1.375-.375 1.754-.945a.25.25 0 0 1-.137-.059Zm-1.27-22.312H180.18c-1.16 0-2.102.945-2.102 2.105v19.395c0 .226.043.441.11.644l.503-.425 11.211-9.477-11.23-9.492-.488-.414a.295.295 0 0 1-.036-.422.297.297 0 0 1 .418-.035l.118.101 16.207 13.7c.691.582 1.586.582 2.277 0l16.203-13.7.121-.101a.297.297 0 0 1 .418.035.3.3 0 0 1-.035.422l-.488.414-11.235 9.492 11.211 9.477.508.425c.063-.203.11-.418.11-.644v-19.395c0-1.16-.946-2.105-2.106-2.105m0 0"/><g clip-path="url(#b)"><path fill="#231f20" d="M52.953 193.082a4.8 4.8 0 0 0 2-.445v3.187a.297.297 0 1 0 .594 0v-3.515q.406-.27.754-.61c.543.77 2.164 2.54 5.566 2.668a1.3 1.3 0 0 1-.137-.574c0-.012.004-.02.004-.031-3.254-.176-4.668-1.965-5.03-2.524a4.74 4.74 0 0 0 1.007-2.922 4.7 4.7 0 0 0-.293-1.629l.64-4.574c.887-.199 4.215-1.129 5.794-4.136.843.03 4.503.351 6.12 3.472-.109.617-.226 1.211-.34 1.758-.222 1.094-.417 2.04-.456 2.8-.031.614.054 1.313.144 2.06.239 1.945.508 4.148-1.035 5.988-1.055 1.261-2.558 2.03-4.23 2.164-1.403.113-3.567-.18-5.899-2.2a.293.293 0 0 0-.418.032.293.293 0 0 0 .032.418c2.19 1.902 4.261 2.367 5.761 2.367a6.953 6.953 0 0 0 2-.293v.644a.297.297 0 1 0 .594 0v-.851a6.65 6.65 0 0 0 2.617-1.899 5.5 5.5 0 0 0 .996-1.761 4.763 4.763 0 0 0 .32-8.562c.047-.255.102-.516.157-.786.2-.969.422-2.066.566-3.2.09-.683.266-3.026-1.117-4.464a5 5 0 0 0-.508-.46c-.933-1.97-2.37-3.333-6.273-3.575-1.653-.102-3.606-.004-5.32.668-.563-.004-4.055.11-5.594 3.25-1.41 2.883-.703 7.117-.48 8.242a4.77 4.77 0 0 0-3.29 4.527c0 2.63 2.133 4.766 4.754 4.766m19.035-4.766c0 1.524-.82 2.852-2.039 3.579.274-1.344.11-2.711-.035-3.903-.09-.715-.172-1.394-.144-1.953.02-.379.082-.82.171-1.305a4.17 4.17 0 0 1 2.047 3.582m-17.156-13.039c.691-1.175 1.723-1.925 2.883-2.394.02-.004.031-.012.047-.02 1.625-.644 3.5-.734 5.082-.64 2.941.183 4.34.996 5.222 2.27-1.445-.778-3.32-1.196-5.343-1.15-2.446.055-4.516.786-5.535 1.95-2.11 2.414-2.258 7.133-2.247 8.703a4.6 4.6 0 0 0-1.687-.426c.023-1.203.195-5.941 1.578-8.293m-1.879 8.871a4.169 4.169 0 0 1 0 8.336 4.168 4.168 0 0 1 0-8.336m8.942 59.118c.312-.395.09-1.149-.665-2.246-.78-1.141-2.84-2.446-2.984-2.536l-.016-.007a.298.298 0 1 1 .313-.508c.02.011.105.066.238.152.606.399 2.219 1.512 2.942 2.563.46.675.988 1.582.882 2.347a.3.3 0 0 1 .083.051c.171.168.464.258.765.238.242-.015.45-.105.555-.242.23-.289.222-1.23-.762-2.508-.973-1.261-2.875-2.644-2.894-2.66a.28.28 0 0 1-.11-.168.3.3 0 0 1 .043-.246.3.3 0 0 1 .418-.066l.25.183c.563.43 1.945 1.532 2.766 2.59.824 1.074 1.078 2.008.984 2.652.215.215.5.333.754.29.223-.04.39-.196.48-.45.172-.5.13-1.468-.574-2.57-.957-1.496-2.722-2.473-2.738-2.48a.3.3 0 0 1-.148-.227.27.27 0 0 1 .03-.18.296.296 0 0 1 .403-.117c.074.043 1.856 1.027 2.903 2.606.015.027.035.05.05.078.157.246.278.484.383.715.434.984.438 1.843.25 2.37-.16.462-.504.766-.941.84a1 1 0 0 1-.207.02c-.305 0-.61-.113-.871-.305v.004c-.211.27-.57.438-.985.465-.039.004-.082.004-.12.004a1.6 1.6 0 0 1-.99-.32c-.007.011-.01.027-.019.039-.195.246-.547.402-.941.41-.016.004-.027.004-.043.004a1.66 1.66 0 0 1-1.242-.574c-.11-.122-.239-.282-.387-.461-.54-.66-1.312-1.602-2.14-2.16a3.5 3.5 0 0 0-.481-.278c-.031-.012-.055-.035-.078-.055a.3.3 0 0 1-.07-.34.3.3 0 0 1 .394-.148l.02.012c1.12.516 2.14 1.766 2.816 2.594.144.172.27.324.371.441.293.332.645.387.824.371.242-.008.418-.098.489-.187m.57-50.703a2.73 2.73 0 0 1-.524-1.68.31.31 0 0 1 .153-.246c.09-.047.199-.047.289 0 1.316.726 4.234.652 4.265.652.09.004.188.043.247.121a.3.3 0 0 1 .043.27c-.168.515-.618 1.273-1.36 1.664a1.5 1.5 0 0 0-.316-.504c.465-.227.765-.64.937-.953-.804-.008-2.46-.082-3.625-.512.055.273.176.625.438.934a2 2 0 0 0-.547.254m5.422-8.422c.164.007.289.144.281.308l-.055 1.23a.3.3 0 0 1-.297.282h-.015a.297.297 0 0 1-.281-.313l.054-1.226c.008-.164.133-.309.313-.281m-4.95-.309a.3.3 0 0 1 .286.313l-.059 1.226a.3.3 0 0 1-.297.285h-.015a.3.3 0 0 1-.282-.312l.059-1.227c.008-.164.133-.308.309-.285m3.352 4.852q.14-.205-.008-.579c-.894-2.21-.687-3.425-.676-3.476.028-.16.18-.262.348-.238a.3.3 0 0 1 .238.347c-.004.024-.171 1.13.641 3.145.227.558.094.93-.059 1.14-.257.372-.793.575-1.48.575h-.156a.297.297 0 0 1-.282-.313c.004-.164.149-.277.31-.285.538.027.968-.098 1.124-.316m.863-6.106a.295.295 0 0 1-.37-.191.296.296 0 0 1 .187-.375 2 2 0 0 1 2.18.742c.097.133.07.32-.06.418a.3.3 0 0 1-.179.058.3.3 0 0 1-.238-.117c-.606-.812-1.48-.547-1.52-.535m-5.37.45a.303.303 0 0 1-.422.008.3.3 0 0 1-.008-.423c1.125-1.175 2.523-.718 2.582-.699.156.05.238.219.187.375a.293.293 0 0 1-.375.188 1.96 1.96 0 0 0-1.965.55m104.241 61.609h-33.582a.88.88 0 0 0 .446-.325.92.92 0 0 0 .117-.824l-2.559-7.418-.207-.593-2.902-8.422a.3.3 0 0 0-.281-.2h-12.278a.3.3 0 0 0-.242.125.3.3 0 0 0-.039.27l2.836 8.227.207.593 2.094 6.067a.25.25 0 0 1-.031.215c-.004.007-.012.007-.016.015a.23.23 0 0 1-.176.086h-12.297c-.39 0-.734.203-.933.508a1.1 1.1 0 0 0-.07 1.094c.14.289.398.507.714.593h-33.93v-.011H53.43a.29.29 0 0 0-.102-.227c-.086-.074-2.117-1.84-1.172-4.113 1.055-2.527 3.852-3.863 8.094-3.863h.008c3.258.004 8.316 2.02 9.363 4.28.211.462.262.81.133.962-.164.203-.656.18-.95.125q.225.316.383.633c.356 0 .774-.07 1.028-.375.289-.352.27-.887-.055-1.594-1.183-2.559-6.383-4.625-9.902-4.625h-.008q-1.534.002-2.828.226a.3.3 0 0 0-.113-.046l-9.383-1.829 1.886-17.28a.295.295 0 0 0-.261-.329.296.296 0 0 0-.328.262l-1.918 17.554a.3.3 0 0 0 .238.329l8.52 1.656c-2.192.656-3.711 1.894-4.454 3.687-.785 1.887.188 3.48.836 4.27.098.117.188.219.266.297H25.965a1.86 1.86 0 0 0-1.86 1.863c0 1.027.832 1.86 1.86 1.86h140.058a1.862 1.862 0 0 0 0-3.723m-33.875-.54h-25.035a.527.527 0 0 1-.523-.527c0-.289.234-.523.523-.523h12.297a.828.828 0 0 0 .785-1.102l-5-14.492h11.645l5.601 16.23a.312.312 0 0 1-.293.415M68.563 200.88c.14.086.18.273.09.41l-.106.164-2.469 3.871a.34.34 0 0 1-.258.137.3.3 0 0 1-.25-.149l-2.48-4.289-1.88 4.82a.32.32 0 0 1-.19.177.3.3 0 0 1-.086.011.3.3 0 0 1-.168-.05l-8.793-5.915-.125-.082a.296.296 0 0 1-.078-.414.295.295 0 0 1 .41-.082l.273.184 8.336 5.61 1.875-4.813.094-.239a.299.299 0 0 1 .535-.039l.11.184 2.437 4.215 2.207-3.461.105-.16c.09-.14.274-.18.41-.09m7.785 33.547.07 1.426.32 6.203a.3.3 0 0 1-.047.16.3.3 0 0 1-.234.152h-.027a.3.3 0 0 1-.29-.281l-.386-7.563-.957-18.777a.297.297 0 0 1 .281-.312c.149-.016.305.117.313.285Zm27.105-29.2a.78.78 0 0 1 .723-.5h.613l.227-.593h-.84a1.38 1.38 0 0 0-1.281.883l-10.317 27.187c-.05 0-.101-.008-.152-.004-.043 0-.082-.004-.125-.004l-.813.035h-.004c-2.351.094-4.21.172-5.664 1.274-1.847 1.406-3.957 5.258-3.523 6.441q.002.001.004.008c.164.438.508.746.969.871.5.137 1.093.028 1.53-.25.06-.035.126-.066.177-.11.386-.32.726-.898 1.058-1.46q.105-.183.211-.356c.129.563.336 1.36.59 2.051q.115.318.242.59c.137.281.281.52.43.66.222.211.488.348.765.418h.778c.035-.012.07-.015.105-.027.278-.098.496-.281.656-.516.204.262.454.45.739.543h.75c.297-.097.566-.308.77-.629q.085-.135.16-.293c.253.317.585.524.953.57.05.008.097.008.148.008.441 0 .848-.246 1.137-.691.48-.746.636-2.02.484-4.004q-.016-.206-.039-.398c.176.254.371.59.547 1.027.117.281.195.566.273.844.157.543.301 1.054.672 1.492.25.297.82.55 1.383.434.453-.094.785-.418.934-.915.27-.917.297-2.316-.305-3.742h-.652c.648 1.36.64 2.711.386 3.575-.086.28-.246.449-.488.5-.328.07-.687-.098-.805-.239-.289-.34-.41-.77-.55-1.27a8 8 0 0 0-.297-.906c-.344-.847-.746-1.367-1.028-1.66h-.804c.074.368.144.813.18 1.305.136 1.82.007 3.012-.391 3.633-.2.304-.442.453-.715.414-.324-.04-.625-.336-.781-.754.152-.73.175-1.691.082-2.934-.043-.601-.157-1.199-.27-1.695q.122.03.25.031h.356l.226-.593h-.582a.38.38 0 0 1-.32-.168.4.4 0 0 1-.047-.364Zm-11.797 29.399c-.023 0-.05 0-.074.008a.297.297 0 0 0-.187.379c.003.011.468 1.41.57 2.77.137 1.82.008 3.011-.395 3.632-.195.305-.441.45-.71.414-.325-.039-.626-.336-.782-.754.133-1.148-.035-4.258-.723-6.043a.296.296 0 0 0-.382-.168.3.3 0 0 0-.172.387c.648 1.672.828 4.781.68 5.828-.051.352-.235.598-.52.7-.336.117-.754.011-1.043-.262-.461-.434-1.004-2.477-1.234-3.66q-.005-.004-.004-.008c-.004-.004 0-.004-.004-.008a41 41 0 0 1-.469-2.172.303.303 0 0 0-.348-.238.3.3 0 0 0-.238.351c.012.047.227 1.188.445 2.063-.175.234-.355.539-.546.86-.29.491-.614 1.046-.922 1.304-.297.242-.79.347-1.176.242a.8.8 0 0 1-.567-.512c-.285-.773 1.543-4.406 3.325-5.758 1.304-.992 3.082-1.062 5.332-1.152l.816-.035h.024Zm39.723-18.086h-12.832a.3.3 0 0 1-.297-.3c0-.165.133-.298.297-.298h12.832a.3.3 0 0 1 .3.297.3.3 0 0 1-.3.301m-.809 2.137h-12.836a.297.297 0 1 1 0-.594h12.836a.297.297 0 1 1 0 .594m-.812 2.14h-12.832a.3.3 0 0 1-.301-.296c0-.165.133-.297.3-.297h12.833a.297.297 0 1 1 0 .593m-.813 1.543c.164 0 .297.133.297.301a.297.297 0 0 1-.297.297h-12.832a.297.297 0 0 1-.297-.297c0-.168.133-.3.297-.3Zm25.727-94.949c-.844-.805-1.367-2.12-1.367-3.433q0-.488.093-.946.078-.376.215-.722c.223-.567.555-1.07.992-1.493 1.579-1.504 7.504-3.523 12.125-3.117 2.465.215 4.266 1.07 5.348 2.54q.017.023.027.042c.145.203.27.434.383.676 1.18 2.512.653 6.813.344 8.676q-.013.04-.031.082c.191.05.39.125.59.246.46.277.78.77.925 1.418.036.152.055.309.07.469 1.087.175 2.266.543 3.009 1.312.953.992.925 1.875.902 2.656-.02.582-.035 1.082.351 1.59.41.547 1.04.703 1.707.867.805.204 1.641.41 2.004 1.352.407 1.035-.09 2.047-.53 2.938-.227.46-.442.894-.524 1.296-.16.801.054 1.41.265 2 .235.66.477 1.34.153 2.184-.332.86-1.168 1.148-1.961 1.363-.235-.144-.465-.289-.7-.43-3.542-2.128-7.285-3.64-8.109-3.96a3 3 0 0 0-.156-.063.3.3 0 0 0-.29.043 3 3 0 0 1-.148.11l.012-9.32c0-.083.031-.161.09-.216a.3.3 0 0 1 .195-.078c.008 0 .02-.004.028-.004.02 0 1.695.082 2.48-1.082.54-.804.774-1.996.574-2.898-.078-.34-.25-.793-.656-1.04-1.035-.624-2.144.212-2.234.286-.07.062-.13.121-.192.18a6 6 0 0 0-.683.789c-.239.316-.442.593-.887.593-.848 0-2.8-3.882-4.219-6.972-.062.64-.262 1.367-.758 1.972-.3.36-.636.407-.875.383-.734-.078-1.523-1.008-2.09-1.836l.254 1.785a.3.3 0 0 1-.242.336c-.16.032-3.117.54-5.12.07.081.41.16.81.237 1.188.223 1.094.418 2.035.457 2.797.028.613-.054 1.313-.148 2.059-.234 1.945-.504 4.148 1.035 5.988a6.1 6.1 0 0 0 4.235 2.164c1.406.113 3.566-.18 5.898-2.2a.298.298 0 0 1 .387.453c-2.192 1.9-4.262 2.364-5.762 2.364q-.3 0-.57-.023a7 7 0 0 1-1.18-.203v2.933c-.016-.027-.023-.047-.027-.05a.304.304 0 0 0-.38-.153q-.041.02-.187.078v-2.992a6.6 6.6 0 0 1-2.867-1.988c-1.707-2.035-1.41-4.48-1.172-6.446.086-.714.172-1.394.145-1.953-.04-.718-.227-1.64-.446-2.71-.097-.473-.203-.981-.296-1.505a2.2 2.2 0 0 1-.723-.445m4.008 3.387.058 1.226a.3.3 0 0 1-.285.313h-.012a.294.294 0 0 1-.296-.285l-.06-1.227a.297.297 0 1 1 .595-.027m4.949-.305.055 1.227a.297.297 0 0 1-.282.312h-.015a.3.3 0 0 1-.297-.285l-.055-1.226a.295.295 0 0 1 .281-.313.303.303 0 0 1 .313.285m-4.207 3.766c.82-2.028.644-3.137.644-3.145a.3.3 0 0 1 .239-.347.294.294 0 0 1 .343.238c.012.05.22 1.266-.671 3.476q-.153.375-.012.575c.156.222.586.347 1.125.32.164-.02.305.121.312.285a.295.295 0 0 1-.285.309q-.08.005-.156.004c-.688 0-1.223-.203-1.48-.575-.149-.21-.282-.582-.06-1.14m-2.203-4.426a.3.3 0 0 1-.176.059c-.09 0-.18-.04-.238-.121a.295.295 0 0 1 .062-.415c.899-.664 2.051-.652 2.102-.656a.297.297 0 0 1 .293.301c0 .164-.153.285-.301.297-.012-.008-1.008-.008-1.742.535m7.422-.3c-1.036-.79-2.489-.477-2.504-.473a.299.299 0 0 1-.133-.582c.07-.016 1.738-.38 2.996.582a.298.298 0 0 1-.18.535.28.28 0 0 1-.18-.063m-42.532 27.753h-1.468c.125 0 .238.082.28.2l.138.398h1.05a.98.98 0 0 1 .926.66l10.73 30.867c.04.121.153.203.282.203h30.71c.524 0 .973.375 1.02.852a.96.96 0 0 1-.238.742.96.96 0 0 1-.707.313H132.75l.066.199a.298.298 0 0 1-.28.398h32.296c.043 0 .086-.012.129-.015.39-.032.754-.204 1.016-.497.027-.027.046-.062.07-.093a1.56 1.56 0 0 0 .324-1.106 1.5 1.5 0 0 0-.305-.75l3.235.059c2.387.047 4.668.09 6.297.09.468 0 .886-.004 1.234-.012a71 71 0 0 0 3.367-.152c.2-.016.403-.028.594-.043 5.652-.465 9.074-1.805 9.887-5.536.105-.484.18-.992.234-1.507.035-.293.059-.594.074-.89.184-3.017-.281-6.013-.304-6.173a.3.3 0 0 0-.34-.246.29.29 0 0 0-.246.293q-.002.024-.004.047c.008.047.758 4.879.004 8.351-.907 4.176-5.368 5.07-13.282 5.262-1.535.035-4.433-.02-7.504-.078-1.37-.027-2.82-.055-4.25-.078a2 2 0 0 0-.304-.027h-1.95c-.878-.008-1.73-.012-2.519-.008-1.672.008-3.21-.488-4.055-1.29.641-.777 1.536-1.816 2.453-2.23a.295.295 0 0 0 .149-.394.3.3 0 0 0-.39-.153l-.02.012c-1.125.52-2.145 1.766-2.82 2.594-.141.172-.266.324-.368.441-.293.336-.636.387-.824.371-.242-.007-.422-.097-.492-.187-.309-.395-.086-1.149.664-2.242.809-1.18 2.621-2.301 2.637-2.309a.3.3 0 0 0 .101-.41.303.303 0 0 0-.41-.102c-.078.051-1.937 1.2-2.816 2.48-.465.677-.989 1.583-.887 2.349-.027.015-.055.027-.078.05-.172.168-.465.262-.766.239-.242-.016-.453-.106-.558-.239-.227-.293-.223-1.234.765-2.511.977-1.27 2.723-2.758 2.738-2.774a.24.24 0 0 0 .075-.101.29.29 0 0 0-.04-.32.297.297 0 0 0-.421-.032 8 8 0 0 0-.281.246c-.543.48-1.758 1.598-2.543 2.617-.825 1.07-1.079 2.004-.989 2.653-.21.21-.496.324-.75.285-.226-.04-.39-.196-.48-.45-.176-.5-.13-1.468.57-2.57.809-1.258 2.184-2.39 2.629-2.738.086-.07.145-.11.145-.113a.303.303 0 0 0 .066-.418.3.3 0 0 0-.418-.063c-.074.055-1.848 1.375-2.883 2.953-.457.262-.957.7-1.441 1.13-.492.433-1 .878-1.297.972-.227.07-.578.02-.75-.191-.191-.223-.152-.625.105-1.133 1.22-2.364 4.614-4.89 7.727-4.895h.004c2.77 0 4.523.871 6.523 2.012a.28.28 0 0 0 .196.035l18.312-2.828a.3.3 0 0 0 .2-.121.32.32 0 0 0 .05-.23l-.75-3.864-.012-.059-.047-.238-2.894-14.816a.297.297 0 0 0-.582.113l2.937 15.047.004.008.7 3.617-.204.031-17.703 2.738c-2.047-1.16-3.855-2.039-6.73-2.039h-.004c-1.406 0-2.824.457-4.102 1.164-.011.008-.023.012-.035.02l.242-5.574a.2.2 0 0 0-.015-.098c-.004-.012 0-.02-.004-.027a.3.3 0 0 0-.07-.102v-.004c-.024-.02-2.223-2.132-2.223-5.48 0-3.395 3.367-9.149 3.402-9.207a.3.3 0 0 0-.105-.406.3.3 0 0 0-.406.105c-.145.238-3.485 5.95-3.485 9.508 0 2.644 1.238 4.539 1.942 5.402.156.188.285.328.367.414l-.008.18-.246 5.656c-1.555 1.004-2.836 2.36-3.508 3.664-.309.606-.336 1.047-.254 1.367a16.3 16.3 0 0 1-3.246.934c.004-.012.012-.02.016-.031.379-1.04-1.461-4.414-3.075-5.645-.882-.668-1.937-.902-3.18-1.011l3.423-1.735a.3.3 0 0 0 .16-.23l.363-2.97h-.262a.3.3 0 0 1-.226-.1.31.31 0 0 1-.07-.235v.004l-.376 3.07h-.003l-.543.278-3.633 1.84-.602-.024-.707-.031a5.56 5.56 0 0 0-2.375.418l-7.894-22.711a1.57 1.57 0 0 0-1.489-1.059m27.774 31.207q.001.002.008.004a1.1 1.1 0 0 0 .582.16c.304 0 .609-.113.867-.304q.005.001.004.003c.21.27.57.438.984.47q.064.001.121.003c.375 0 .723-.121.988-.324.008.012.012.027.02.039.195.246.547.402.941.414h.043c.47 0 .922-.207 1.243-.574.054-.059.113-.13.175-.203.36.328.813.613 1.34.836h-7.34Zm-3.715-1.445c.363.324.887.394 1.266.277.21-.066.449-.219.707-.418q.235-.182.488-.406l.316-.273.457-.399-.004.055c-.109.34-.171.664-.187.953q-.023.4.043.71.029.125.062.231l-.054 1.239h-11.067c.125-.172.243-.399.352-.664.223.007.441.015.656.015.703 0 1.379-.043 2.035-.11.168.009.336 0 .489-.042.02-.004.035-.016.054-.02 1.66-.218 3.149-.625 4.387-1.148m-7.402.715c.156-.48.289-.98.379-1.375q.068.11.136.226c.242.418.496.836.778 1.13-.422.019-.856.027-1.293.019m-4.926-6.528.707.028c1.953.078 3.492.14 4.617.996 1.629 1.238 3.094 4.363 2.875 4.96a.64.64 0 0 1-.469.423c-.312.086-.738 0-.984-.203-.262-.22-.543-.7-.793-1.125a8 8 0 0 0-.465-.735c.188-.762.375-1.734.383-1.777a.293.293 0 0 0-.238-.348.297.297 0 0 0-.348.234c0 .012-.215 1.13-.41 1.883v.012c0 .004-.004.004-.004.008-.2 1.023-.668 2.789-1.063 3.16-.238.227-.59.313-.867.219-.164-.059-.37-.207-.426-.574-.128-.907.028-3.602.59-5.051a.3.3 0 0 0-.172-.387.3.3 0 0 0-.386.172c-.598 1.55-.742 4.246-.63 5.262-.132.343-.378.59-.644.62-.27.04-.468-.167-.582-.343-.344-.531-.453-1.559-.332-3.137.086-1.172.488-2.386.492-2.398a.296.296 0 0 0-.187-.375.293.293 0 0 0-.375.187c-.02.051-.43 1.293-.524 2.543a13 13 0 0 0-.039 1.54l-1.195-3.438c.07-.278.129-.45.129-.453a.296.296 0 0 0-.414-.364l-.402-1.156a4.86 4.86 0 0 1 2.156-.383m39.176-35.343a.3.3 0 0 1 .09.41c-.008.008-.06.082-.165.207-.254.297-.859.91-2.117 1.765-1.238.84-3.633 2.133-6.633 2.133q-.59 0-1.21-.07c-2.973-.348-4.711-2.52-5.208-3.23a6 6 0 0 1-.152-.231.297.297 0 1 1 .512-.305c.004.004.066.11.191.278.528.718 2.137 2.593 4.723 2.894 3.375.395 6.113-1.058 7.441-1.965 1.035-.699 1.602-1.226 1.883-1.523.168-.18.234-.277.234-.277a.296.296 0 0 1 .41-.086m-10.961-6.024q.222.002.468-.043c2.067-.398 2.625-2.219 2.649-2.297a.3.3 0 0 0-.067-.289.3.3 0 0 0-.285-.086c-2.246.524-4.765.543-4.793.543a.3.3 0 0 0-.242.125.31.31 0 0 0-.035.274c.234.656.996 1.773 2.305 1.773m2.316-2.012a2.85 2.85 0 0 1-1.96 1.383c-1.036.196-1.634-.492-1.911-.957.758-.027 2.309-.117 3.871-.426m46.504 39.856 5.246-1.762a.3.3 0 0 0 .004-.566l-12.336-4.278a.29.29 0 0 0-.305.07.3.3 0 0 0-.074.31l4.274 12.355c.039.12.152.203.277.203h.004a.295.295 0 0 0 .277-.2l2.035-5.773c1.41.715 4.258 2.43 6.055 5.301 1.871 2.992 2.05 6.3.531 9.836-1.914 4.45-7.18 7.266-12.527 6.965-.668-2.55-1.68-4.715-3.004-6.457-.535-.7-1.383-1.676-2.562-2.082-1.051-.36-2.485-.172-3.184.89-.613.926-.387 2.082-.2 2.688.954 3.043 4.153 4.723 6.833 5.281a15 15 0 0 0 1.648.242q.187.76.332 1.567c.113.605.2 1.219.27 1.832h.601a33 33 0 0 0-.285-1.942 25 25 0 0 0-.297-1.418c5.535.247 10.934-2.71 12.918-7.328 3.188-7.406-1.394-13.007-6.531-15.734m-8.535 22.195c-2.512-.523-5.508-2.078-6.383-4.875-.156-.504-.352-1.457.125-2.176.367-.554 1.031-.792 1.676-.792.289 0 .57.046.82.132.781.27 1.508.868 2.281 1.883 1.243 1.633 2.2 3.656 2.852 6.04a14 14 0 0 1-1.371-.212m-6.207 27.836h1.02c-2.204 1.656-5.95 3.684-8.856 5.031-3.633 1.684-9.645 2.778-16.215 2.778-7.55 0-15.832-1.446-22.086-5.102a.298.298 0 0 1 .3-.515c11.524 6.742 30.056 5.863 37.75 2.296 2.606-1.207 5.888-2.96 8.087-4.488m-137.45-60.18c.051.102.153.168.266.168a.3.3 0 0 0 .27-.167l5.699-11.766a.29.29 0 0 0-.055-.34.3.3 0 0 0-.34-.059l-5.535 2.653c-1.582-3.649-1.808-8.953.602-11.43 1.695-1.738 4.672-2.293 7.41-1.379.71.235 1.383.551 2.016.918-.418 2.367.652 5.348 3.171 6.246.899.324 2.063.207 2.458-.644.437-.942-.45-1.91-.743-2.23-1.109-1.212-2.507-2.602-4.218-3.669.535-2.238 2.152-4.129 3.523-5.543a40 40 0 0 1 5.828-4.945v9.277c0 .227.047.442.113.645l-.007.004a.3.3 0 0 0 .191.527c.02 0 .04-.008.059-.012a2.1 2.1 0 0 0 1.75.946h31.695a2.1 2.1 0 0 0 1.75-.946c.02.004.039.012.055.012.086 0 .171-.039.23-.11a.297.297 0 0 0-.035-.417l-.008-.004c.067-.203.113-.418.113-.645v-14.957a41 41 0 0 1 2.942 1.012c3.387 1.309 10.465 5.414 12.797 8a.3.3 0 0 0 .422.02.3.3 0 0 0 .02-.422c-2.384-2.64-9.587-6.825-13.024-8.157a42 42 0 0 0-3.157-1.07v-3.82c0-1.16-.945-2.11-2.105-2.11H81.14c-1.16 0-2.106.95-2.106 2.11v9.398a40.5 40.5 0 0 0-6.254 5.246c-1.39 1.438-3.023 3.348-3.629 5.649a11.6 11.6 0 0 0-1.965-.875c-2.949-.985-6.171-.371-8.023 1.527-2.516 2.586-2.434 7.758-.918 11.625l-4.863-2.426a.297.297 0 0 0-.403.395Zm54.153-21.398H81.14a1.5 1.5 0 0 1-1.27-.7l11.453-9.683 4.14 3.504c.458.383.99.578 1.524.578.532 0 1.067-.195 1.52-.578l4.144-3.504 11.453 9.684c-.27.418-.738.7-1.27.7m1.508-1.512c0 .075-.012.145-.02.215l-11.21-9.472 11.23-9.497ZM81.14 123.746h31.695c.789 0 1.43.613 1.496 1.383l-16.207 13.7c-.691.585-1.586.585-2.277 0l-16.203-13.7a1.506 1.506 0 0 1 1.496-1.383m-1.512 2.152 11.23 9.497-11.207 9.472c-.011-.07-.023-.14-.023-.215Zm-10.063 20.598c1.563 1.012 2.86 2.305 3.899 3.438.613.671.824 1.187.64 1.578-.234.504-1.074.566-1.718.336-2.14-.766-3.09-3.27-2.82-5.352m0 0"/></g></svg>