<svg xmlns="http://www.w3.org/2000/svg" width="480" height="480" version="1.0" viewBox="0 0 360 360"><defs><clipPath id="a"><path d="M194 220h40.102v44.86H194Zm0 0"/></clipPath><clipPath id="b"><path d="M128 220h41v44.86h-41Zm0 0"/></clipPath><clipPath id="c"><path d="M76 220h41v44.86H76Zm0 0"/></clipPath><clipPath id="d"><path d="M11.023 220H51v44.86H11.023Zm0 0"/></clipPath></defs><path fill="#fff" d="M-36-36h432v432H-36z"/><path fill="#fff" d="M-36-36h432v432H-36z"/><path fill="#d9d9d9" d="M-.113-.195h358.86v365.308H-.114Zm0 0"/><path fill="none" stroke="#000" stroke-width="3" d="M246.61 360V0"/><g clip-path="url(#a)"><path fill="#040606" d="M214.035 220.926c-6.18.117-11.094 5.219-10.976 11.387a11.18 11.18 0 0 0 5.23 9.23h-.098v1.977l-8.976 2.808a4.3 4.3 0 0 0-2.91 3.219l-1.942 9.351a4.26 4.26 0 0 0 3.309 5.063l.394.059a139.8 139.8 0 0 0 32.27 0 4.26 4.26 0 0 0 3.746-4.747c-.02-.117-.039-.238-.059-.375l-1.921-9.351a4.33 4.33 0 0 0-2.915-3.219l-8.992-2.808v-1.977a11.145 11.145 0 0 0 3.547-15.379 11.29 11.29 0 0 0-9.707-5.238"/></g><g clip-path="url(#b)"><path fill="#040606" d="M148.344 220.926c-6.18.137-11.094 5.219-10.973 11.387a11.18 11.18 0 0 0 5.25 9.23l-.121 1.898v.079l-8.973 2.808a4.28 4.28 0 0 0-2.894 3.219l-1.938 9.371c-.496 2.312 1.008 4.566 3.325 5.043l.359.059a139.8 139.8 0 0 0 32.27 0c2.355-.278 4.042-2.395 3.765-4.747-.023-.117-.043-.238-.062-.355l-1.942-9.371a4.25 4.25 0 0 0-2.89-3.2l-8.993-2.808v-1.996c5.227-3.281 6.813-10.16 3.524-15.379a11.16 11.16 0 0 0-9.688-5.219z"/></g><g clip-path="url(#c)"><path fill="#040606" d="M96.422 220.926c-6.18.117-11.074 5.219-10.973 11.387a11.18 11.18 0 0 0 5.25 9.23h-.101v1.977l-8.973 2.808a4.3 4.3 0 0 0-2.91 3.219l-1.942 9.351a4.257 4.257 0 0 0 3.305 5.063c.14.02.258.039.379.059a139.8 139.8 0 0 0 32.27 0c2.359-.278 4.043-2.395 3.765-4.727-.02-.137-.043-.258-.062-.395l-1.942-9.351a4.3 4.3 0 0 0-2.91-3.219l-8.973-2.808v-1.977c5.227-3.281 6.813-10.16 3.524-15.379-2.078-3.32-5.762-5.297-9.688-5.238z"/></g><g clip-path="url(#d)"><path fill="#040606" d="M30.676 220.945a11.18 11.18 0 0 0-10.977 11.368 11.11 11.11 0 0 0 5.25 9.23v1.997l-8.972 2.808a4.3 4.3 0 0 0-2.915 3.199l-1.94 9.371a4.24 4.24 0 0 0 3.308 5.043c.14.039.258.059.375.059a140 140 0 0 0 32.293 0h-.102c2.34-.258 4.024-2.395 3.746-4.727-.02-.117-.039-.258-.058-.375l-1.942-9.348a4.29 4.29 0 0 0-2.914-3.222l-8.973-2.809v-1.977c5.23-3.28 6.813-10.18 3.528-15.398a11.21 11.21 0 0 0-9.688-5.219z"/></g><path fill="#040606" d="M64.172 150.492c-8.024-.273-14.758 5.992-15.035 13.996a14.44 14.44 0 0 0 7.488 13.188v3.535c0 .691-.457 1.285-1.11 1.484L42.7 186.727a4.68 4.68 0 0 0-3.172 3.5l-2.793 13.382a4.67 4.67 0 0 0 3.649 5.516c.117.04.254.059.394.078a199.4 199.4 0 0 0 45.782 0c2.574-.316 4.418-2.629 4.12-5.18a3 3 0 0 0-.081-.414l-2.774-13.382a4.63 4.63 0 0 0-3.187-3.5l-12.817-4.032a1.53 1.53 0 0 1-1.09-1.484v-3.535c7.032-3.875 9.567-12.711 5.665-19.711a14.54 14.54 0 0 0-12.223-7.473M181.785 150.492c-8.023-.297-14.758 5.973-15.035 13.977a14.41 14.41 0 0 0 7.465 13.207v3.535c0 .691-.434 1.285-1.09 1.484l-12.836 4.032a4.7 4.7 0 0 0-3.168 3.5l-2.773 13.382c-.516 2.532 1.109 5 3.625 5.516.156.04.277.059.414.078a199.4 199.4 0 0 0 45.781 0c2.555-.316 4.398-2.629 4.102-5.18l-.06-.414-2.773-13.382a4.7 4.7 0 0 0-3.19-3.5l-12.817-4.032a1.54 1.54 0 0 1-1.09-1.484v-3.535c7.015-3.875 9.55-12.711 5.668-19.711a14.55 14.55 0 0 0-12.223-7.473M122.988 77.117c-8.023-.277-14.758 5.988-15.035 13.996-.2 5.453 2.695 10.535 7.469 13.184v3.539c0 .691-.457 1.285-1.09 1.48l-12.836 4.036a4.63 4.63 0 0 0-3.172 3.496l-2.773 13.382a4.64 4.64 0 0 0 3.625 5.516c.14.04.277.059.418.082a199.2 199.2 0 0 0 45.758 0c2.578-.316 4.418-2.633 4.101-5.2-.02-.14-.039-.257-.058-.398l-2.774-13.382a4.62 4.62 0 0 0-3.187-3.496l-12.801-4.036a1.54 1.54 0 0 1-1.106-1.48v-3.54c7.032-3.894 9.547-12.73 5.645-19.726a14.51 14.51 0 0 0-12.184-7.453"/><path fill="#f2c9cd" d="M214.074 222.941c5.07 0 9.172 4.094 9.172 9.153a9.15 9.15 0 0 1-5.21 8.261v3.086c0 .93.593 1.739 1.464 2.016l8.977 2.809a2.2 2.2 0 0 1 1.543 1.699l1.96 9.367a2.28 2.28 0 0 1-1.78 2.672c-.06.02-.118.02-.2.039a138.3 138.3 0 0 1-31.793 0c-1.25-.16-2.14-1.285-1.98-2.512 0-.078.02-.136.02-.199l1.94-9.367a2.26 2.26 0 0 1 1.563-1.7l8.957-2.808a2.1 2.1 0 0 0 1.484-2.016v-3.086c-4.578-2.171-6.52-7.628-4.34-12.195a9.17 9.17 0 0 1 8.262-5.219zM148.383 222.941c5.074 0 9.191 4.094 9.191 9.153 0 3.52-2.039 6.742-5.246 8.261v3.086c.02.93.613 1.739 1.484 2.016l8.973 2.809a2.21 2.21 0 0 1 1.547 1.699l1.922 9.367c.258 1.207-.535 2.414-1.766 2.672-.058.02-.136.02-.195.039a138.5 138.5 0 0 1-31.816 0c-1.227-.16-2.141-1.285-2-2.512.02-.078.02-.136.039-.199l1.96-9.367a2.21 2.21 0 0 1 1.547-1.7l8.973-2.808a2.11 2.11 0 0 0 1.465-2.016v-3.086c-4.574-2.171-6.496-7.628-4.316-12.195a9.12 9.12 0 0 1 8.238-5.219M96.484 222.941c5.07 0 9.172 4.094 9.172 9.153a9.16 9.16 0 0 1-5.21 8.261v3.086c0 .93.593 1.739 1.464 2.016l8.973 2.809a2.21 2.21 0 0 1 1.547 1.699l1.96 9.367a2.28 2.28 0 0 1-1.78 2.672c-.063.02-.122.02-.2.039a138.5 138.5 0 0 1-31.816 0 2.274 2.274 0 0 1-1.98-2.531c0-.059.019-.117.038-.18l1.942-9.367a2.21 2.21 0 0 1 1.547-1.7l8.972-2.808a2.13 2.13 0 0 0 1.489-2.016v-3.086c-4.579-2.171-6.52-7.628-4.34-12.195 1.504-3.183 4.715-5.2 8.242-5.219zM30.773 222.941c5.07 0 9.192 4.094 9.192 9.153 0 3.52-2.04 6.742-5.23 8.261v3.086c0 .93.593 1.739 1.488 2.016l8.953 2.809a2.26 2.26 0 0 1 1.562 1.699l1.903 9.367c.257 1.207-.536 2.414-1.762 2.672-.059.02-.117.02-.2.039a138.3 138.3 0 0 1-31.792 0c-1.25-.16-2.14-1.285-2-2.512 0-.078.02-.136.039-.199l1.922-9.367a2.26 2.26 0 0 1 1.562-1.7l8.977-2.827c.87-.258 1.465-1.067 1.484-1.997v-3.086c-4.578-2.171-6.52-7.628-4.34-12.195a9.12 9.12 0 0 1 8.242-5.219"/><path fill="#f78e9f" d="M181.645 152.488c6.914.2 12.363 5.953 12.164 12.852a12.42 12.42 0 0 1-7.47 11.09v4.78a3.57 3.57 0 0 0 2.516 3.403l12.817 4.032a2.64 2.64 0 0 1 1.824 1.996l2.774 13.363c.296 1.445-.614 2.867-2.063 3.164-.078 0-.156.02-.234.02a195.5 195.5 0 0 1-45.328 0 2.61 2.61 0 0 1-2.317-2.946c0-.078.02-.16.02-.238l2.773-13.363c.2-.95.89-1.72 1.824-1.996l12.817-4.032a3.55 3.55 0 0 0 2.515-3.402v-4.781c-6.34-2.79-9.191-10.16-6.418-16.489 2.059-4.625 6.715-7.57 11.805-7.453z"/><path fill="#f14357" d="M122.828 79.113c6.914.18 12.383 5.93 12.203 12.828a12.49 12.49 0 0 1-7.508 11.11v4.785a3.56 3.56 0 0 0 2.516 3.398l12.797 4.016a2.69 2.69 0 0 1 1.824 2.016l2.774 13.382c.296 1.422-.633 2.844-2.082 3.141-.079 0-.137.02-.215.04a197 197 0 0 1-45.305 0 2.696 2.696 0 0 1-2.36-2.966c.02-.078.02-.136.04-.215l2.773-13.382c.2-.95.89-1.723 1.824-2.016l12.817-4.016a3.55 3.55 0 0 0 2.496-3.398v-4.785c-6.34-2.766-9.211-10.14-6.438-16.465 2.04-4.664 6.735-7.61 11.825-7.473z"/><path fill="#040606" d="m99.77 180.836 1.386 2.371 21.317-12.273 21.336 12.273 1.386-2.371-21.336-12.293v-24.574h-2.754v24.574z"/><path fill="#f78e9f" d="M64.016 152.488c6.933.2 12.379 5.953 12.18 12.852a12.45 12.45 0 0 1-7.466 11.09v4.78a3.55 3.55 0 0 0 2.497 3.403l12.816 4.032a2.66 2.66 0 0 1 1.84 1.996l2.773 13.363a2.68 2.68 0 0 1-2.078 3.164c-.078 0-.16.02-.238.02a195.3 195.3 0 0 1-45.305 0 2.645 2.645 0 0 1-2.34-2.946c.024-.078.024-.16.043-.238l2.774-13.363a2.64 2.64 0 0 1 1.8-1.996l12.817-4.032a3.525 3.525 0 0 0 2.496-3.402v-4.781c-6.32-2.79-9.191-10.16-6.398-16.489a12.6 12.6 0 0 1 11.789-7.453"/><path fill="#040606" d="m47.77 241.148.972 1.68 14.914-8.617 14.938 8.617.953-1.68-14.918-8.601v-17.195h-1.942v17.195zM197.176 241.148l-.95 1.68-14.937-8.617-14.937 8.617-.95-1.68 14.934-8.601v-17.195h1.922v17.195z"/></svg>