<svg xmlns="http://www.w3.org/2000/svg" width="500" height="500" version="1.0" viewBox="0 0 375 375"><path fill="#fff" d="M-37.5-37.5h450v450h-450z"/><path fill="#2c135d" d="M-37.5-37.5h450v450h-450z"/><path fill="#fff" d="M65.423 166.574q-6.375 0-11.25-2.64-4.862-2.655-7.61-7.97-2.751-5.325-2.75-13.14-.001-7.795 2.75-13.11 2.748-5.324 7.61-7.984 4.875-2.656 11.25-2.656 6.669 0 11.328 2.61 4.654 2.611 6.64 7.937l-6.656 4.078-.796-.031q-1.489-3.593-4.032-5.157c-1.687-1.05-3.851-1.578-6.484-1.578-3.836 0-6.824 1.274-8.969 3.813q-3.22 3.815-3.219 12.078c0 5.5 1.07 9.523 3.22 12.062q3.215 3.798 8.968 3.797c6 0 9.676-2.914 11.031-8.75h.781l6.735 3.516q-1.91 6.562-6.485 9.844-4.58 3.28-12.062 3.28M90.498 165.918v-48.829h8.75v18.532l.672.125c1.156-1.696 2.57-3.008 4.25-3.938q2.53-1.39 6.11-1.39 11.53 0 11.53 13.078v22.422h-8.75v-21.329q-.002-3.561-1.421-5.171c-.95-1.07-2.422-1.61-4.422-1.61-2.45 0-4.39.82-5.828 2.453-1.43 1.625-2.14 4.168-2.14 7.625v18.032ZM131.307 165.918v-34.844h8.5v5.187l.672.125q1.263-2.907 3.312-4.265 2.044-1.36 4.985-1.36c1.976 0 3.484.34 4.515 1.016l-1.484 7.547-.656.125a9.7 9.7 0 0 0-1.657-.5q-.785-.154-1.922-.156-3.657 0-5.593 2.578-1.923 2.565-1.922 8.25v16.297ZM162.988 126.902q-2.362 0-3.844-1.422-1.486-1.434-1.484-3.719c0-1.5.492-2.726 1.484-3.687q1.483-1.437 3.844-1.438c1.05 0 1.988.227 2.812.672a4.74 4.74 0 0 1 1.907 1.813q.686 1.159.687 2.64 0 1.486-.687 2.657a4.7 4.7 0 0 1-1.907 1.828q-1.236.656-2.812.656m-4.36 39.016v-34.844h8.75v34.844ZM188.672 166.574q-3.565-.001-6.532-.828-2.97-.843-5.078-2.313-2.096-1.465-3.11-3.36l4.86-5.25h.672q1.733 2.345 4.094 3.516 2.373 1.173 5.156 1.172c1.707 0 2.992-.304 3.86-.922q1.295-.92 1.296-2.625c0-.882-.312-1.625-.937-2.218q-.94-.902-3.016-1.407l-4.61-1.109q-5.189-1.232-7.577-3.766c-1.586-1.695-2.375-3.851-2.375-6.468 0-2.164.55-4.047 1.656-5.641q1.653-2.404 4.672-3.672 3.012-1.265 7.031-1.265 4.701 0 7.797 1.359 3.107 1.361 4.844 3.625l-4.672 5.062h-.64q-1.456-1.64-3.266-2.39-1.815-.764-4.063-.766-5.173 0-5.172 3.219 0 1.36.953 2.219.969.845 3.407 1.375l4.28.953c3.54.761 6.126 1.98 7.75 3.656q2.452 2.503 2.454 6.734 0 3.315-1.64 5.844-1.642 2.533-4.735 3.906-3.094 1.36-7.36 1.36M228.529 157.605l2.28 6.484q-1.422 1.173-3.577 1.829c-1.43.437-3.047.656-4.86.656q-5.658.001-8.593-3.078-2.94-3.077-2.938-8.953v-16.547h-5.297v-6.953h5.297v-6.782l8.75-1.422v8.204h9.89v6.953h-9.89v15.922q0 2.596 1.078 3.78 1.077 1.173 3.125 1.173 2.344 0 4.078-1.266ZM240.941 126.902q-2.36 0-3.844-1.422-1.486-1.434-1.484-3.719c0-1.5.492-2.726 1.484-3.687q1.483-1.437 3.844-1.438c1.051 0 1.989.227 2.813.672a4.74 4.74 0 0 1 1.906 1.813q.687 1.159.688 2.64-.001 1.486-.688 2.657a4.7 4.7 0 0 1-1.906 1.828q-1.236.656-2.813.656m-4.36 39.016v-34.844h8.75v34.844ZM255.344 165.918v-34.844h8.406v5.125l.672.156q3.246-5.936 10.547-5.937 6.029 0 8.86 3.28c1.882 2.188 2.827 5.384 2.827 9.579v22.64h-8.75V144.34c0-2.312-.465-3.976-1.39-5q-1.395-1.53-4.453-1.53-3.768 0-5.875 2.437c-1.399 1.617-2.094 4.164-2.094 7.64v18.032ZM325.559 150.464h-22.39q.374 4.564 2.577 6.625 2.215 2.063 6.047 2.063c2 0 3.617-.367 4.86-1.11 1.25-.75 2.25-1.882 3-3.406h.671l5.813 3.735q-1.706 3.657-5.156 5.937-3.44 2.267-9.188 2.266-5.407.002-9.344-2.047-3.924-2.044-6.062-6.11-2.126-4.059-2.125-9.906-.002-5.934 2.234-10 2.25-4.075 6.063-6.078 3.827-2.015 8.61-2.015 7.386 0 11.312 3.921 3.937 3.909 3.937 11.485 0 2.754-.187 4.265Zm-7.516-5.64q-.129-3.982-1.844-5.797-1.722-1.828-5.03-1.828-6.643.001-7.813 7.625ZM124.228 255.918H90.337v-8.047l23.156-29.828-.219-.657H91.26v-7.64h32.75v8.047l-23.156 29.812.234.672h23.14ZM131.175 255.918v-48.829h8.75v18.532l.672.125c1.156-1.696 2.57-3.008 4.25-3.938q2.53-1.39 6.11-1.39 11.53 0 11.53 13.078v22.422h-8.75v-21.329q-.002-3.561-1.421-5.171c-.95-1.07-2.422-1.61-4.422-1.61q-3.673.002-5.828 2.453c-1.43 1.625-2.14 4.168-2.14 7.625v18.032ZM180.547 256.574q-3.346 0-5.813-1.219-2.456-1.23-3.781-3.61-1.33-2.387-1.328-5.75c0-2.062.441-3.788 1.328-5.187q1.326-2.108 4.094-3.453 2.777-1.342 7.265-2.062 3.139-.498 4.766-1.094 1.624-.61 2.187-1.36c.383-.507.578-1.156.578-1.937q0-1.669-1.171-2.547-1.173-.89-3.891-.89-2.906 0-5.531 1.296a15.1 15.1 0 0 0-4.547 3.407h-.625l-3.672-5.532q2.655-2.936 6.469-4.578 3.826-1.64 8.343-1.64 6.922 0 10.016 2.937 3.094 2.941 3.094 8.344v15.125q0 2.33 2.062 2.328.78 0 1.547-.281l.438.125.64 6.093q-.737.488-2.031.782c-.867.195-1.812.297-2.844.297q-3.128 0-4.875-1.188-1.753-1.2-2.515-3.766l-.657-.062q-2.563 5.424-9.546 5.422m2.78-6.531q3.03.001 4.845-2.032Q190 245.966 190 242.34v-3.546l-.61-.125c-.523.43-1.21.78-2.062 1.062q-1.285.422-3.688.844-2.846.469-4.093 1.625-1.236 1.143-1.235 3.265c0 1.493.442 2.625 1.328 3.407q1.326 1.171 3.688 1.172M208.718 255.918v-34.844h8.406v5.125l.672.156q3.246-5.936 10.547-5.937 6.03 0 8.86 3.28c1.882 2.188 2.828 5.384 2.828 9.579v22.64h-8.75V234.34c0-2.312-.465-3.976-1.391-5q-1.395-1.53-4.453-1.53-3.767 0-5.875 2.437c-1.399 1.617-2.094 4.164-2.094 7.64v18.032ZM262.574 270.699q-8.626 0-12.735-2.531-4.094-2.52-4.093-7.032-.001-2.753 1.75-4.515 1.748-1.747 5.03-2.344v-.672q-1.767-1.061-2.546-2.375-.767-1.312-.766-3.047c0-2.8 1.82-4.687 5.47-5.656v-.672q-2.816-1.605-4.235-3.984-1.423-2.391-1.422-5.766c0-2.32.531-4.36 1.594-6.11q1.591-2.637 4.672-4.109 3.074-1.466 7.375-1.468 4.358.001 6.953 1.515 1.606-2.342 1.859-5.406l.672-.406 6.281 1.547q-.281 2.5-1.453 4.187c-.781 1.125-1.992 2.133-3.625 3.016v.687q2.937 2.594 2.938 7.235-.001 3.221-1.625 5.78-1.612 2.567-4.688 4.048-3.082 1.486-7.312 1.484l-1.329-.031a46 46 0 0 0-1.765-.063q-1.208 0-1.875.657-.673.645-.672 1.64c0 .742.289 1.32.875 1.735q.89.61 2.594.671l7.797.282q11.561.362 11.562 9.953 0 3.374-1.719 6.015c-1.148 1.758-3.008 3.157-5.578 4.188q-3.861 1.547-9.984 1.547m.094-32.719c1.687 0 3.003-.492 3.953-1.484.945-.989 1.422-2.399 1.422-4.235 0-1.832-.477-3.238-1.422-4.218-.95-.977-2.266-1.47-3.953-1.47-1.7 0-3.012.493-3.938 1.47-.93.98-1.39 2.386-1.39 4.218 0 1.856.46 3.274 1.39 4.25q1.389 1.47 3.938 1.469m-.094 26.375q4.482 0 6.515-1.266 2.047-1.265 2.047-3.28-.001-1.643-1.047-2.423-1.032-.784-3.312-.843l-6.89-.313q-.348-.001-.641-.031a5 5 0 0 0-.578-.031q-2.221 0-3.375.937c-.762.633-1.141 1.516-1.141 2.64 0 1.47.703 2.602 2.11 3.407 1.406.8 3.507 1.203 6.312 1.203m0 0"/></svg>