<svg xmlns="http://www.w3.org/2000/svg" width="480" height="480" version="1.0" viewBox="0 0 360 360"><path fill="#fff" d="M-36-36h432v432H-36z"/><path fill="#fff" d="M-36-36h432v432H-36z"/><path fill="#d9d9d9" d="M-.113-.195h358.86v365.308H-.114Zm0 0"/><path fill="none" stroke="#000" stroke-width="3" d="M246.61 360V0"/><path fill="#ff0063" fill-rule="evenodd" d="m88.508 193.16-7.77 7.496-11.347-11.808-8.664 8.359 11.347 11.809-11.785 11.37 8.34 8.684 11.785-11.37 11.348 11.812 8.664-8.36-11.348-11.812 7.77-7.496c15.84 12.277 38.691 11.386 53.535-2.934 16.312-15.742 16.8-41.8 1.097-58.144-15.699-16.344-41.703-16.844-58.02-1.102-14.839 14.32-16.593 37.172-4.952 53.496m54.308-44.035c11.102 11.555 10.758 29.977-.777 41.102-11.531 11.125-29.91 10.777-41.012-.778-11.101-11.558-10.754-29.976.778-41.101 11.53-11.13 29.91-10.778 41.011.777m0 0"/></svg>