<svg xmlns="http://www.w3.org/2000/svg" width="480" height="480" version="1.0" viewBox="0 0 360 360"><defs><clipPath id="a"><path d="M69 229h66v36.836H69Zm0 0"/></clipPath><clipPath id="b"><path d="M69 109.836h157V210H69Zm0 0"/></clipPath><clipPath id="c"><path d="M13.867 147H95v81H13.867Zm0 0"/></clipPath></defs><path fill="#fff" d="M-36-36h432v432H-36z"/><path fill="#fff" d="M-36-36h432v432H-36z"/><path fill="#d9d9d9" d="M-.113-.195h358.86v365.308H-.114Zm0 0"/><path fill="none" stroke="#000" stroke-width="3" d="M246.61 360V0"/><path d="M128.05 138.574a6.66 6.66 0 0 0-6.655 6.653v42.609a6.66 6.66 0 0 0 3.562 5.898l22.129 11.664c1 .512 2.047.758 3.094.758 2.382 0 4.699-1.293 5.898-3.562a6.656 6.656 0 0 0-2.781-8.992l-18.567-9.797v-38.578c-.023-3.672-3.003-6.653-6.68-6.653m0 0"/><g clip-path="url(#a)"><path d="M134.73 259.156c0 3.672-3.003 6.68-6.68 6.68-23.417 0-44.433-10.352-58.769-26.805a15.14 15.14 0 0 0 9.395-9.457c11.933 14.024 29.629 22.883 49.375 22.883 3.652.02 6.68 3.027 6.68 6.7m0 0"/></g><g clip-path="url(#b)"><path d="m223.422 188.234-19.324 19.325a6.54 6.54 0 0 1-4.7 1.98 6.49 6.49 0 0 1-4.695-1.98l-19.39-19.325c-2.583-2.582-2.583-6.812 0-9.394 2.648-2.649 6.855-2.649 9.46 0l7.883 7.883c-.601-35.172-29.32-63.578-64.605-63.578-19.746 0-37.442 8.906-49.375 22.886a15.4 15.4 0 0 0-9.328-9.46c14.336-16.387 35.351-26.735 58.703-26.735 42.699 0 77.426 34.434 77.984 76.996l8.012-8.012a6.547 6.547 0 0 1 9.394 0 6.587 6.587 0 0 1-.02 9.414m0 0"/></g><path d="M148.934 248.492a7.19 7.19 0 0 0-4.454 9.13 7.19 7.19 0 0 0 9.13 4.452 7.19 7.19 0 0 0 4.452-9.129 7.18 7.18 0 0 0-9.128-4.453M168.414 237.676c-3.074 2.492-3.562 7.012-1.07 10.082 2.492 3.074 7.011 3.562 10.086 1.07 3.07-2.492 3.558-7.012 1.066-10.086-2.469-3.07-6.988-3.558-10.082-1.066M192.879 218.422c-3.406-2.05-7.816-.938-9.84 2.445-2.05 3.406-.937 7.817 2.45 9.84 3.406 2.047 7.812.938 9.84-2.45 2.046-3.405.956-7.812-2.45-9.835m0 0"/><g clip-path="url(#c)"><path d="M94.016 198.207c0 1.672-1.36 3.027-3.008 3.027h-23.64v23.618a3.01 3.01 0 0 1-3.005 3.007H43.57a3.01 3.01 0 0 1-3.008-3.007v-23.618h-23.64a3.01 3.01 0 0 1-3.004-3.027v-20.789a2.993 2.993 0 0 1 3.004-3.008h23.621v-23.617a3.005 3.005 0 0 1 3.004-3.004H64.34a3.005 3.005 0 0 1 3.004 3.004v23.64h23.62a3.007 3.007 0 0 1 3.005 3.005v20.769Zm0 0"/></g></svg>