<svg xmlns="http://www.w3.org/2000/svg" width="480" height="480" version="1.0" viewBox="0 0 360 360"><defs><clipPath id="a"><path d="M199 245h41.023v41.164H199Zm0 0"/></clipPath><clipPath id="b"><path d="M21.773 88.164H172V267H21.773Zm0 0"/></clipPath></defs><path fill="#fff" d="M-36-36h432v432H-36z"/><path fill="#fff" d="M-36-36h432v432H-36z"/><path fill="#d9d9d9" d="M-.113-.195h358.86v365.308H-.114Zm0 0"/><path fill="none" stroke="#000" stroke-width="3" d="M246.61 360V0"/><path fill="#f4a996" fill-rule="evenodd" d="M204.215 252.879c-.426 0-1.278 0-1.703-.426l-11.086-11.523c-1.278-.852-1.278-2.559 0-3.414.855-1.282 2.558-1.282 3.41 0l11.086 11.093c1.277.856 1.277 2.563 0 3.844-.426.426-.856.426-1.707.426m0 0"/><g clip-path="url(#a)"><path fill="#f4a996" fill-rule="evenodd" d="M229.793 286.16c-2.559 0-5.543-.851-7.246-2.984l-20.035-20.055c-3.836-3.844-3.836-10.668 0-14.512 2.129-1.707 4.687-2.984 7.246-2.984 2.558 0 5.113 1.277 7.246 2.984l20.035 20.059c2.129 2.133 2.984 4.691 2.984 7.254 0 2.984-.855 5.547-2.984 7.254-2.133 2.133-4.691 2.984-7.246 2.984m0 0"/></g><path fill="#f4a996" fill-rule="evenodd" d="M162.441 254.586c-12.363 0-23.87-4.695-32.398-13.656-8.95-8.535-13.64-20.055-13.64-32.43s4.69-23.898 13.64-32.43c8.527-8.535 20.035-13.656 32.398-13.656s23.871 5.121 32.395 13.656c8.953 8.532 13.64 20.055 13.64 32.43s-4.687 23.895-13.64 32.43c-8.524 8.96-20.031 13.656-32.395 13.656m14.493-29.02c-.852 0-1.278-.425-1.704-.851-1.28-.856-1.28-2.563 0-3.414 3.41-3.414 5.114-8.11 5.114-12.801 0-4.695-1.703-9.39-5.114-12.8-1.28-.856-1.28-2.563 0-3.415.852-.855 2.555-.855 3.41 0 4.262 4.266 6.82 10.238 6.82 16.215 0 6.398-2.558 11.945-6.82 16.215-.425.426-1.28.851-1.706.851m-14.493 14.512c-8.527 0-16.199-3.414-22.168-9.39-5.964-5.973-9.375-13.653-9.375-22.188s3.41-16.215 9.375-22.191c5.97-5.973 13.641-9.387 22.168-9.387 8.524 0 16.2 3.414 22.164 9.387 5.97 5.976 9.38 13.656 9.38 22.191s-3.41 16.215-9.38 22.188c-5.964 5.976-13.64 9.39-22.164 9.39m0-58.035c-7.246 0-13.64 2.988-18.757 7.68-5.114 5.12-7.672 11.949-7.672 18.777 0 7.254 2.558 13.652 7.672 18.773 5.117 5.122 11.511 7.684 18.757 7.684s13.641-2.562 18.754-7.684c5.118-5.12 7.676-11.52 7.676-18.773 0-6.828-2.559-13.656-7.676-18.777-5.113-4.692-11.507-7.68-18.754-7.68m0 0"/><g clip-path="url(#b)"><path fill="#368498" fill-rule="evenodd" d="M98.074 128.277h-4.687v8.961h7.672c2.132 0 4.261-1.707 4.261-4.27 0-2.558-2.129-4.69-4.261-4.69Zm67.352 138.254H28.168c-3.41 0-6.395-2.984-6.395-6.398V94.566c0-3.414 2.985-6.402 6.395-6.402h137.258c3.41 0 6.394 2.988 6.394 6.402v63.579c-2.984-.426-6.394-.852-9.379-.852-13.64 0-26.43 5.547-36.234 14.934-4.687 4.695-8.098 10.242-10.656 16.214H39.676c-1.278 0-2.559.856-2.559 2.563 0 1.281 1.281 2.559 2.559 2.559h74.172c-1.707 4.695-2.559 9.816-2.559 14.937 0 2.133 0 4.266.426 6.398h-72.04c-1.277 0-2.558.856-2.558 2.563 0 1.281 1.281 2.559 2.559 2.559h72.89c1.707 7.683 5.543 14.937 10.657 21.335H39.676c-1.278 0-2.559 1.282-2.559 2.563 0 1.277 1.281 2.559 2.559 2.559h88.664c9.379 8.535 21.312 13.23 34.101 13.23 2.985 0 6.395-.43 9.38-.855v1.28c0 3.415-2.985 6.4-6.395 6.4m-37.938-99.851H39.676c-1.278 0-2.559-.852-2.559-2.559 0-1.281 1.281-2.562 2.559-2.562h87.812c1.278 0 2.555 1.28 2.555 2.562 0 1.707-1.277 2.559-2.555 2.559m5.114-24.32c-9.38 0-17.051-7.684-17.051-17.07 0-9.388 7.672-17.071 17.05-17.071 1.282 0 2.56 1.281 2.56 2.562s-1.278 2.559-2.56 2.559c-6.394 0-11.933 5.547-11.933 11.95 0 6.827 5.539 11.948 11.934 11.948 1.28 0 2.558 1.278 2.558 2.559 0 1.707-1.277 2.562-2.558 2.562M75.48 131.261H63.547v8.535c0 1.281-1.277 2.562-2.559 2.562-1.703 0-2.558-1.28-2.558-2.562v-19.203c0-6.828 4.691-11.946 11.086-11.946 5.964 0 11.082 5.118 11.082 11.946v19.203c0 1.281-1.278 2.562-2.559 2.562-1.703 0-2.559-1.28-2.559-2.562Zm-11.933-5.121H75.48v-5.547c0-3.84-2.98-6.828-5.964-6.828-3.41 0-5.97 2.988-5.97 6.828Zm24.723-.426V110.78c0-1.281 1.28-2.562 2.558-2.562h7.246c5.117 0 9.38 4.27 9.38 9.39v1.278c0 2.136-.852 4.27-1.708 5.547 2.559 1.707 4.692 5.12 4.692 8.535 0 5.12-4.266 9.39-9.38 9.39h-10.23c-1.277 0-2.558-.855-2.558-2.562Zm5.117-2.559h4.687c2.133 0 4.262-1.707 4.262-4.27v-1.277c0-2.136-2.129-4.27-4.262-4.27h-4.687Zm0 0"/></g></svg>