<svg xmlns="http://www.w3.org/2000/svg" xmlns:xlink="http://www.w3.org/1999/xlink" width="480" zoomAndPan="magnify" viewBox="0 0 360 359.999987" height="480" preserveAspectRatio="xMidYMid meet" version="1.0"><defs><clipPath id="cc754d50b4"><path d="M 205 128 L 218.25 128 L 218.25 137 L 205 137 Z M 205 128 " clip-rule="nonzero"/></clipPath><clipPath id="824240ad06"><path d="M 107 97.078125 L 147 97.078125 L 147 141 L 107 141 Z M 107 97.078125 " clip-rule="nonzero"/></clipPath><clipPath id="572a211532"><path d="M 107 219 L 147 219 L 147 262.828125 L 107 262.828125 Z M 107 219 " clip-rule="nonzero"/></clipPath></defs><rect x="-36" width="432" fill="#ffffff" y="-35.999999" height="431.999984" fill-opacity="1"/><rect x="-36" width="432" fill="#ffffff" y="-35.999999" height="431.999984" fill-opacity="1"/><path fill="#d9d9d9" d="M -0.113281 -0.195312 L 358.746094 -0.195312 L 358.746094 365.113281 L -0.113281 365.113281 Z M -0.113281 -0.195312 " fill-opacity="1" fill-rule="nonzero"/><path stroke-linecap="butt" transform="matrix(0, -0.75, 0.75, 0, 245.107927, 359.999972)" fill="none" stroke-linejoin="miter" d="M -0.0000378667 2.001931 L 480 2.001931 " stroke="#000000" stroke-width="4" stroke-opacity="1" stroke-miterlimit="4"/><g clip-path="url(#cc754d50b4)"><path fill="#000000" d="M 218.015625 128.976562 C 217.855469 128.667969 217.550781 128.496094 217.234375 128.496094 C 217.089844 128.496094 216.945312 128.53125 216.808594 128.609375 L 206.296875 134.777344 C 205.867188 135.019531 205.707031 135.582031 205.945312 136.03125 C 206.105469 136.335938 206.410156 136.511719 206.722656 136.511719 C 206.867188 136.511719 207.011719 136.472656 207.148438 136.398438 L 217.664062 130.230469 C 218.09375 129.984375 218.25 129.421875 218.015625 128.976562 " fill-opacity="1" fill-rule="nonzero"/></g><g clip-path="url(#824240ad06)"><path fill="#000000" d="M 144.722656 128.378906 L 127.675781 137.6875 L 127.675781 119.15625 L 138.304688 113.351562 L 144.722656 109.847656 Z M 126.769531 117.589844 L 109.796875 108.324219 L 126.769531 99.058594 L 143.742188 108.324219 Z M 146.5 108.089844 C 146.480469 108.019531 146.449219 107.953125 146.417969 107.890625 C 146.414062 107.882812 146.410156 107.878906 146.410156 107.875 C 146.375 107.8125 146.332031 107.757812 146.28125 107.707031 C 146.277344 107.699219 146.273438 107.695312 146.265625 107.691406 C 146.21875 107.640625 146.160156 107.597656 146.101562 107.558594 C 146.09375 107.554688 146.089844 107.550781 146.085938 107.550781 C 146.085938 107.546875 146.082031 107.546875 146.078125 107.546875 C 146.070312 107.542969 146.066406 107.539062 146.058594 107.535156 L 127.203125 97.238281 C 126.933594 97.089844 126.605469 97.089844 126.335938 97.238281 L 107.480469 107.535156 C 107.472656 107.539062 107.46875 107.542969 107.460938 107.546875 C 107.457031 107.546875 107.457031 107.546875 107.453125 107.550781 C 107.449219 107.550781 107.445312 107.554688 107.441406 107.558594 C 107.378906 107.597656 107.324219 107.640625 107.273438 107.691406 C 107.269531 107.695312 107.265625 107.699219 107.261719 107.703125 C 107.210938 107.757812 107.167969 107.8125 107.132812 107.875 C 107.128906 107.878906 107.125 107.882812 107.125 107.890625 C 107.089844 107.953125 107.0625 108.019531 107.042969 108.089844 C 107.039062 108.09375 107.039062 108.097656 107.039062 108.097656 C 107.019531 108.171875 107.011719 108.246094 107.011719 108.324219 L 107.011719 125.753906 L 108.816406 124.71875 L 108.816406 109.847656 L 113.402344 112.351562 L 125.867188 119.15625 L 125.867188 137.6875 L 111.777344 129.996094 L 109.9375 131.046875 L 126.335938 140 C 126.34375 140.003906 126.355469 140.007812 126.363281 140.011719 C 126.398438 140.027344 126.433594 140.039062 126.46875 140.050781 C 126.492188 140.0625 126.515625 140.074219 126.539062 140.082031 C 126.617188 140.101562 126.691406 140.109375 126.769531 140.109375 C 126.847656 140.109375 126.925781 140.101562 127 140.082031 C 127.023438 140.074219 127.046875 140.0625 127.070312 140.050781 C 127.105469 140.039062 127.140625 140.027344 127.175781 140.011719 C 127.1875 140.007812 127.195312 140.003906 127.203125 140 L 146.058594 129.707031 C 146.351562 129.546875 146.53125 129.242188 146.53125 128.914062 L 146.53125 108.324219 C 146.53125 108.246094 146.519531 108.171875 146.5 108.097656 C 146.5 108.097656 146.5 108.09375 146.5 108.089844 " fill-opacity="1" fill-rule="nonzero"/></g><path fill="#000000" d="M 70.203125 129.527344 L 87.175781 138.792969 L 71.808594 147.183594 L 70.203125 148.058594 L 68.917969 147.355469 L 53.230469 138.792969 Z M 88.152344 158.847656 L 71.105469 168.15625 L 71.105469 149.621094 L 86.746094 141.085938 L 88.152344 140.3125 Z M 52.25 140.3125 L 69.296875 149.621094 L 69.296875 168.15625 L 55.191406 160.453125 L 53.355469 161.507812 L 69.769531 170.46875 C 69.777344 170.472656 69.785156 170.476562 69.796875 170.480469 C 69.828125 170.492188 69.867188 170.507812 69.902344 170.519531 C 69.925781 170.527344 69.949219 170.542969 69.972656 170.546875 C 70.046875 170.566406 70.125 170.578125 70.203125 170.578125 C 70.277344 170.578125 70.355469 170.566406 70.429688 170.546875 C 70.457031 170.542969 70.480469 170.527344 70.503906 170.519531 C 70.539062 170.507812 70.574219 170.492188 70.609375 170.480469 C 70.617188 170.476562 70.625 170.472656 70.636719 170.46875 L 89.492188 160.171875 C 89.78125 160.015625 89.960938 159.710938 89.960938 159.382812 L 89.960938 138.792969 C 89.960938 138.714844 89.953125 138.640625 89.933594 138.566406 C 89.929688 138.5625 89.929688 138.5625 89.929688 138.558594 C 89.910156 138.488281 89.882812 138.417969 89.847656 138.355469 C 89.84375 138.351562 89.84375 138.347656 89.839844 138.34375 C 89.804688 138.28125 89.761719 138.222656 89.710938 138.171875 C 89.707031 138.167969 89.703125 138.160156 89.699219 138.15625 C 89.648438 138.109375 89.59375 138.0625 89.53125 138.027344 C 89.527344 138.023438 89.523438 138.019531 89.519531 138.015625 C 89.515625 138.015625 89.511719 138.015625 89.511719 138.011719 C 89.503906 138.007812 89.496094 138.003906 89.492188 138 L 70.636719 127.707031 C 70.367188 127.558594 70.039062 127.558594 69.769531 127.707031 L 50.914062 138 C 50.90625 138.003906 50.898438 138.007812 50.894531 138.011719 C 50.890625 138.015625 50.886719 138.015625 50.886719 138.015625 C 50.878906 138.019531 50.878906 138.023438 50.871094 138.027344 C 50.8125 138.0625 50.753906 138.109375 50.707031 138.15625 C 50.699219 138.160156 50.695312 138.167969 50.691406 138.171875 C 50.640625 138.222656 50.597656 138.28125 50.5625 138.34375 C 50.5625 138.347656 50.558594 138.351562 50.554688 138.355469 C 50.519531 138.417969 50.492188 138.488281 50.472656 138.558594 C 50.472656 138.5625 50.472656 138.5625 50.472656 138.566406 C 50.453125 138.640625 50.441406 138.714844 50.441406 138.792969 L 50.441406 156.207031 L 52.25 155.171875 L 52.25 140.3125 " fill-opacity="1" fill-rule="nonzero"/><path fill="#000000" d="M 70.203125 209.824219 L 53.230469 200.558594 L 70.203125 191.292969 L 87.175781 200.558594 Z M 69.296875 229.921875 L 52.25 220.613281 L 52.25 202.082031 L 57.664062 205.039062 L 69.296875 211.390625 Z M 71.105469 229.921875 L 71.105469 211.390625 L 82.035156 205.421875 L 88.152344 202.082031 L 88.152344 216.183594 L 89.960938 217.21875 L 89.960938 200.558594 C 89.960938 200.484375 89.953125 200.40625 89.933594 200.335938 C 89.929688 200.332031 89.929688 200.328125 89.929688 200.324219 C 89.910156 200.253906 89.882812 200.1875 89.847656 200.125 C 89.84375 200.117188 89.84375 200.113281 89.839844 200.109375 C 89.804688 200.046875 89.761719 199.992188 89.710938 199.941406 C 89.707031 199.9375 89.703125 199.929688 89.699219 199.925781 C 89.648438 199.875 89.59375 199.832031 89.53125 199.792969 C 89.527344 199.792969 89.523438 199.785156 89.519531 199.785156 C 89.515625 199.78125 89.511719 199.78125 89.511719 199.78125 C 89.503906 199.777344 89.496094 199.773438 89.492188 199.769531 L 70.636719 189.472656 C 70.367188 189.328125 70.039062 189.328125 69.769531 189.472656 L 50.914062 199.769531 C 50.90625 199.773438 50.898438 199.777344 50.894531 199.78125 C 50.890625 199.78125 50.886719 199.78125 50.886719 199.785156 C 50.878906 199.785156 50.878906 199.792969 50.871094 199.792969 C 50.8125 199.832031 50.753906 199.875 50.707031 199.925781 C 50.699219 199.929688 50.695312 199.9375 50.691406 199.941406 C 50.640625 199.992188 50.597656 200.046875 50.5625 200.109375 C 50.5625 200.113281 50.558594 200.117188 50.554688 200.125 C 50.519531 200.1875 50.492188 200.253906 50.472656 200.324219 C 50.472656 200.328125 50.472656 200.332031 50.472656 200.335938 C 50.453125 200.40625 50.441406 200.484375 50.441406 200.558594 L 50.441406 221.148438 C 50.441406 221.480469 50.621094 221.78125 50.914062 221.941406 L 69.769531 232.234375 C 69.777344 232.238281 69.785156 232.242188 69.796875 232.246094 C 69.828125 232.261719 69.863281 232.273438 69.898438 232.289062 C 69.925781 232.296875 69.949219 232.308594 69.972656 232.316406 C 70.046875 232.335938 70.125 232.347656 70.203125 232.347656 C 70.277344 232.347656 70.355469 232.335938 70.429688 232.316406 C 70.457031 232.308594 70.480469 232.296875 70.503906 232.289062 C 70.539062 232.273438 70.574219 232.261719 70.609375 232.246094 C 70.617188 232.242188 70.625 232.238281 70.636719 232.234375 L 87.722656 222.90625 L 85.886719 221.851562 L 71.105469 229.921875 " fill-opacity="1" fill-rule="nonzero"/><path fill="#000000" d="M 144.722656 189.316406 L 127.675781 198.621094 L 127.675781 180.089844 L 138.828125 174 L 144.722656 170.78125 Z M 146.5 169.023438 C 146.480469 168.957031 146.449219 168.886719 146.417969 168.824219 C 146.414062 168.820312 146.410156 168.816406 146.410156 168.808594 C 146.371094 168.75 146.332031 168.691406 146.28125 168.640625 C 146.277344 168.636719 146.273438 168.628906 146.265625 168.625 C 146.21875 168.574219 146.160156 168.53125 146.101562 168.492188 C 146.09375 168.492188 146.089844 168.488281 146.085938 168.484375 C 146.085938 168.484375 146.082031 168.484375 146.078125 168.480469 C 146.070312 168.476562 146.066406 168.472656 146.058594 168.46875 L 130.074219 159.742188 L 130.0625 161.792969 L 143.742188 169.261719 L 126.769531 178.527344 L 109.796875 169.261719 L 124.007812 161.503906 L 124.019531 159.441406 L 107.480469 168.46875 C 107.472656 168.472656 107.46875 168.476562 107.460938 168.480469 C 107.457031 168.484375 107.457031 168.484375 107.453125 168.484375 C 107.449219 168.488281 107.445312 168.492188 107.441406 168.492188 C 107.378906 168.53125 107.324219 168.574219 107.273438 168.625 C 107.269531 168.628906 107.265625 168.636719 107.261719 168.640625 C 107.210938 168.691406 107.167969 168.75 107.132812 168.808594 C 107.128906 168.816406 107.125 168.820312 107.125 168.824219 C 107.089844 168.886719 107.0625 168.957031 107.042969 169.023438 C 107.039062 169.027344 107.039062 169.03125 107.039062 169.035156 C 107.019531 169.109375 107.011719 169.183594 107.011719 169.261719 L 107.011719 186.625 L 108.816406 185.585938 L 108.816406 170.78125 L 113.671875 173.433594 L 125.867188 180.089844 L 125.867188 198.621094 L 111.714844 190.898438 L 109.878906 191.949219 L 126.335938 200.9375 C 126.34375 200.941406 126.355469 200.941406 126.363281 200.945312 C 126.398438 200.960938 126.433594 200.972656 126.46875 200.988281 C 126.492188 200.996094 126.515625 201.007812 126.539062 201.015625 C 126.617188 201.035156 126.691406 201.046875 126.769531 201.046875 C 126.847656 201.046875 126.925781 201.035156 127 201.015625 C 127.023438 201.007812 127.046875 200.996094 127.070312 200.988281 C 127.105469 200.972656 127.140625 200.960938 127.175781 200.945312 C 127.1875 200.941406 127.195312 200.941406 127.203125 200.9375 L 146.058594 190.640625 C 146.351562 190.484375 146.53125 190.179688 146.53125 189.847656 L 146.53125 169.261719 C 146.53125 169.183594 146.519531 169.109375 146.5 169.035156 C 146.5 169.03125 146.5 169.027344 146.5 169.023438 " fill-opacity="1" fill-rule="nonzero"/><g clip-path="url(#572a211532)"><path fill="#000000" d="M 144.722656 251.082031 L 127.675781 260.390625 L 127.675781 241.855469 L 138.472656 235.960938 L 144.722656 232.550781 Z M 126.769531 240.292969 L 109.796875 231.027344 L 126.769531 221.761719 L 143.742188 231.027344 Z M 125.867188 260.390625 L 108.816406 251.082031 L 108.816406 232.550781 L 113.1875 234.9375 L 125.867188 241.855469 Z M 146.5 230.792969 C 146.480469 230.722656 146.449219 230.65625 146.417969 230.589844 C 146.414062 230.585938 146.410156 230.582031 146.410156 230.578125 C 146.371094 230.515625 146.332031 230.460938 146.28125 230.40625 C 146.277344 230.402344 146.273438 230.398438 146.265625 230.394531 C 146.21875 230.34375 146.160156 230.300781 146.101562 230.261719 C 146.09375 230.257812 146.089844 230.253906 146.085938 230.25 C 146.085938 230.25 146.082031 230.25 146.078125 230.25 C 146.070312 230.246094 146.066406 230.242188 146.058594 230.238281 L 127.203125 219.941406 C 126.933594 219.792969 126.605469 219.792969 126.335938 219.941406 L 107.480469 230.238281 C 107.472656 230.242188 107.46875 230.246094 107.460938 230.25 C 107.457031 230.25 107.457031 230.25 107.453125 230.25 C 107.449219 230.253906 107.445312 230.257812 107.441406 230.261719 C 107.378906 230.300781 107.324219 230.34375 107.273438 230.394531 C 107.269531 230.398438 107.265625 230.402344 107.261719 230.40625 C 107.210938 230.460938 107.167969 230.515625 107.132812 230.578125 C 107.128906 230.582031 107.125 230.585938 107.125 230.589844 C 107.089844 230.65625 107.0625 230.722656 107.042969 230.792969 C 107.039062 230.796875 107.039062 230.796875 107.039062 230.800781 C 107.019531 230.875 107.011719 230.949219 107.011719 231.027344 L 107.011719 251.617188 C 107.011719 251.945312 107.191406 252.25 107.480469 252.410156 L 126.335938 262.703125 C 126.34375 262.707031 126.355469 262.710938 126.363281 262.714844 C 126.398438 262.730469 126.433594 262.742188 126.46875 262.753906 C 126.492188 262.765625 126.515625 262.777344 126.539062 262.78125 C 126.617188 262.800781 126.691406 262.8125 126.769531 262.8125 C 126.847656 262.8125 126.925781 262.800781 127 262.78125 C 127.023438 262.777344 127.046875 262.765625 127.070312 262.753906 C 127.105469 262.742188 127.140625 262.730469 127.175781 262.714844 C 127.1875 262.710938 127.195312 262.707031 127.203125 262.703125 L 146.058594 252.410156 C 146.351562 252.25 146.53125 251.945312 146.53125 251.617188 L 146.53125 231.027344 C 146.53125 230.949219 146.519531 230.875 146.5 230.800781 C 146.5 230.800781 146.5 230.796875 146.5 230.792969 " fill-opacity="1" fill-rule="nonzero"/></g><path fill="#000000" d="M 201.292969 158.847656 L 184.242188 168.15625 L 184.242188 149.621094 L 195.039062 143.726562 L 201.292969 140.3125 Z M 183.339844 148.058594 L 181.582031 147.101562 L 166.367188 138.792969 L 183.339844 129.527344 L 200.3125 138.792969 L 188.726562 145.117188 Z M 182.433594 168.15625 L 165.386719 158.847656 L 165.386719 140.3125 L 170.667969 143.199219 L 182.433594 149.621094 Z M 203.066406 138.558594 C 203.046875 138.488281 203.019531 138.417969 202.984375 138.355469 C 202.980469 138.351562 202.980469 138.347656 202.976562 138.34375 C 202.941406 138.28125 202.898438 138.222656 202.847656 138.171875 C 202.84375 138.167969 202.839844 138.160156 202.835938 138.15625 C 202.785156 138.109375 202.730469 138.0625 202.667969 138.027344 C 202.664062 138.023438 202.660156 138.019531 202.65625 138.015625 C 202.652344 138.015625 202.648438 138.015625 202.648438 138.011719 C 202.640625 138.007812 202.636719 138.003906 202.628906 138 L 183.773438 127.707031 C 183.503906 127.558594 183.175781 127.558594 182.90625 127.707031 L 164.046875 138 C 164.042969 138.003906 164.035156 138.007812 164.03125 138.011719 C 164.027344 138.015625 164.023438 138.015625 164.019531 138.015625 C 164.015625 138.019531 164.015625 138.023438 164.007812 138.027344 C 163.949219 138.0625 163.890625 138.109375 163.84375 138.15625 C 163.835938 138.160156 163.832031 138.167969 163.828125 138.171875 C 163.777344 138.222656 163.734375 138.28125 163.699219 138.34375 C 163.699219 138.347656 163.695312 138.351562 163.691406 138.355469 C 163.65625 138.417969 163.628906 138.488281 163.609375 138.558594 C 163.609375 138.5625 163.609375 138.5625 163.609375 138.566406 C 163.589844 138.640625 163.578125 138.714844 163.578125 138.792969 L 163.578125 159.382812 C 163.578125 159.710938 163.757812 160.015625 164.046875 160.171875 L 182.90625 170.46875 C 182.914062 170.472656 182.921875 170.476562 182.933594 170.480469 C 182.96875 170.492188 183.003906 170.507812 183.035156 170.519531 C 183.0625 170.527344 183.085938 170.542969 183.109375 170.546875 C 183.183594 170.566406 183.261719 170.578125 183.339844 170.578125 C 183.414062 170.578125 183.492188 170.566406 183.566406 170.546875 C 183.59375 170.542969 183.617188 170.527344 183.640625 170.519531 C 183.675781 170.507812 183.710938 170.492188 183.746094 170.480469 C 183.753906 170.476562 183.761719 170.472656 183.773438 170.46875 L 202.628906 160.171875 C 202.917969 160.015625 203.097656 159.710938 203.097656 159.382812 L 203.097656 138.792969 C 203.097656 138.714844 203.085938 138.640625 203.070312 138.566406 C 203.066406 138.5625 203.066406 138.5625 203.066406 138.558594 " fill-opacity="1" fill-rule="nonzero"/><path fill="#000000" d="M 201.292969 220.613281 L 184.242188 229.921875 L 184.242188 211.390625 L 192.824219 206.703125 L 201.292969 202.082031 Z M 203.066406 200.324219 C 203.046875 200.253906 203.019531 200.1875 202.984375 200.125 C 202.980469 200.117188 202.980469 200.113281 202.976562 200.109375 C 202.941406 200.046875 202.898438 199.992188 202.847656 199.941406 C 202.84375 199.9375 202.839844 199.929688 202.835938 199.925781 C 202.785156 199.875 202.730469 199.832031 202.667969 199.792969 C 202.664062 199.792969 202.660156 199.785156 202.65625 199.785156 C 202.652344 199.78125 202.648438 199.78125 202.648438 199.78125 C 202.640625 199.777344 202.636719 199.773438 202.628906 199.769531 L 186.351562 190.882812 L 186.339844 192.933594 L 200.3125 200.558594 L 183.339844 209.824219 L 166.367188 200.558594 L 180.285156 192.960938 L 180.292969 190.898438 L 164.046875 199.769531 C 164.042969 199.773438 164.035156 199.777344 164.03125 199.78125 C 164.027344 199.78125 164.023438 199.78125 164.019531 199.785156 C 164.015625 199.785156 164.015625 199.792969 164.007812 199.792969 C 163.949219 199.832031 163.890625 199.875 163.84375 199.925781 C 163.835938 199.929688 163.832031 199.9375 163.828125 199.941406 C 163.777344 199.992188 163.734375 200.046875 163.699219 200.109375 C 163.699219 200.113281 163.695312 200.117188 163.691406 200.125 C 163.65625 200.1875 163.628906 200.253906 163.609375 200.324219 C 163.609375 200.328125 163.609375 200.332031 163.609375 200.335938 C 163.589844 200.40625 163.578125 200.484375 163.578125 200.558594 L 163.578125 217.21875 L 165.386719 216.183594 L 165.386719 202.082031 L 173.519531 206.523438 L 182.433594 211.390625 L 182.433594 229.921875 L 167.65625 221.851562 L 165.816406 222.90625 L 182.90625 232.234375 C 182.914062 232.238281 182.921875 232.242188 182.933594 232.246094 C 182.964844 232.261719 183 232.273438 183.035156 232.289062 C 183.0625 232.296875 183.085938 232.308594 183.109375 232.316406 C 183.183594 232.335938 183.261719 232.347656 183.339844 232.347656 C 183.414062 232.347656 183.492188 232.335938 183.566406 232.316406 C 183.59375 232.308594 183.617188 232.296875 183.640625 232.289062 C 183.675781 232.273438 183.710938 232.261719 183.746094 232.246094 C 183.753906 232.242188 183.761719 232.238281 183.773438 232.234375 L 202.628906 221.941406 C 202.917969 221.78125 203.097656 221.480469 203.097656 221.148438 L 203.097656 200.558594 C 203.097656 200.484375 203.089844 200.40625 203.070312 200.335938 C 203.070312 200.332031 203.066406 200.328125 203.066406 200.324219 " fill-opacity="1" fill-rule="nonzero"/><path fill="#000000" d="M 183.230469 201.976562 C 183.242188 201.976562 183.253906 201.976562 183.265625 201.976562 C 183.839844 201.957031 184.308594 201.488281 184.308594 200.925781 L 184.359375 191.851562 L 184.367188 189.800781 L 184.449219 174.542969 C 184.449219 173.996094 184.003906 173.5625 183.445312 173.5625 C 183.433594 173.5625 183.421875 173.5625 183.410156 173.5625 C 182.835938 173.582031 182.367188 174.050781 182.367188 174.613281 L 182.285156 189.8125 L 182.277344 191.875 L 182.226562 200.992188 C 182.226562 201.167969 182.273438 201.335938 182.351562 201.476562 C 182.523438 201.777344 182.851562 201.976562 183.230469 201.976562 " fill-opacity="1" fill-rule="nonzero"/><path fill="#000000" d="M 126.945312 172.269531 C 126.957031 172.269531 126.96875 172.269531 126.980469 172.269531 C 127.558594 172.253906 128.023438 171.78125 128.027344 171.21875 L 128.082031 160.710938 L 128.09375 158.660156 L 128.164062 144.839844 C 128.167969 144.289062 127.71875 143.855469 127.160156 143.855469 C 127.148438 143.855469 127.136719 143.855469 127.125 143.855469 C 126.550781 143.875 126.082031 144.347656 126.082031 144.90625 L 126.011719 158.351562 L 126 160.414062 L 125.941406 171.289062 C 125.941406 171.464844 125.988281 171.628906 126.070312 171.769531 C 126.238281 172.070312 126.566406 172.269531 126.945312 172.269531 " fill-opacity="1" fill-rule="nonzero"/><path fill="#000000" d="M 92.820312 138.417969 C 92.984375 138.417969 93.148438 138.378906 93.300781 138.289062 L 107.894531 129.929688 L 109.730469 128.878906 L 116.226562 125.15625 C 116.71875 124.878906 116.894531 124.242188 116.628906 123.734375 C 116.445312 123.382812 116.101562 123.1875 115.742188 123.1875 C 115.578125 123.1875 115.414062 123.226562 115.257812 123.316406 L 108.816406 127.007812 L 107.011719 128.042969 L 92.335938 136.449219 C 91.84375 136.726562 91.664062 137.363281 91.933594 137.875 C 92.117188 138.222656 92.464844 138.417969 92.820312 138.417969 " fill-opacity="1" fill-rule="nonzero"/><path fill="#000000" d="M 53.148438 159.339844 L 60.5625 155.089844 C 61.050781 154.8125 61.230469 154.175781 60.964844 153.664062 C 60.78125 153.316406 60.4375 153.121094 60.078125 153.121094 C 59.914062 153.121094 59.75 153.160156 59.59375 153.25 L 52.25 157.457031 L 50.441406 158.492188 L 36.671875 166.382812 C 36.179688 166.660156 36 167.296875 36.269531 167.808594 C 36.453125 168.15625 36.796875 168.351562 37.15625 168.351562 C 37.320312 168.351562 37.484375 168.3125 37.636719 168.222656 L 51.3125 160.390625 L 53.148438 159.339844 " fill-opacity="1" fill-rule="nonzero"/><path fill="#000000" d="M 92.785156 198.253906 C 92.96875 198.601562 93.3125 198.800781 93.671875 198.800781 C 93.835938 198.800781 94 198.757812 94.15625 198.671875 L 107.835938 190.835938 L 109.671875 189.78125 L 117.078125 185.539062 C 117.566406 185.257812 117.746094 184.621094 117.480469 184.113281 C 117.296875 183.765625 116.949219 183.566406 116.59375 183.566406 C 116.429688 183.566406 116.265625 183.609375 116.113281 183.695312 L 108.816406 187.875 L 107.011719 188.910156 L 93.1875 196.828125 C 92.695312 197.109375 92.519531 197.746094 92.785156 198.253906 " fill-opacity="1" fill-rule="nonzero"/><path fill="#000000" d="M 103.757812 227.40625 L 89.960938 219.503906 L 88.152344 218.46875 L 80.832031 214.273438 C 80.675781 214.1875 80.511719 214.144531 80.347656 214.144531 C 79.992188 214.144531 79.644531 214.34375 79.460938 214.691406 C 79.195312 215.199219 79.375 215.835938 79.863281 216.117188 L 87.929688 220.738281 L 89.71875 221.761719 L 102.789062 229.25 C 102.941406 229.335938 103.105469 229.378906 103.269531 229.378906 C 103.628906 229.378906 103.972656 229.179688 104.15625 228.832031 C 104.425781 228.324219 104.246094 227.683594 103.757812 227.40625 " fill-opacity="1" fill-rule="nonzero"/><path fill="#000000" d="M 174.078125 214.691406 C 173.894531 214.34375 173.550781 214.144531 173.191406 214.144531 C 173.027344 214.144531 172.863281 214.1875 172.710938 214.273438 L 165.386719 218.46875 L 163.578125 219.503906 L 149.785156 227.40625 C 149.296875 227.683594 149.117188 228.324219 149.382812 228.832031 C 149.566406 229.179688 149.914062 229.378906 150.269531 229.378906 C 150.433594 229.378906 150.597656 229.335938 150.753906 229.25 L 163.820312 221.761719 L 165.609375 220.738281 L 173.679688 216.117188 C 174.167969 215.835938 174.34375 215.199219 174.078125 214.691406 " fill-opacity="1" fill-rule="nonzero"/></svg>