<svg xmlns="http://www.w3.org/2000/svg" xmlns:xlink="http://www.w3.org/1999/xlink" width="480" zoomAndPan="magnify" viewBox="0 0 360 359.999987" height="480" preserveAspectRatio="xMidYMid meet" version="1.0"><defs><clipPath id="8266614681"><path d="M 24.105469 117.210938 L 219 117.210938 L 219 248.460938 L 24.105469 248.460938 Z M 24.105469 117.210938 " clip-rule="nonzero"/></clipPath><clipPath id="9487dac9fc"><path d="M 24.105469 117.210938 L 219 117.210938 L 219 248.460938 L 24.105469 248.460938 Z M 24.105469 117.210938 " clip-rule="nonzero"/></clipPath></defs><rect x="-36" width="432" fill="#ffffff" y="-35.999999" height="431.999984" fill-opacity="1"/><rect x="-36" width="432" fill="#ffffff" y="-35.999999" height="431.999984" fill-opacity="1"/><path fill="#a6a6a6" d="M -0.113281 -0.195312 L 358.746094 -0.195312 L 358.746094 365.113281 L -0.113281 365.113281 Z M -0.113281 -0.195312 " fill-opacity="1" fill-rule="nonzero"/><path stroke-linecap="butt" transform="matrix(0, -0.75, 0.75, 0, 245.107927, 359.999972)" fill="none" stroke-linejoin="miter" d="M -0.0000378667 2.001931 L 480 2.001931 " stroke="#000000" stroke-width="4" stroke-opacity="1" stroke-miterlimit="4"/><g clip-path="url(#8266614681)"><path fill="#ffffff" d="M 166.023438 244.636719 L 132.441406 244.636719 C 132.617188 244.578125 132.777344 244.46875 132.886719 244.3125 C 133.054688 244.074219 133.097656 243.765625 133.003906 243.488281 L 130.445312 236.070312 L 141.011719 236.070312 C 141.636719 236.070312 142.203125 235.679688 142.421875 235.097656 L 153.398438 206.183594 C 153.574219 205.71875 153.511719 205.195312 153.230469 204.785156 C 152.949219 204.375 152.484375 204.132812 151.988281 204.132812 L 104.175781 204.132812 C 103.609375 204.132812 103.097656 204.488281 102.894531 205.015625 L 92.578125 232.203125 C 92.527344 232.203125 92.476562 232.195312 92.425781 232.199219 L 85.582031 226.980469 C 85.226562 225.488281 81.738281 211.105469 77.785156 206.394531 C 74.003906 201.890625 69.449219 200.988281 68.578125 200.851562 L 66.125 197.097656 L 66.125 196.335938 C 67.132812 195.929688 68.03125 195.285156 68.742188 194.4375 C 69.214844 193.875 69.527344 193.28125 69.738281 192.675781 C 71.410156 191.9375 72.582031 190.265625 72.582031 188.316406 C 72.582031 186.496094 71.558594 184.914062 70.058594 184.113281 C 70.105469 183.859375 70.160156 183.597656 70.214844 183.328125 C 70.414062 182.359375 70.636719 181.261719 70.78125 180.128906 C 70.871094 179.445312 71.046875 177.101562 69.664062 175.664062 C 69.511719 175.5 69.335938 175.351562 69.15625 175.203125 C 68.222656 173.234375 66.785156 171.871094 62.882812 171.628906 C 61.230469 171.527344 59.277344 171.625 57.5625 172.296875 C 57 172.292969 53.507812 172.40625 51.96875 175.546875 C 50.558594 178.429688 51.265625 182.664062 51.488281 183.789062 C 49.582031 184.410156 48.199219 186.203125 48.199219 188.316406 C 48.199219 190.945312 50.332031 193.082031 52.957031 193.082031 C 53.667969 193.082031 54.34375 192.917969 54.953125 192.636719 L 54.953125 195.714844 L 51.839844 199.480469 C 50.957031 199.777344 44.015625 202.226562 40.9375 206.796875 C 37.714844 211.585938 35.042969 226.195312 34.816406 233.707031 C 34.707031 237.332031 35.59375 240.140625 37.445312 242.054688 C 38.714844 243.367188 40.417969 244.222656 42.515625 244.636719 L 25.964844 244.636719 C 24.9375 244.636719 24.105469 245.46875 24.105469 246.5 C 24.105469 247.527344 24.9375 248.359375 25.964844 248.359375 L 166.023438 248.359375 C 167.050781 248.359375 167.882812 247.527344 167.882812 246.5 C 167.882812 245.472656 167.050781 244.636719 166.023438 244.636719 Z M 76.699219 242.367188 L 76.691406 242.214844 C 76.71875 242.167969 76.738281 242.113281 76.738281 242.054688 L 76.417969 235.851562 C 76.808594 236.492188 77.394531 237.296875 78.226562 238.097656 C 79.816406 239.628906 82.636719 241.394531 87.082031 241.289062 C 87.214844 241.574219 87.359375 241.808594 87.507812 241.949219 C 87.730469 242.160156 87.996094 242.296875 88.277344 242.367188 Z M 89.050781 242.367188 C 89.085938 242.355469 89.121094 242.351562 89.15625 242.339844 C 89.433594 242.242188 89.65625 242.058594 89.8125 241.824219 C 90.015625 242.085938 90.269531 242.273438 90.550781 242.367188 Z M 119.601562 242.351562 C 119.597656 242.359375 119.589844 242.359375 119.585938 242.367188 L 91.304688 242.367188 C 91.597656 242.269531 91.867188 242.058594 92.070312 241.738281 C 92.128906 241.648438 92.183594 241.550781 92.230469 241.445312 C 92.484375 241.761719 92.816406 241.96875 93.183594 242.015625 C 93.234375 242.023438 93.285156 242.023438 93.332031 242.023438 C 93.773438 242.023438 94.179688 241.777344 94.46875 241.332031 C 94.949219 240.585938 95.105469 239.3125 94.953125 237.328125 C 94.945312 237.191406 94.929688 237.058594 94.914062 236.929688 C 95.09375 237.183594 95.285156 237.519531 95.460938 237.957031 C 95.578125 238.238281 95.660156 238.523438 95.738281 238.800781 C 95.890625 239.34375 96.035156 239.855469 96.40625 240.292969 C 96.65625 240.589844 97.226562 240.84375 97.789062 240.726562 C 98.246094 240.632812 98.574219 240.308594 98.722656 239.8125 C 98.992188 238.898438 99.019531 237.496094 98.421875 236.070312 L 117.539062 236.070312 L 119.632812 242.136719 C 119.65625 242.210938 119.648438 242.289062 119.601562 242.351562 Z M 138.808594 178.851562 L 135.175781 180.691406 C 134.976562 180.683594 134.78125 180.675781 134.574219 180.667969 L 133.867188 180.636719 C 133.027344 180.601562 132.226562 180.75 131.492188 181.054688 L 123.597656 158.34375 C 123.378906 157.710938 122.78125 157.285156 122.109375 157.285156 L 80.273438 157.285156 C 79.882812 157.285156 79.53125 157.46875 79.304688 157.785156 C 79.082031 158.101562 79.023438 158.496094 79.152344 158.867188 L 90.285156 190.898438 C 90.539062 191.625 91.226562 192.117188 91.992188 192.117188 L 164.828125 192.117188 C 164.875 192.117188 164.917969 192.105469 164.960938 192.101562 C 166.417969 192.109375 167.878906 192.113281 169.308594 192.113281 C 173.890625 192.113281 178.089844 192.066406 180.363281 191.917969 C 180.449219 191.914062 180.535156 191.90625 180.621094 191.894531 L 180.792969 191.878906 C 180.875 191.875 180.949219 191.832031 181 191.769531 C 181.050781 191.707031 181.074219 191.625 181.0625 191.542969 L 180.796875 189.597656 C 186.445312 189.132812 189.867188 187.792969 190.679688 184.0625 C 190.785156 183.578125 190.859375 183.070312 190.917969 182.554688 C 198.113281 175.953125 202.636719 166.472656 202.636719 155.949219 C 202.636719 137.917969 189.371094 122.9375 172.105469 120.28125 C 172.097656 120.269531 172.089844 120.253906 172.078125 120.238281 C 170.996094 118.769531 169.199219 117.914062 166.730469 117.699219 C 162.109375 117.292969 156.183594 119.3125 154.609375 120.820312 C 154.167969 121.238281 153.835938 121.746094 153.613281 122.308594 C 140.164062 127.542969 130.601562 140.644531 130.601562 155.949219 C 130.601562 164.636719 133.683594 172.617188 138.808594 178.851562 Z M 141.238281 188.257812 C 141.40625 188.265625 141.570312 188.257812 141.726562 188.214844 C 141.746094 188.210938 141.761719 188.199219 141.78125 188.195312 C 143.441406 187.976562 144.929688 187.570312 146.167969 187.046875 C 146.53125 187.371094 147.054688 187.441406 147.433594 187.324219 C 147.644531 187.257812 147.882812 187.105469 148.140625 186.90625 C 148.507812 187.125 148.878906 187.339844 149.253906 187.546875 C 149.273438 187.628906 149.292969 187.707031 149.316406 187.777344 L 149.261719 189.015625 L 138.195312 189.015625 C 138.320312 188.84375 138.4375 188.617188 138.546875 188.351562 C 138.765625 188.359375 138.984375 188.367188 139.203125 188.367188 C 139.902344 188.367188 140.582031 188.324219 141.238281 188.257812 Z M 210.875 177.710938 L 216.121094 175.949219 C 216.242188 175.90625 216.324219 175.792969 216.324219 175.667969 C 216.324219 175.539062 216.246094 175.425781 216.125 175.382812 L 203.789062 171.105469 C 203.683594 171.066406 203.5625 171.097656 203.484375 171.175781 C 203.402344 171.257812 203.375 171.375 203.410156 171.484375 L 207.683594 183.839844 C 207.722656 183.960938 207.835938 184.042969 207.960938 184.042969 C 207.960938 184.042969 207.960938 184.042969 207.964844 184.042969 C 208.089844 184.042969 208.203125 183.960938 208.242188 183.84375 L 210.277344 178.070312 C 211.6875 178.785156 214.535156 180.5 216.332031 183.371094 C 218.203125 186.363281 218.382812 189.671875 216.863281 193.207031 C 214.949219 197.65625 209.683594 200.472656 204.335938 200.171875 C 203.667969 197.621094 202.65625 195.457031 201.332031 193.714844 C 200.796875 193.015625 199.949219 192.039062 198.769531 191.632812 C 197.71875 191.273438 196.285156 191.460938 195.585938 192.523438 C 194.972656 193.449219 195.199219 194.605469 195.386719 195.210938 C 196.339844 198.253906 199.539062 199.933594 202.21875 200.492188 C 202.765625 200.605469 203.316406 200.683594 203.867188 200.734375 C 203.992188 201.242188 204.101562 201.761719 204.199219 202.300781 C 204.3125 202.90625 204.398438 203.519531 204.46875 204.132812 L 180.179688 204.132812 C 179.019531 204.132812 178.074219 205.078125 178.074219 206.242188 L 178.074219 225.636719 C 178.074219 225.859375 178.121094 226.074219 178.1875 226.277344 L 178.179688 226.28125 C 178.054688 226.390625 178.039062 226.578125 178.144531 226.703125 C 178.203125 226.773438 178.289062 226.808594 178.371094 226.808594 C 178.390625 226.808594 178.410156 226.800781 178.429688 226.800781 C 178.804688 227.367188 179.449219 227.742188 180.179688 227.742188 L 196.132812 227.742188 C 193.933594 229.269531 190.652344 231.027344 188.046875 232.234375 C 180.351562 235.800781 161.820312 236.675781 150.296875 229.9375 C 150.152344 229.851562 149.972656 229.902344 149.890625 230.042969 C 149.804688 230.183594 149.855469 230.367188 149.996094 230.449219 C 156.246094 234.105469 164.53125 235.550781 172.082031 235.550781 C 178.652344 235.550781 184.664062 234.457031 188.296875 232.773438 C 191.203125 231.429688 194.945312 229.398438 197.152344 227.742188 L 211.875 227.742188 C 212.605469 227.742188 213.25 227.367188 213.628906 226.800781 C 213.644531 226.800781 213.664062 226.808594 213.683594 226.808594 C 213.765625 226.808594 213.851562 226.773438 213.910156 226.703125 C 214.015625 226.578125 214 226.390625 213.875 226.28125 L 213.867188 226.277344 C 213.933594 226.074219 213.980469 225.859375 213.980469 225.636719 L 213.980469 206.242188 C 213.980469 205.078125 213.035156 204.132812 211.875 204.132812 L 205.070312 204.132812 C 204.996094 203.484375 204.902344 202.835938 204.785156 202.191406 C 204.699219 201.707031 204.597656 201.234375 204.488281 200.773438 C 210.023438 201.019531 215.421875 198.0625 217.410156 193.445312 C 220.59375 186.039062 216.011719 180.4375 210.875 177.710938 Z M 202.339844 199.90625 C 199.828125 199.382812 196.832031 197.828125 195.957031 195.03125 C 195.800781 194.527344 195.605469 193.574219 196.082031 192.855469 C 196.449219 192.300781 197.113281 192.0625 197.757812 192.0625 C 198.046875 192.0625 198.328125 192.109375 198.578125 192.195312 C 199.359375 192.464844 200.085938 193.0625 200.859375 194.078125 C 202.101562 195.710938 203.058594 197.734375 203.710938 200.117188 C 203.253906 200.070312 202.792969 200 202.339844 199.90625 Z M 58.683594 167.5625 C 58.734375 167.664062 58.835938 167.730469 58.949219 167.730469 C 59.066406 167.730469 59.167969 167.664062 59.21875 167.5625 L 64.917969 155.796875 C 64.976562 155.683594 64.953125 155.546875 64.863281 155.457031 C 64.773438 155.367188 64.636719 155.34375 64.523438 155.398438 L 58.988281 158.050781 C 57.40625 154.402344 57.179688 149.097656 59.589844 146.621094 C 61.285156 144.882812 64.261719 144.328125 67 145.242188 C 67.710938 145.476562 68.382812 145.792969 69.015625 146.160156 C 68.597656 148.527344 69.667969 151.507812 72.1875 152.40625 C 73.085938 152.730469 74.25 152.613281 74.644531 151.761719 C 75.082031 150.820312 74.195312 149.851562 73.902344 149.53125 C 72.792969 148.320312 71.394531 146.929688 69.683594 145.863281 C 70.21875 143.625 71.835938 141.734375 73.207031 140.320312 C 74.976562 138.496094 76.933594 136.839844 79.035156 135.375 L 79.035156 144.652344 C 79.035156 144.878906 79.082031 145.09375 79.148438 145.296875 L 79.140625 145.300781 C 79.015625 145.40625 79 145.59375 79.105469 145.71875 C 79.164062 145.789062 79.25 145.828125 79.332031 145.828125 C 79.351562 145.828125 79.371094 145.820312 79.390625 145.816406 C 79.765625 146.382812 80.410156 146.761719 81.140625 146.761719 L 112.835938 146.761719 C 113.566406 146.761719 114.210938 146.382812 114.585938 145.816406 C 114.605469 145.820312 114.625 145.828125 114.640625 145.828125 C 114.726562 145.828125 114.8125 145.789062 114.871094 145.71875 C 114.976562 145.59375 114.960938 145.40625 114.835938 145.300781 L 114.828125 145.296875 C 114.894531 145.09375 114.941406 144.878906 114.941406 144.652344 L 114.941406 129.695312 C 115.933594 129.996094 116.917969 130.332031 117.882812 130.707031 C 121.269531 132.015625 128.347656 136.121094 130.679688 138.707031 C 130.789062 138.828125 130.976562 138.835938 131.101562 138.726562 C 131.222656 138.617188 131.230469 138.429688 131.121094 138.304688 C 128.738281 135.664062 121.535156 131.480469 118.097656 130.148438 C 117.0625 129.75 116.007812 129.394531 114.941406 129.078125 L 114.941406 125.257812 C 114.941406 124.097656 113.996094 123.148438 112.835938 123.148438 L 81.140625 123.148438 C 79.980469 123.148438 79.035156 124.097656 79.035156 125.257812 L 79.035156 134.65625 C 76.773438 136.199219 74.667969 137.957031 72.78125 139.902344 C 71.390625 141.339844 69.757812 143.25 69.152344 145.550781 C 68.535156 145.207031 67.878906 144.90625 67.1875 144.675781 C 64.238281 143.691406 61.015625 144.304688 59.164062 146.203125 C 56.648438 148.789062 56.730469 153.960938 58.246094 157.828125 L 53.382812 155.402344 C 53.269531 155.34375 53.128906 155.367188 53.039062 155.457031 C 52.949219 155.546875 52.925781 155.683594 52.980469 155.796875 Z M 69.566406 146.496094 C 71.128906 147.507812 72.425781 148.800781 73.464844 149.933594 C 74.078125 150.605469 74.289062 151.121094 74.105469 151.511719 C 73.871094 152.015625 73.03125 152.078125 72.386719 151.847656 C 70.246094 151.082031 69.296875 148.578125 69.566406 146.496094 Z M 69.566406 146.496094 " fill-opacity="1" fill-rule="nonzero"/></g><path fill="#d8d0c5" d="M 69.824219 244.492188 L 69.847656 244.636719 C 69.503906 244.636719 69.148438 244.636719 68.785156 244.636719 C 64.625 244.636719 59.421875 244.636719 54.832031 244.636719 C 54.832031 244.601562 54.867188 242.117188 57.050781 240.523438 C 57.074219 240.542969 57.097656 240.566406 57.128906 240.578125 C 57.289062 240.652344 57.449219 240.75 57.609375 240.855469 C 58.4375 241.414062 59.210938 242.355469 59.75 243.015625 C 59.898438 243.195312 60.027344 243.355469 60.136719 243.476562 C 60.457031 243.839844 60.90625 244.046875 61.378906 244.046875 C 61.394531 244.046875 61.40625 244.046875 61.421875 244.046875 C 61.816406 244.039062 62.167969 243.882812 62.363281 243.636719 C 62.371094 243.621094 62.375 243.609375 62.382812 243.597656 C 62.648438 243.800781 62.996094 243.917969 63.367188 243.917969 C 63.410156 243.917969 63.453125 243.917969 63.492188 243.914062 C 63.90625 243.886719 64.265625 243.714844 64.476562 243.449219 C 64.476562 243.445312 64.476562 243.445312 64.476562 243.445312 C 64.738281 243.636719 65.042969 243.75 65.347656 243.75 C 65.417969 243.75 65.488281 243.742188 65.554688 243.730469 C 65.992188 243.65625 66.335938 243.351562 66.496094 242.890625 C 66.683594 242.363281 66.679688 241.503906 66.246094 240.519531 C 66.140625 240.289062 66.019531 240.050781 65.863281 239.804688 C 65.847656 239.777344 65.828125 239.753906 65.8125 239.726562 C 67.308594 240.214844 68.230469 240.992188 68.804688 241.800781 C 68.957031 242.011719 69.082031 242.222656 69.1875 242.433594 C 69.558594 243.152344 69.707031 243.84375 69.796875 244.339844 C 69.804688 244.394531 69.8125 244.445312 69.824219 244.492188 Z M 90.550781 242.367188 L 76.457031 242.367188 C 76.457031 242.367188 76.457031 242.367188 76.453125 242.367188 C 76.449219 242.367188 76.445312 242.367188 76.4375 242.367188 C 76.4375 242.367188 76.433594 242.367188 76.429688 242.367188 L 72.894531 242.367188 L 72.894531 244.648438 L 106.824219 244.648438 C 106.507812 244.566406 106.25 244.34375 106.109375 244.054688 C 106.039062 243.90625 105.996094 243.746094 105.996094 243.570312 C 105.996094 243.347656 106.0625 243.136719 106.179688 242.960938 C 106.378906 242.65625 106.722656 242.453125 107.113281 242.453125 L 119.410156 242.453125 C 119.480469 242.453125 119.542969 242.417969 119.585938 242.367188 Z M 153.230469 204.785156 C 153.511719 205.195312 153.574219 205.71875 153.398438 206.183594 L 142.421875 235.097656 C 142.203125 235.679688 141.632812 236.070312 141.011719 236.070312 L 130.445312 236.070312 L 130.238281 235.476562 L 127.332031 227.054688 C 127.292969 226.9375 127.179688 226.855469 127.050781 226.855469 L 114.777344 226.855469 C 114.679688 226.855469 114.589844 226.902344 114.535156 226.980469 C 114.480469 227.058594 114.464844 227.160156 114.496094 227.25 L 117.332031 235.476562 L 117.539062 236.070312 L 92.890625 236.070312 L 93.117188 235.476562 L 104.789062 204.726562 L 105.015625 204.132812 L 151.988281 204.132812 C 152.484375 204.132812 152.949219 204.375 153.230469 204.785156 Z M 131.378906 215.941406 L 118.546875 215.941406 C 118.382812 215.941406 118.25 216.074219 118.25 216.238281 C 118.25 216.40625 118.382812 216.539062 118.546875 216.539062 L 131.378906 216.539062 C 131.542969 216.539062 131.679688 216.40625 131.679688 216.238281 C 131.679688 216.074219 131.542969 215.941406 131.378906 215.941406 Z M 129.242188 222.660156 C 129.242188 222.492188 129.109375 222.359375 128.945312 222.359375 L 116.113281 222.359375 C 115.949219 222.359375 115.8125 222.492188 115.8125 222.660156 C 115.8125 222.824219 115.949219 222.957031 116.113281 222.957031 L 128.945312 222.957031 C 129.109375 222.957031 129.242188 222.824219 129.242188 222.660156 Z M 130.054688 220.519531 C 130.054688 220.355469 129.921875 220.222656 129.757812 220.222656 L 116.925781 220.222656 C 116.757812 220.222656 116.625 220.355469 116.625 220.519531 C 116.625 220.683594 116.757812 220.816406 116.925781 220.816406 L 129.757812 220.816406 C 129.921875 220.816406 130.054688 220.683594 130.054688 220.519531 Z M 130.570312 218.675781 C 130.734375 218.675781 130.867188 218.542969 130.867188 218.378906 C 130.867188 218.214844 130.734375 218.082031 130.570312 218.082031 L 117.734375 218.082031 C 117.570312 218.082031 117.4375 218.214844 117.4375 218.378906 C 117.4375 218.542969 117.570312 218.675781 117.734375 218.675781 Z M 149.402344 185.828125 C 149.25 185.960938 149.097656 186.09375 148.945312 186.226562 C 148.835938 186.320312 148.734375 186.410156 148.628906 186.5 C 148.460938 186.648438 148.296875 186.785156 148.140625 186.90625 C 148.507812 187.125 148.878906 187.339844 149.253906 187.546875 C 149.210938 187.339844 149.195312 187.101562 149.210938 186.835938 C 149.226562 186.546875 149.289062 186.222656 149.398438 185.882812 Z M 157.164062 140.46875 C 155.457031 138.433594 155.753906 135.988281 155.992188 134.023438 C 156.082031 133.308594 156.164062 132.628906 156.136719 132.070312 C 156.101562 131.355469 155.910156 130.429688 155.691406 129.363281 C 155.59375 128.886719 155.492188 128.382812 155.394531 127.855469 C 155.109375 127.742188 154.863281 127.59375 154.671875 127.410156 C 153.828125 126.605469 153.304688 125.289062 153.304688 123.976562 C 153.304688 123.652344 153.335938 123.335938 153.398438 123.03125 C 153.449219 122.78125 153.523438 122.539062 153.613281 122.308594 C 140.164062 127.542969 130.601562 140.644531 130.601562 155.949219 C 130.601562 164.636719 133.683594 172.617188 138.808594 178.851562 L 139.355469 178.574219 L 139.730469 175.5 C 139.820312 174.835938 141.929688 159.160156 146.023438 154.285156 C 149.847656 149.730469 158.597656 146.035156 160.03125 145.449219 L 160.03125 142.457031 C 158.921875 142.0625 157.933594 141.390625 157.164062 140.46875 Z M 172.105469 120.28125 C 172.25 120.484375 172.375 120.714844 172.488281 120.957031 C 173.667969 123.46875 173.140625 127.769531 172.832031 129.632812 C 172.824219 129.660156 172.8125 129.6875 172.800781 129.714844 C 172.992188 129.765625 173.191406 129.839844 173.390625 129.960938 C 173.851562 130.238281 174.171875 130.730469 174.316406 131.378906 C 174.351562 131.53125 174.371094 131.6875 174.386719 131.847656 C 175.472656 132.023438 176.652344 132.390625 177.394531 133.160156 C 178.347656 134.152344 178.320312 135.039062 178.296875 135.816406 C 178.277344 136.398438 178.261719 136.898438 178.648438 137.410156 C 179.058594 137.953125 179.6875 138.109375 180.355469 138.273438 C 181.160156 138.476562 181.996094 138.683594 182.359375 139.625 C 182.765625 140.664062 182.269531 141.671875 181.828125 142.5625 C 181.601562 143.023438 181.386719 143.457031 181.304688 143.859375 C 181.144531 144.660156 181.359375 145.269531 181.570312 145.859375 C 181.804688 146.519531 182.046875 147.199219 181.722656 148.042969 C 181.390625 148.902344 180.554688 149.191406 179.761719 149.40625 C 181.902344 150.757812 183.890625 152.328125 185.003906 153.976562 C 187.601562 157.835938 189.769531 167.832031 190.683594 175.492188 C 190.707031 175.652344 191.171875 178.648438 190.988281 181.664062 C 190.972656 181.960938 190.949219 182.261719 190.914062 182.554688 C 198.113281 175.953125 202.632812 166.472656 202.632812 155.949219 C 202.632812 137.917969 189.371094 122.9375 172.105469 120.28125 Z M 172.105469 120.28125 " fill-opacity="1" fill-rule="nonzero"/><path fill="#f58e6d" d="M 76.691406 242.214844 L 76.699219 242.367188 L 76.457031 242.367188 C 76.5625 242.359375 76.644531 242.296875 76.691406 242.214844 Z M 85.582031 226.980469 L 92.425781 232.199219 C 92.382812 232.199219 92.34375 232.195312 92.300781 232.195312 L 91.488281 232.230469 C 91.488281 232.230469 91.488281 232.230469 91.484375 232.230469 C 89.132812 232.324219 87.273438 232.402344 85.820312 233.503906 C 83.972656 234.910156 81.863281 238.761719 82.296875 239.945312 C 82.296875 239.949219 82.300781 239.949219 82.300781 239.953125 C 82.464844 240.390625 82.808594 240.699219 83.269531 240.824219 C 83.769531 240.960938 84.363281 240.851562 84.800781 240.574219 C 84.859375 240.539062 84.925781 240.507812 84.976562 240.464844 C 85.367188 240.144531 85.703125 239.566406 86.035156 239.003906 C 86.105469 238.882812 86.175781 238.761719 86.246094 238.648438 C 86.375 239.210938 86.582031 240.007812 86.835938 240.699219 C 86.914062 240.910156 86.996094 241.109375 87.078125 241.289062 C 82.636719 241.394531 79.816406 239.628906 78.226562 238.097656 C 77.394531 237.296875 76.808594 236.492188 76.417969 235.851562 L 76.347656 234.425781 L 75.390625 215.71875 C 75.382812 215.550781 75.226562 215.417969 75.078125 215.433594 C 74.914062 215.441406 74.789062 215.582031 74.796875 215.746094 L 75.753906 234.523438 L 76.140625 242.085938 C 76.148438 242.242188 76.277344 242.359375 76.429688 242.367188 L 72.894531 242.367188 L 72.894531 244.636719 C 72 244.636719 70.972656 244.636719 69.847656 244.636719 L 69.824219 244.492188 C 69.8125 244.445312 69.804688 244.394531 69.796875 244.339844 C 69.707031 243.847656 69.558594 243.152344 69.1875 242.433594 C 69.542969 242.433594 69.960938 242.363281 70.214844 242.058594 C 70.503906 241.707031 70.484375 241.171875 70.160156 240.46875 C 68.976562 237.90625 63.777344 235.839844 60.257812 235.839844 C 60.253906 235.839844 60.253906 235.839844 60.25 235.839844 C 59.226562 235.839844 58.285156 235.917969 57.421875 236.066406 C 57.390625 236.042969 57.351562 236.027344 57.308594 236.019531 L 47.925781 234.191406 L 49.8125 216.910156 C 49.832031 216.746094 49.714844 216.601562 49.550781 216.582031 C 49.382812 216.5625 49.242188 216.683594 49.222656 216.847656 L 47.304688 234.398438 C 47.285156 234.554688 47.390625 234.695312 47.542969 234.726562 L 56.0625 236.382812 C 53.871094 237.039062 52.351562 238.28125 51.609375 240.070312 C 50.824219 241.957031 51.796875 243.554688 52.445312 244.339844 C 52.542969 244.457031 52.632812 244.558594 52.710938 244.636719 C 49.789062 244.636719 47.261719 244.636719 45.640625 244.636719 L 42.515625 244.636719 C 40.417969 244.222656 38.714844 243.367188 37.445312 242.054688 C 35.59375 240.140625 34.707031 237.332031 34.816406 233.707031 C 35.042969 226.195312 37.714844 211.585938 40.9375 206.796875 C 44.015625 202.226562 50.957031 199.777344 51.839844 199.480469 L 54.953125 195.714844 L 54.953125 195.824219 C 54.953125 195.988281 55.085938 196.121094 55.25 196.121094 C 55.414062 196.121094 55.546875 195.988281 55.546875 195.824219 L 55.546875 195.652344 L 62.976562 199.960938 L 65.53125 197.074219 L 65.53125 197.1875 C 65.53125 197.351562 65.664062 197.484375 65.828125 197.484375 C 65.992188 197.484375 66.125 197.351562 66.125 197.1875 L 66.125 197.097656 L 68.578125 200.851562 C 69.449219 200.988281 74.003906 201.890625 77.785156 206.394531 C 81.738281 211.105469 85.226562 225.488281 85.582031 226.980469 Z M 68.546875 201.453125 L 68.652344 201.289062 C 68.742188 201.152344 68.703125 200.964844 68.5625 200.878906 C 68.425781 200.789062 68.242188 200.828125 68.152344 200.96875 L 68.046875 201.128906 L 65.839844 204.589844 L 63.402344 200.378906 L 63.292969 200.191406 C 63.234375 200.09375 63.121094 200.03125 63.011719 200.042969 C 62.898438 200.054688 62.800781 200.125 62.757812 200.234375 L 62.667969 200.472656 L 60.789062 205.28125 L 52.453125 199.675781 L 52.179688 199.492188 C 52.046875 199.398438 51.859375 199.433594 51.769531 199.574219 C 51.675781 199.707031 51.714844 199.894531 51.847656 199.984375 L 51.972656 200.066406 L 60.765625 205.984375 C 60.816406 206.015625 60.875 206.035156 60.933594 206.035156 C 60.964844 206.035156 60.992188 206.03125 61.023438 206.019531 C 61.109375 205.992188 61.175781 205.929688 61.210938 205.84375 L 63.089844 201.027344 L 65.570312 205.3125 C 65.621094 205.402344 65.71875 205.457031 65.820312 205.460938 C 65.917969 205.453125 66.023438 205.410156 66.078125 205.324219 Z M 63.699219 195.386719 C 64.785156 195.386719 65.667969 194.671875 65.667969 193.792969 C 65.667969 193.636719 65.628906 193.488281 65.578125 193.34375 C 65.511719 193.160156 65.40625 192.988281 65.265625 192.839844 C 64.90625 192.453125 64.339844 192.199219 63.699219 192.199219 C 63.457031 192.199219 63.226562 192.242188 63.011719 192.304688 C 62.808594 192.367188 62.628906 192.457031 62.464844 192.5625 C 62.03125 192.847656 61.746094 193.277344 61.734375 193.761719 C 61.734375 193.773438 61.730469 193.78125 61.730469 193.792969 C 61.730469 193.996094 61.78125 194.1875 61.867188 194.367188 C 62.152344 194.960938 62.863281 195.386719 63.699219 195.386719 Z M 155.683594 188.382812 C 155.363281 188.75 154.910156 188.957031 154.441406 188.957031 C 154.425781 188.957031 154.410156 188.953125 154.398438 188.953125 C 154.003906 188.945312 153.652344 188.789062 153.457031 188.542969 C 153.449219 188.527344 153.445312 188.515625 153.4375 188.503906 C 153.171875 188.707031 152.824219 188.828125 152.449219 188.828125 C 152.410156 188.828125 152.371094 188.824219 152.328125 188.820312 C 151.914062 188.792969 151.554688 188.625 151.34375 188.355469 C 151.34375 188.351562 151.34375 188.351562 151.339844 188.351562 C 151.082031 188.542969 150.777344 188.652344 150.472656 188.652344 C 150.402344 188.652344 150.332031 188.648438 150.265625 188.636719 C 150.128906 188.613281 150.003906 188.5625 149.890625 188.496094 C 149.886719 188.496094 149.882812 188.492188 149.882812 188.492188 L 149.859375 189.015625 L 157.199219 189.015625 C 156.671875 188.789062 156.21875 188.507812 155.859375 188.175781 C 155.796875 188.253906 155.738281 188.324219 155.683594 188.382812 Z M 180.621094 191.898438 L 180.792969 191.878906 C 180.875 191.875 180.949219 191.832031 181 191.769531 C 181.050781 191.707031 181.074219 191.625 181.0625 191.542969 L 180.796875 189.597656 C 180.601562 189.613281 180.402344 189.625 180.203125 189.640625 C 179.148438 189.714844 178.03125 189.765625 176.832031 189.792969 C 176.484375 189.800781 176.066406 189.804688 175.597656 189.804688 C 173.972656 189.804688 171.6875 189.761719 169.300781 189.714844 C 168.257812 189.695312 167.160156 189.675781 166.066406 189.65625 C 166.230469 189.871094 166.34375 190.128906 166.371094 190.40625 C 166.410156 190.804688 166.289062 191.199219 166.046875 191.511719 C 166.023438 191.542969 166.003906 191.578125 165.980469 191.605469 C 165.714844 191.898438 165.351562 192.070312 164.960938 192.101562 C 166.417969 192.109375 167.882812 192.117188 169.308594 192.117188 C 173.894531 192.117188 178.09375 192.066406 180.363281 191.921875 C 180.449219 191.914062 180.535156 191.90625 180.621094 191.898438 Z M 178.777344 179.242188 L 161.070312 181.980469 C 159.027344 180.820312 157.214844 179.941406 154.34375 179.941406 C 154.339844 179.941406 154.339844 179.941406 154.335938 179.941406 C 152.929688 179.941406 151.511719 180.398438 150.234375 181.105469 C 150.222656 181.113281 150.210938 181.117188 150.203125 181.125 L 150.445312 175.550781 C 150.445312 175.515625 150.4375 175.484375 150.425781 175.453125 C 150.421875 175.441406 150.425781 175.433594 150.421875 175.425781 C 150.40625 175.386719 150.382812 175.355469 150.351562 175.324219 C 150.351562 175.324219 150.351562 175.324219 150.351562 175.320312 C 150.328125 175.300781 148.128906 173.1875 148.128906 169.839844 C 148.128906 166.445312 151.496094 160.691406 151.53125 160.632812 C 151.617188 160.492188 151.570312 160.308594 151.425781 160.226562 C 151.285156 160.144531 151.105469 160.191406 151.019531 160.332031 C 150.878906 160.574219 147.535156 166.28125 147.535156 169.839844 C 147.535156 172.484375 148.777344 174.378906 149.476562 175.242188 C 149.632812 175.429688 149.761719 175.570312 149.84375 175.65625 L 149.835938 175.835938 L 140.027344 175.835938 C 139.941406 175.835938 139.859375 175.800781 139.804688 175.734375 C 139.746094 175.671875 139.722656 175.585938 139.730469 175.5 C 139.820312 174.835938 141.929688 159.160156 146.023438 154.285156 C 149.847656 149.730469 158.597656 146.035156 160.03125 145.449219 C 160.128906 145.410156 160.191406 145.382812 160.21875 145.375 C 160.363281 145.316406 160.53125 145.382812 160.597656 145.523438 C 160.601562 145.53125 160.609375 145.550781 160.625 145.578125 C 160.777344 145.84375 161.566406 147.070312 163.636719 147.277344 C 166.726562 147.59375 169.683594 145.597656 170.359375 145.109375 C 170.449219 145.042969 170.503906 145 170.507812 144.996094 C 170.589844 144.933594 170.699219 144.917969 170.796875 144.953125 C 170.820312 144.960938 170.878906 144.984375 170.953125 145.015625 C 171.777344 145.335938 175.519531 146.847656 179.0625 148.976562 C 179.292969 149.117188 179.527344 149.261719 179.757812 149.40625 C 181.902344 150.757812 183.890625 152.328125 185.003906 153.976562 C 187.601562 157.835938 189.765625 167.832031 190.683594 175.492188 C 190.65625 175.328125 190.5 175.21875 190.34375 175.246094 C 190.195312 175.269531 190.097656 175.394531 190.097656 175.539062 L 178.871094 175.539062 L 178.859375 175.480469 L 178.8125 175.242188 L 175.921875 160.425781 C 175.890625 160.265625 175.730469 160.160156 175.570312 160.191406 C 175.410156 160.222656 175.304688 160.378906 175.335938 160.539062 L 178.273438 175.585938 L 178.277344 175.59375 C 178.277344 175.59375 178.277344 175.59375 178.277344 175.597656 L 178.976562 179.210938 Z M 172.941406 146.507812 C 173.046875 146.382812 173.097656 146.308594 173.105469 146.300781 C 173.191406 146.160156 173.152344 145.980469 173.015625 145.890625 C 172.878906 145.800781 172.695312 145.839844 172.605469 145.976562 C 172.605469 145.976562 172.539062 146.074219 172.367188 146.253906 C 172.089844 146.550781 171.523438 147.078125 170.488281 147.78125 C 169.160156 148.683594 166.421875 150.140625 163.046875 149.746094 C 160.460938 149.441406 158.851562 147.566406 158.324219 146.847656 C 158.199219 146.679688 158.136719 146.574219 158.132812 146.570312 C 158.046875 146.429688 157.863281 146.382812 157.722656 146.46875 C 157.582031 146.554688 157.539062 146.734375 157.621094 146.875 C 157.632812 146.894531 157.6875 146.980469 157.773438 147.105469 C 158.269531 147.816406 160.007812 149.988281 162.980469 150.335938 C 163.394531 150.386719 163.796875 150.40625 164.191406 150.40625 C 167.191406 150.40625 169.585938 149.113281 170.824219 148.273438 C 172.082031 147.417969 172.6875 146.804688 172.941406 146.507812 Z M 103.546875 180.207031 C 104.433594 180.71875 105.375 180.824219 106.199219 180.496094 C 107.925781 179.808594 108.617188 177.441406 107.734375 175.214844 C 107.304688 174.125 106.566406 173.234375 105.660156 172.707031 C 105.113281 172.390625 104.546875 172.230469 104 172.230469 C 103.65625 172.230469 103.324219 172.292969 103.007812 172.417969 C 102.183594 172.746094 101.566406 173.464844 101.269531 174.449219 C 100.96875 175.453125 101.039062 176.609375 101.472656 177.699219 C 101.902344 178.789062 102.640625 179.679688 103.546875 180.207031 Z M 132.816406 191.71875 C 132.847656 191.8125 132.835938 191.910156 132.777344 191.992188 C 132.722656 192.070312 132.632812 192.117188 132.535156 192.117188 L 91.992188 192.117188 C 91.226562 192.117188 90.539062 191.628906 90.285156 190.898438 L 79.152344 158.867188 C 79.023438 158.496094 79.082031 158.105469 79.304688 157.785156 C 79.53125 157.46875 79.882812 157.285156 80.273438 157.285156 L 120.640625 157.285156 C 120.765625 157.285156 120.878906 157.367188 120.921875 157.484375 L 121.058594 157.882812 L 132.75 191.519531 Z M 100.917969 177.917969 C 101.398438 179.132812 102.226562 180.128906 103.25 180.722656 C 103.886719 181.09375 104.554688 181.28125 105.207031 181.28125 C 105.621094 181.28125 106.03125 181.203125 106.417969 181.050781 C 108.449219 180.242188 109.289062 177.527344 108.289062 174.996094 C 107.808594 173.78125 106.980469 172.785156 105.957031 172.191406 C 104.910156 171.585938 103.785156 171.46875 102.789062 171.867188 C 101.789062 172.261719 101.050781 173.117188 100.699219 174.277344 C 100.359375 175.410156 100.4375 176.703125 100.917969 177.917969 Z M 213.144531 226.445312 L 201.691406 216.765625 L 197.550781 220.265625 C 197.09375 220.652344 196.5625 220.84375 196.027344 220.84375 C 195.496094 220.84375 194.960938 220.652344 194.507812 220.265625 L 190.363281 216.765625 L 178.910156 226.445312 L 178.566406 226.738281 C 178.523438 226.773438 178.476562 226.789062 178.429688 226.796875 C 178.804688 227.367188 179.449219 227.742188 180.179688 227.742188 L 211.875 227.742188 C 212.605469 227.742188 213.25 227.367188 213.628906 226.796875 C 213.578125 226.789062 213.53125 226.773438 213.492188 226.738281 Z M 211.875 204.132812 L 180.179688 204.132812 C 179.019531 204.132812 178.078125 205.078125 178.078125 206.238281 L 178.078125 225.632812 C 178.078125 225.859375 178.121094 226.074219 178.1875 226.277344 L 178.691406 225.851562 L 189.902344 216.375 L 178.671875 206.882812 L 178.183594 206.46875 C 178.054688 206.363281 178.039062 206.171875 178.148438 206.046875 C 178.253906 205.921875 178.441406 205.90625 178.566406 206.011719 L 178.683594 206.113281 L 194.890625 219.8125 C 195.582031 220.394531 196.476562 220.394531 197.167969 219.8125 L 213.371094 206.113281 L 213.492188 206.011719 C 213.617188 205.90625 213.804688 205.921875 213.910156 206.046875 C 214.015625 206.171875 214 206.363281 213.875 206.46875 L 213.386719 206.882812 L 202.152344 216.375 L 213.363281 225.851562 L 213.871094 226.277344 C 213.933594 226.074219 213.980469 225.859375 213.980469 225.632812 L 213.980469 206.238281 C 213.980469 205.078125 213.035156 204.132812 211.875 204.132812 Z M 211.875 204.132812 " fill-opacity="1" fill-rule="nonzero"/><g clip-path="url(#9487dac9fc)"><path fill="#231f20" d="M 52.953125 193.082031 C 53.667969 193.082031 54.34375 192.917969 54.953125 192.636719 L 54.953125 195.824219 C 54.953125 195.988281 55.085938 196.121094 55.25 196.121094 C 55.414062 196.121094 55.546875 195.988281 55.546875 195.824219 L 55.546875 192.308594 C 55.816406 192.128906 56.070312 191.925781 56.300781 191.699219 C 56.84375 192.46875 58.464844 194.238281 61.867188 194.367188 C 61.78125 194.1875 61.730469 193.996094 61.730469 193.792969 C 61.730469 193.78125 61.734375 193.773438 61.734375 193.761719 C 58.480469 193.585938 57.066406 191.796875 56.703125 191.238281 C 57.332031 190.429688 57.710938 189.417969 57.710938 188.316406 C 57.710938 187.746094 57.605469 187.199219 57.417969 186.6875 L 58.058594 182.113281 C 58.945312 181.914062 62.273438 180.984375 63.851562 177.976562 C 64.695312 178.007812 68.355469 178.328125 69.972656 181.449219 C 69.863281 182.066406 69.746094 182.660156 69.632812 183.207031 C 69.410156 184.300781 69.214844 185.246094 69.175781 186.007812 C 69.144531 186.621094 69.230469 187.320312 69.320312 188.066406 C 69.558594 190.011719 69.828125 192.214844 68.285156 194.054688 C 67.230469 195.316406 65.726562 196.085938 64.054688 196.21875 C 62.652344 196.332031 60.488281 196.039062 58.15625 194.019531 C 58.03125 193.910156 57.84375 193.925781 57.738281 194.050781 C 57.628906 194.175781 57.644531 194.363281 57.769531 194.46875 C 59.960938 196.371094 62.03125 196.835938 63.53125 196.835938 C 63.730469 196.835938 63.921875 196.824219 64.101562 196.8125 C 64.59375 196.773438 65.070312 196.679688 65.53125 196.542969 L 65.53125 197.1875 C 65.53125 197.351562 65.664062 197.484375 65.828125 197.484375 C 65.992188 197.484375 66.125 197.351562 66.125 197.1875 L 66.125 196.335938 C 67.132812 195.929688 68.03125 195.285156 68.742188 194.4375 C 69.214844 193.875 69.527344 193.28125 69.738281 192.675781 C 71.410156 191.9375 72.582031 190.265625 72.582031 188.316406 C 72.582031 186.496094 71.558594 184.914062 70.058594 184.113281 C 70.105469 183.859375 70.160156 183.597656 70.214844 183.328125 C 70.414062 182.359375 70.636719 181.261719 70.78125 180.128906 C 70.871094 179.445312 71.046875 177.101562 69.664062 175.664062 C 69.511719 175.5 69.335938 175.351562 69.15625 175.203125 C 68.222656 173.234375 66.785156 171.871094 62.882812 171.628906 C 61.230469 171.527344 59.277344 171.625 57.5625 172.296875 C 57 172.292969 53.507812 172.40625 51.96875 175.546875 C 50.558594 178.429688 51.265625 182.664062 51.488281 183.789062 C 49.582031 184.410156 48.199219 186.203125 48.199219 188.316406 C 48.199219 190.945312 50.332031 193.082031 52.953125 193.082031 Z M 71.988281 188.316406 C 71.988281 189.839844 71.167969 191.167969 69.949219 191.894531 C 70.222656 190.550781 70.058594 189.183594 69.914062 187.992188 C 69.824219 187.277344 69.742188 186.597656 69.769531 186.039062 C 69.789062 185.660156 69.851562 185.21875 69.941406 184.734375 C 71.164062 185.460938 71.988281 186.792969 71.988281 188.316406 Z M 54.832031 175.277344 C 55.523438 174.101562 56.554688 173.351562 57.714844 172.882812 C 57.734375 172.878906 57.746094 172.871094 57.761719 172.863281 C 59.386719 172.21875 61.261719 172.128906 62.84375 172.222656 C 65.785156 172.40625 67.183594 173.21875 68.066406 174.492188 C 66.621094 173.714844 64.746094 173.296875 62.722656 173.34375 C 60.277344 173.398438 58.207031 174.128906 57.1875 175.292969 C 55.078125 177.707031 54.929688 182.425781 54.941406 183.996094 C 54.421875 183.753906 53.855469 183.605469 53.253906 183.570312 C 53.277344 182.367188 53.449219 177.628906 54.832031 175.277344 Z M 52.953125 184.148438 C 55.25 184.148438 57.117188 186.019531 57.117188 188.316406 C 57.117188 190.617188 55.25 192.484375 52.953125 192.484375 C 50.660156 192.484375 48.792969 190.617188 48.792969 188.316406 C 48.792969 186.019531 50.660156 184.148438 52.953125 184.148438 Z M 61.894531 243.265625 C 62.207031 242.871094 61.984375 242.117188 61.230469 241.019531 C 60.449219 239.878906 58.390625 238.574219 58.246094 238.484375 C 58.238281 238.480469 58.230469 238.476562 58.230469 238.476562 C 58.089844 238.390625 58.046875 238.207031 58.132812 238.066406 C 58.222656 237.925781 58.402344 237.882812 58.542969 237.96875 C 58.5625 237.980469 58.648438 238.035156 58.78125 238.121094 C 59.386719 238.519531 61 239.632812 61.722656 240.683594 C 62.183594 241.359375 62.710938 242.265625 62.605469 243.03125 C 62.632812 243.042969 62.664062 243.058594 62.6875 243.082031 C 62.859375 243.25 63.152344 243.339844 63.453125 243.320312 C 63.695312 243.304688 63.902344 243.214844 64.007812 243.078125 C 64.238281 242.789062 64.230469 241.847656 63.246094 240.570312 C 62.273438 239.308594 60.371094 237.925781 60.351562 237.910156 C 60.292969 237.867188 60.257812 237.808594 60.242188 237.742188 C 60.222656 237.660156 60.230469 237.570312 60.285156 237.496094 C 60.382812 237.363281 60.566406 237.332031 60.703125 237.429688 C 60.71875 237.441406 60.808594 237.507812 60.953125 237.613281 C 61.515625 238.042969 62.898438 239.144531 63.71875 240.203125 C 64.542969 241.277344 64.796875 242.210938 64.703125 242.855469 C 64.917969 243.070312 65.203125 243.1875 65.457031 243.144531 C 65.679688 243.105469 65.847656 242.949219 65.9375 242.695312 C 66.109375 242.195312 66.066406 241.226562 65.363281 240.125 C 64.40625 238.628906 62.640625 237.652344 62.625 237.644531 C 62.539062 237.597656 62.488281 237.511719 62.476562 237.417969 C 62.46875 237.359375 62.472656 237.296875 62.507812 237.238281 C 62.585938 237.09375 62.765625 237.042969 62.910156 237.121094 C 62.984375 237.164062 64.765625 238.148438 65.8125 239.726562 C 65.828125 239.753906 65.847656 239.777344 65.863281 239.804688 C 66.019531 240.050781 66.140625 240.289062 66.246094 240.519531 C 66.679688 241.503906 66.683594 242.363281 66.496094 242.890625 C 66.335938 243.351562 65.992188 243.65625 65.554688 243.730469 C 65.488281 243.742188 65.417969 243.75 65.347656 243.75 C 65.042969 243.75 64.738281 243.636719 64.476562 243.445312 C 64.476562 243.445312 64.476562 243.445312 64.476562 243.449219 C 64.265625 243.71875 63.90625 243.886719 63.492188 243.914062 C 63.453125 243.917969 63.410156 243.917969 63.371094 243.917969 C 62.996094 243.921875 62.648438 243.800781 62.382812 243.597656 C 62.375 243.609375 62.371094 243.625 62.363281 243.636719 C 62.167969 243.882812 61.816406 244.039062 61.421875 244.046875 C 61.40625 244.050781 61.394531 244.050781 61.378906 244.050781 C 60.90625 244.050781 60.457031 243.839844 60.136719 243.476562 C 60.027344 243.355469 59.898438 243.195312 59.75 243.015625 C 59.210938 242.355469 58.4375 241.414062 57.609375 240.855469 C 57.449219 240.75 57.292969 240.652344 57.128906 240.578125 C 57.097656 240.566406 57.074219 240.542969 57.050781 240.523438 C 56.960938 240.4375 56.925781 240.304688 56.980469 240.183594 C 57.046875 240.035156 57.222656 239.96875 57.375 240.035156 C 57.382812 240.039062 57.386719 240.042969 57.394531 240.046875 C 58.515625 240.5625 59.535156 241.8125 60.210938 242.640625 C 60.355469 242.8125 60.480469 242.964844 60.582031 243.082031 C 60.875 243.414062 61.226562 243.46875 61.40625 243.453125 C 61.648438 243.445312 61.824219 243.355469 61.894531 243.265625 Z M 62.464844 192.5625 C 62.039062 191.984375 61.917969 191.308594 61.941406 190.882812 C 61.949219 190.78125 62.003906 190.6875 62.09375 190.636719 C 62.183594 190.589844 62.292969 190.589844 62.382812 190.636719 C 63.699219 191.363281 66.617188 191.289062 66.648438 191.289062 C 66.738281 191.292969 66.835938 191.332031 66.894531 191.410156 C 66.949219 191.488281 66.96875 191.585938 66.9375 191.679688 C 66.769531 192.195312 66.320312 192.953125 65.578125 193.34375 C 65.507812 193.160156 65.40625 192.988281 65.261719 192.839844 C 65.726562 192.613281 66.027344 192.199219 66.199219 191.886719 C 65.394531 191.878906 63.738281 191.804688 62.574219 191.375 C 62.628906 191.648438 62.75 192 63.011719 192.308594 C 62.808594 192.367188 62.628906 192.457031 62.464844 192.5625 Z M 67.886719 184.140625 C 68.050781 184.148438 68.175781 184.285156 68.167969 184.449219 L 68.113281 185.679688 C 68.105469 185.835938 67.972656 185.960938 67.816406 185.960938 C 67.8125 185.960938 67.804688 185.960938 67.800781 185.960938 C 67.636719 185.953125 67.511719 185.8125 67.519531 185.648438 L 67.574219 184.421875 C 67.582031 184.257812 67.707031 184.113281 67.886719 184.140625 Z M 62.9375 183.832031 C 63.101562 183.839844 63.230469 183.980469 63.222656 184.144531 L 63.164062 185.371094 C 63.15625 185.53125 63.023438 185.65625 62.867188 185.65625 C 62.863281 185.65625 62.859375 185.65625 62.851562 185.65625 C 62.691406 185.648438 62.5625 185.507812 62.570312 185.34375 L 62.628906 184.117188 C 62.636719 183.953125 62.761719 183.808594 62.9375 183.832031 Z M 66.289062 188.683594 C 66.382812 188.546875 66.378906 188.355469 66.28125 188.105469 C 65.386719 185.894531 65.59375 184.679688 65.605469 184.628906 C 65.632812 184.46875 65.785156 184.367188 65.953125 184.390625 C 66.113281 184.421875 66.21875 184.574219 66.191406 184.738281 C 66.1875 184.761719 66.019531 185.867188 66.832031 187.882812 C 67.058594 188.441406 66.925781 188.8125 66.773438 189.023438 C 66.515625 189.394531 65.980469 189.597656 65.292969 189.597656 C 65.242188 189.597656 65.191406 189.597656 65.136719 189.597656 C 64.972656 189.589844 64.847656 189.449219 64.855469 189.285156 C 64.859375 189.121094 65.003906 189.007812 65.164062 189 C 65.703125 189.027344 66.132812 188.902344 66.289062 188.683594 Z M 67.152344 182.578125 C 66.996094 182.625 66.828125 182.542969 66.78125 182.386719 C 66.730469 182.230469 66.8125 182.0625 66.96875 182.011719 C 67.417969 181.863281 68.457031 181.824219 69.148438 182.753906 C 69.246094 182.886719 69.21875 183.074219 69.089844 183.171875 C 69.035156 183.210938 68.972656 183.230469 68.910156 183.230469 C 68.820312 183.230469 68.730469 183.1875 68.671875 183.113281 C 68.066406 182.300781 67.191406 182.566406 67.152344 182.578125 Z M 61.78125 183.027344 C 61.722656 183.085938 61.644531 183.117188 61.566406 183.117188 C 61.492188 183.117188 61.417969 183.089844 61.359375 183.035156 C 61.242188 182.921875 61.238281 182.734375 61.351562 182.613281 C 62.476562 181.4375 63.875 181.894531 63.933594 181.914062 C 64.089844 181.964844 64.171875 182.132812 64.121094 182.289062 C 64.070312 182.445312 63.902344 182.53125 63.746094 182.476562 C 63.699219 182.460938 62.640625 182.128906 61.78125 183.027344 Z M 166.023438 244.636719 L 132.441406 244.636719 C 132.617188 244.578125 132.777344 244.46875 132.886719 244.3125 C 133.054688 244.074219 133.097656 243.765625 133.003906 243.488281 L 130.445312 236.070312 L 130.238281 235.476562 L 127.335938 227.054688 C 127.292969 226.9375 127.179688 226.855469 127.054688 226.855469 L 114.777344 226.855469 C 114.679688 226.855469 114.589844 226.902344 114.535156 226.980469 C 114.480469 227.058594 114.464844 227.160156 114.496094 227.25 L 117.332031 235.476562 L 117.539062 236.070312 L 119.632812 242.136719 C 119.65625 242.210938 119.644531 242.289062 119.601562 242.351562 C 119.597656 242.359375 119.589844 242.359375 119.585938 242.367188 C 119.542969 242.417969 119.480469 242.453125 119.410156 242.453125 L 107.113281 242.453125 C 106.722656 242.453125 106.378906 242.65625 106.179688 242.960938 C 106.0625 243.136719 105.996094 243.347656 105.996094 243.570312 C 105.996094 243.746094 106.039062 243.90625 106.109375 244.054688 C 106.25 244.34375 106.507812 244.5625 106.824219 244.648438 L 72.894531 244.648438 L 72.894531 244.636719 C 72 244.636719 70.972656 244.636719 69.847656 244.636719 C 69.503906 244.636719 69.148438 244.636719 68.785156 244.636719 C 64.625 244.636719 59.421875 244.636719 54.832031 244.636719 C 54.359375 244.636719 53.890625 244.636719 53.429688 244.636719 C 53.429688 244.550781 53.398438 244.46875 53.328125 244.410156 C 53.242188 244.335938 51.210938 242.570312 52.15625 240.296875 C 53.210938 237.769531 56.007812 236.433594 60.25 236.433594 C 60.253906 236.433594 60.257812 236.433594 60.257812 236.433594 C 63.515625 236.4375 68.574219 238.453125 69.621094 240.714844 C 69.832031 241.175781 69.882812 241.523438 69.753906 241.675781 C 69.589844 241.878906 69.097656 241.855469 68.804688 241.800781 C 68.953125 242.011719 69.082031 242.222656 69.1875 242.433594 C 69.542969 242.433594 69.960938 242.363281 70.214844 242.058594 C 70.503906 241.707031 70.484375 241.171875 70.160156 240.464844 C 68.976562 237.90625 63.777344 235.839844 60.257812 235.839844 C 60.253906 235.839844 60.253906 235.839844 60.25 235.839844 C 59.226562 235.839844 58.285156 235.917969 57.421875 236.066406 C 57.390625 236.042969 57.351562 236.027344 57.308594 236.019531 L 47.925781 234.191406 L 49.8125 216.910156 C 49.832031 216.746094 49.714844 216.601562 49.550781 216.582031 C 49.382812 216.5625 49.242188 216.683594 49.222656 216.84375 L 47.304688 234.398438 C 47.285156 234.554688 47.390625 234.695312 47.542969 234.726562 L 56.0625 236.382812 C 53.871094 237.039062 52.351562 238.277344 51.609375 240.070312 C 50.824219 241.957031 51.796875 243.550781 52.445312 244.339844 C 52.542969 244.457031 52.632812 244.558594 52.710938 244.636719 C 49.789062 244.636719 47.261719 244.636719 45.640625 244.636719 L 25.964844 244.636719 C 24.9375 244.636719 24.105469 245.46875 24.105469 246.5 C 24.105469 247.527344 24.9375 248.359375 25.964844 248.359375 L 166.023438 248.359375 C 167.050781 248.359375 167.882812 247.527344 167.882812 246.5 C 167.882812 245.472656 167.050781 244.636719 166.023438 244.636719 Z M 132.148438 244.097656 L 107.113281 244.097656 C 106.824219 244.097656 106.589844 243.859375 106.589844 243.570312 C 106.589844 243.28125 106.824219 243.046875 107.113281 243.046875 L 119.410156 243.046875 C 119.679688 243.046875 119.929688 242.917969 120.085938 242.699219 C 120.242188 242.480469 120.28125 242.199219 120.195312 241.945312 L 115.195312 227.453125 L 126.839844 227.453125 L 132.441406 243.683594 C 132.472656 243.78125 132.460938 243.882812 132.402344 243.964844 C 132.34375 244.050781 132.25 244.097656 132.148438 244.097656 Z M 68.5625 200.878906 C 68.703125 200.964844 68.742188 201.152344 68.652344 201.289062 L 68.546875 201.453125 L 66.078125 205.324219 C 66.019531 205.410156 65.917969 205.453125 65.820312 205.460938 C 65.714844 205.457031 65.621094 205.402344 65.570312 205.3125 L 63.089844 201.023438 L 61.210938 205.84375 C 61.175781 205.925781 61.105469 205.992188 61.019531 206.019531 C 60.992188 206.027344 60.960938 206.03125 60.933594 206.03125 C 60.875 206.03125 60.816406 206.015625 60.765625 205.980469 L 51.972656 200.066406 L 51.847656 199.984375 C 51.710938 199.894531 51.675781 199.707031 51.769531 199.570312 C 51.859375 199.433594 52.042969 199.398438 52.179688 199.488281 L 52.453125 199.671875 L 60.789062 205.28125 L 62.664062 200.46875 L 62.757812 200.230469 C 62.800781 200.125 62.898438 200.050781 63.011719 200.042969 C 63.121094 200.03125 63.234375 200.089844 63.292969 200.191406 L 63.402344 200.375 L 65.839844 204.589844 L 68.046875 201.128906 L 68.152344 200.96875 C 68.242188 200.828125 68.425781 200.789062 68.5625 200.878906 Z M 76.347656 234.425781 L 76.417969 235.851562 L 76.738281 242.054688 C 76.738281 242.113281 76.71875 242.167969 76.691406 242.214844 C 76.644531 242.296875 76.5625 242.359375 76.457031 242.367188 C 76.457031 242.367188 76.457031 242.367188 76.453125 242.367188 C 76.449219 242.367188 76.445312 242.367188 76.4375 242.367188 C 76.4375 242.367188 76.433594 242.367188 76.429688 242.367188 C 76.277344 242.359375 76.148438 242.242188 76.140625 242.085938 L 75.753906 234.523438 L 74.796875 215.746094 C 74.789062 215.582031 74.914062 215.441406 75.078125 215.433594 C 75.226562 215.417969 75.382812 215.550781 75.390625 215.71875 Z M 103.453125 205.226562 C 103.566406 204.929688 103.855469 204.726562 104.175781 204.726562 L 104.789062 204.726562 L 105.015625 204.132812 L 104.175781 204.132812 C 103.609375 204.132812 103.097656 204.488281 102.894531 205.015625 L 92.578125 232.203125 C 92.527344 232.203125 92.476562 232.195312 92.425781 232.199219 C 92.382812 232.199219 92.34375 232.195312 92.300781 232.195312 L 91.488281 232.230469 C 91.488281 232.230469 91.488281 232.230469 91.484375 232.230469 C 89.132812 232.324219 87.273438 232.402344 85.820312 233.503906 C 83.972656 234.910156 81.863281 238.761719 82.296875 239.945312 C 82.296875 239.945312 82.300781 239.949219 82.300781 239.953125 C 82.464844 240.390625 82.808594 240.699219 83.269531 240.824219 C 83.769531 240.960938 84.363281 240.851562 84.800781 240.574219 C 84.859375 240.539062 84.925781 240.507812 84.976562 240.464844 C 85.363281 240.144531 85.703125 239.566406 86.035156 239.003906 C 86.105469 238.882812 86.175781 238.761719 86.246094 238.648438 C 86.375 239.210938 86.582031 240.007812 86.835938 240.699219 C 86.914062 240.910156 86.992188 241.109375 87.078125 241.289062 C 87.214844 241.570312 87.359375 241.808594 87.507812 241.949219 C 87.730469 242.160156 87.996094 242.296875 88.273438 242.367188 L 89.050781 242.367188 C 89.085938 242.355469 89.121094 242.351562 89.15625 242.339844 C 89.433594 242.242188 89.652344 242.058594 89.8125 241.824219 C 90.015625 242.085938 90.265625 242.273438 90.550781 242.367188 L 91.300781 242.367188 C 91.597656 242.269531 91.867188 242.058594 92.070312 241.738281 C 92.128906 241.648438 92.179688 241.550781 92.230469 241.445312 C 92.484375 241.761719 92.816406 241.96875 93.183594 242.015625 C 93.234375 242.023438 93.28125 242.023438 93.332031 242.023438 C 93.773438 242.023438 94.179688 241.777344 94.46875 241.332031 C 94.949219 240.585938 95.105469 239.3125 94.953125 237.328125 C 94.941406 237.191406 94.929688 237.058594 94.914062 236.929688 C 95.089844 237.183594 95.285156 237.519531 95.460938 237.957031 C 95.578125 238.238281 95.65625 238.523438 95.734375 238.800781 C 95.890625 239.34375 96.035156 239.855469 96.40625 240.292969 C 96.65625 240.589844 97.226562 240.84375 97.789062 240.726562 C 98.242188 240.632812 98.574219 240.308594 98.722656 239.8125 C 98.992188 238.894531 99.019531 237.496094 98.417969 236.070312 L 97.765625 236.070312 C 98.414062 237.429688 98.40625 238.78125 98.152344 239.644531 C 98.066406 239.925781 97.90625 240.09375 97.664062 240.144531 C 97.335938 240.214844 96.976562 240.046875 96.859375 239.90625 C 96.570312 239.566406 96.449219 239.136719 96.308594 238.636719 C 96.226562 238.34375 96.140625 238.042969 96.011719 237.730469 C 95.667969 236.882812 95.265625 236.363281 94.984375 236.070312 L 94.179688 236.070312 C 94.253906 236.4375 94.324219 236.882812 94.359375 237.375 C 94.496094 239.195312 94.367188 240.386719 93.96875 241.007812 C 93.769531 241.3125 93.527344 241.460938 93.253906 241.421875 C 92.929688 241.382812 92.628906 241.085938 92.472656 240.667969 C 92.625 239.9375 92.648438 238.976562 92.554688 237.734375 C 92.511719 237.132812 92.398438 236.535156 92.285156 236.039062 C 92.367188 236.058594 92.449219 236.070312 92.535156 236.070312 L 92.890625 236.070312 L 93.117188 235.476562 L 92.535156 235.476562 C 92.402344 235.476562 92.285156 235.414062 92.214844 235.308594 C 92.140625 235.199219 92.125 235.066406 92.167969 234.945312 Z M 91.65625 234.625 C 91.632812 234.625 91.605469 234.625 91.582031 234.632812 C 91.425781 234.683594 91.339844 234.855469 91.394531 235.011719 C 91.398438 235.023438 91.863281 236.421875 91.964844 237.78125 C 92.101562 239.601562 91.972656 240.792969 91.570312 241.414062 C 91.375 241.71875 91.128906 241.863281 90.859375 241.828125 C 90.535156 241.789062 90.234375 241.492188 90.078125 241.074219 C 90.210938 239.925781 90.042969 236.816406 89.355469 235.03125 C 89.296875 234.878906 89.125 234.804688 88.972656 234.863281 C 88.820312 234.921875 88.742188 235.09375 88.800781 235.25 C 89.449219 236.921875 89.628906 240.03125 89.480469 241.078125 C 89.429688 241.429688 89.246094 241.675781 88.960938 241.777344 C 88.625 241.894531 88.207031 241.789062 87.917969 241.515625 C 87.457031 241.082031 86.914062 239.039062 86.683594 237.855469 C 86.679688 237.851562 86.679688 237.851562 86.679688 237.847656 C 86.675781 237.84375 86.679688 237.84375 86.675781 237.839844 C 86.453125 236.96875 86.207031 235.679688 86.207031 235.667969 C 86.175781 235.507812 86.019531 235.402344 85.859375 235.429688 C 85.695312 235.460938 85.589844 235.617188 85.621094 235.78125 C 85.632812 235.828125 85.847656 236.96875 86.066406 237.84375 C 85.890625 238.078125 85.710938 238.382812 85.519531 238.703125 C 85.230469 239.195312 84.90625 239.75 84.597656 240.007812 C 84.300781 240.25 83.808594 240.355469 83.421875 240.25 C 83.144531 240.171875 82.953125 240.003906 82.855469 239.738281 C 82.570312 238.964844 84.398438 235.332031 86.179688 233.980469 C 87.484375 232.988281 89.261719 232.917969 91.511719 232.828125 L 92.328125 232.792969 C 92.335938 232.792969 92.34375 232.792969 92.351562 232.792969 Z M 131.378906 216.539062 L 118.546875 216.539062 C 118.382812 216.539062 118.25 216.40625 118.25 216.238281 C 118.25 216.074219 118.382812 215.941406 118.546875 215.941406 L 131.378906 215.941406 C 131.542969 215.941406 131.679688 216.074219 131.679688 216.238281 C 131.679688 216.40625 131.542969 216.539062 131.378906 216.539062 Z M 130.570312 218.675781 L 117.734375 218.675781 C 117.570312 218.675781 117.4375 218.542969 117.4375 218.378906 C 117.4375 218.214844 117.570312 218.082031 117.734375 218.082031 L 130.570312 218.082031 C 130.734375 218.082031 130.867188 218.214844 130.867188 218.378906 C 130.867188 218.542969 130.734375 218.675781 130.570312 218.675781 Z M 129.757812 220.816406 L 116.925781 220.816406 C 116.757812 220.816406 116.625 220.683594 116.625 220.519531 C 116.625 220.355469 116.757812 220.222656 116.925781 220.222656 L 129.757812 220.222656 C 129.921875 220.222656 130.054688 220.355469 130.054688 220.519531 C 130.054688 220.683594 129.921875 220.816406 129.757812 220.816406 Z M 128.945312 222.359375 C 129.109375 222.359375 129.242188 222.492188 129.242188 222.660156 C 129.242188 222.824219 129.109375 222.957031 128.945312 222.957031 L 116.113281 222.957031 C 115.949219 222.957031 115.816406 222.824219 115.816406 222.660156 C 115.816406 222.492188 115.949219 222.359375 116.113281 222.359375 Z M 154.671875 127.410156 C 153.828125 126.605469 153.304688 125.289062 153.304688 123.976562 C 153.304688 123.652344 153.335938 123.335938 153.398438 123.03125 C 153.449219 122.78125 153.523438 122.539062 153.613281 122.308594 C 153.835938 121.742188 154.167969 121.238281 154.605469 120.816406 C 156.183594 119.3125 162.109375 117.292969 166.730469 117.699219 C 169.195312 117.914062 170.996094 118.769531 172.078125 120.238281 C 172.089844 120.253906 172.097656 120.269531 172.105469 120.28125 C 172.25 120.484375 172.375 120.714844 172.488281 120.957031 C 173.667969 123.46875 173.140625 127.769531 172.832031 129.632812 C 172.824219 129.660156 172.8125 129.6875 172.800781 129.714844 C 172.992188 129.765625 173.191406 129.839844 173.390625 129.960938 C 173.851562 130.238281 174.171875 130.730469 174.316406 131.378906 C 174.351562 131.53125 174.371094 131.6875 174.386719 131.847656 C 175.472656 132.023438 176.652344 132.390625 177.394531 133.160156 C 178.347656 134.152344 178.320312 135.035156 178.296875 135.816406 C 178.277344 136.398438 178.261719 136.898438 178.648438 137.40625 C 179.058594 137.953125 179.6875 138.109375 180.355469 138.273438 C 181.160156 138.476562 181.996094 138.683594 182.359375 139.625 C 182.765625 140.660156 182.269531 141.671875 181.828125 142.5625 C 181.601562 143.023438 181.386719 143.457031 181.304688 143.859375 C 181.144531 144.660156 181.359375 145.269531 181.570312 145.859375 C 181.804688 146.519531 182.046875 147.199219 181.722656 148.042969 C 181.390625 148.902344 180.554688 149.191406 179.761719 149.40625 C 179.527344 149.261719 179.296875 149.117188 179.0625 148.976562 C 175.519531 146.847656 171.777344 145.335938 170.953125 145.015625 C 170.878906 144.984375 170.820312 144.960938 170.796875 144.953125 C 170.699219 144.917969 170.589844 144.933594 170.507812 144.996094 C 170.503906 145 170.449219 145.042969 170.359375 145.105469 L 170.371094 135.785156 C 170.371094 135.703125 170.402344 135.625 170.460938 135.570312 C 170.515625 135.519531 170.585938 135.496094 170.65625 135.492188 C 170.664062 135.492188 170.675781 135.488281 170.683594 135.488281 C 170.703125 135.488281 172.378906 135.570312 173.164062 134.40625 C 173.703125 133.601562 173.9375 132.410156 173.738281 131.507812 C 173.660156 131.167969 173.488281 130.714844 173.082031 130.46875 C 172.046875 129.84375 170.9375 130.679688 170.847656 130.753906 C 170.777344 130.816406 170.71875 130.875 170.65625 130.933594 C 170.328125 131.25 170.125 131.519531 169.972656 131.722656 C 169.734375 132.039062 169.53125 132.316406 169.085938 132.316406 C 168.238281 132.316406 166.285156 128.433594 164.867188 125.34375 C 164.804688 125.984375 164.605469 126.710938 164.109375 127.316406 C 163.808594 127.675781 163.472656 127.722656 163.234375 127.699219 C 162.5 127.621094 161.710938 126.691406 161.144531 125.863281 L 161.398438 127.648438 C 161.421875 127.808594 161.3125 127.957031 161.15625 127.984375 C 160.996094 128.015625 158.039062 128.523438 156.035156 128.054688 C 156.117188 128.464844 156.195312 128.863281 156.273438 129.242188 C 156.496094 130.335938 156.691406 131.277344 156.730469 132.039062 C 156.757812 132.652344 156.675781 133.351562 156.582031 134.097656 C 156.347656 136.042969 156.078125 138.246094 157.617188 140.085938 C 158.675781 141.347656 160.179688 142.117188 161.851562 142.25 C 163.257812 142.363281 165.417969 142.070312 167.75 140.050781 C 167.871094 139.945312 168.058594 139.957031 168.167969 140.082031 C 168.277344 140.207031 168.261719 140.394531 168.136719 140.503906 C 165.945312 142.402344 163.875 142.867188 162.375 142.867188 C 162.175781 142.867188 161.984375 142.859375 161.804688 142.84375 C 161.402344 142.8125 161.007812 142.738281 160.625 142.640625 L 160.625 145.574219 C 160.609375 145.546875 160.601562 145.527344 160.597656 145.523438 C 160.53125 145.382812 160.363281 145.316406 160.21875 145.371094 C 160.191406 145.382812 160.128906 145.410156 160.03125 145.449219 L 160.03125 142.457031 C 158.921875 142.0625 157.933594 141.386719 157.164062 140.46875 C 155.457031 138.433594 155.753906 135.988281 155.992188 134.023438 C 156.078125 133.308594 156.164062 132.628906 156.136719 132.070312 C 156.097656 131.351562 155.910156 130.429688 155.691406 129.359375 C 155.59375 128.886719 155.488281 128.378906 155.394531 127.855469 C 155.109375 127.742188 154.863281 127.59375 154.671875 127.410156 Z M 158.679688 130.796875 L 158.738281 132.023438 C 158.746094 132.1875 158.617188 132.328125 158.453125 132.335938 C 158.449219 132.335938 158.445312 132.335938 158.441406 132.335938 C 158.28125 132.335938 158.148438 132.210938 158.144531 132.050781 L 158.085938 130.824219 C 158.078125 130.660156 158.203125 130.519531 158.367188 130.511719 C 158.535156 130.503906 158.671875 130.632812 158.679688 130.796875 Z M 163.628906 130.492188 L 163.683594 131.71875 C 163.691406 131.882812 163.566406 132.023438 163.402344 132.03125 C 163.398438 132.03125 163.390625 132.03125 163.386719 132.03125 C 163.230469 132.03125 163.097656 131.90625 163.089844 131.746094 L 163.035156 130.519531 C 163.023438 130.355469 163.152344 130.214844 163.316406 130.207031 C 163.476562 130.199219 163.621094 130.328125 163.628906 130.492188 Z M 159.421875 134.257812 C 160.242188 132.230469 160.066406 131.121094 160.066406 131.113281 C 160.035156 130.949219 160.144531 130.796875 160.304688 130.765625 C 160.464844 130.734375 160.621094 130.84375 160.648438 131.003906 C 160.660156 131.054688 160.867188 132.269531 159.976562 134.480469 C 159.875 134.730469 159.871094 134.921875 159.964844 135.054688 C 160.121094 135.277344 160.550781 135.402344 161.089844 135.375 C 161.253906 135.355469 161.394531 135.496094 161.402344 135.660156 C 161.410156 135.824219 161.28125 135.964844 161.117188 135.96875 C 161.0625 135.972656 161.011719 135.972656 160.960938 135.972656 C 160.273438 135.972656 159.738281 135.769531 159.480469 135.398438 C 159.332031 135.1875 159.199219 134.816406 159.421875 134.257812 Z M 157.21875 129.832031 C 157.167969 129.871094 157.105469 129.890625 157.042969 129.890625 C 156.953125 129.890625 156.863281 129.851562 156.804688 129.769531 C 156.707031 129.640625 156.734375 129.453125 156.867188 129.355469 C 157.765625 128.691406 158.917969 128.703125 158.96875 128.699219 C 159.132812 128.703125 159.265625 128.835938 159.261719 129 C 159.261719 129.164062 159.109375 129.285156 158.960938 129.296875 C 158.949219 129.289062 157.953125 129.289062 157.21875 129.832031 Z M 164.640625 129.53125 C 163.605469 128.742188 162.152344 129.054688 162.136719 129.058594 C 161.976562 129.09375 161.816406 128.992188 161.78125 128.832031 C 161.746094 128.671875 161.84375 128.511719 162.003906 128.476562 C 162.074219 128.460938 163.742188 128.097656 165 129.058594 C 165.128906 129.15625 165.15625 129.34375 165.054688 129.476562 C 164.996094 129.550781 164.910156 129.59375 164.820312 129.59375 C 164.757812 129.59375 164.691406 129.574219 164.640625 129.53125 Z M 122.109375 157.285156 L 120.640625 157.285156 C 120.765625 157.285156 120.878906 157.367188 120.921875 157.484375 L 121.058594 157.882812 L 122.109375 157.882812 C 122.527344 157.882812 122.898438 158.148438 123.035156 158.542969 L 133.765625 189.410156 C 133.804688 189.53125 133.917969 189.613281 134.046875 189.613281 L 164.757812 189.613281 C 165.28125 189.613281 165.730469 189.988281 165.777344 190.464844 C 165.804688 190.742188 165.71875 191.003906 165.539062 191.207031 C 165.359375 191.40625 165.097656 191.519531 164.832031 191.519531 L 132.75 191.519531 L 132.816406 191.71875 C 132.847656 191.8125 132.835938 191.910156 132.777344 191.992188 C 132.722656 192.070312 132.632812 192.117188 132.535156 192.117188 L 164.832031 192.117188 C 164.875 192.117188 164.917969 192.105469 164.960938 192.101562 C 165.351562 192.070312 165.714844 191.898438 165.976562 191.605469 C 166.003906 191.578125 166.023438 191.542969 166.046875 191.511719 C 166.289062 191.199219 166.410156 190.804688 166.371094 190.40625 C 166.339844 190.128906 166.230469 189.871094 166.066406 189.65625 C 167.160156 189.675781 168.257812 189.695312 169.300781 189.714844 C 171.6875 189.761719 173.96875 189.804688 175.597656 189.804688 C 176.066406 189.804688 176.484375 189.800781 176.832031 189.792969 C 178.027344 189.765625 179.148438 189.714844 180.199219 189.640625 C 180.398438 189.625 180.601562 189.613281 180.792969 189.597656 C 186.445312 189.132812 189.867188 187.792969 190.679688 184.0625 C 190.785156 183.578125 190.859375 183.070312 190.914062 182.554688 C 190.949219 182.261719 190.972656 181.960938 190.988281 181.664062 C 191.171875 178.648438 190.707031 175.652344 190.683594 175.492188 C 190.65625 175.328125 190.5 175.21875 190.34375 175.246094 C 190.195312 175.269531 190.097656 175.394531 190.097656 175.539062 C 190.097656 175.554688 190.09375 175.570312 190.09375 175.585938 C 190.101562 175.632812 190.851562 180.464844 190.097656 183.9375 C 189.191406 188.113281 184.730469 189.007812 176.816406 189.199219 C 175.28125 189.234375 172.382812 189.179688 169.3125 189.121094 C 167.941406 189.09375 166.492188 189.066406 165.0625 189.042969 C 164.964844 189.027344 164.863281 189.015625 164.757812 189.015625 L 162.808594 189.015625 C 161.929688 189.007812 161.078125 189.003906 160.289062 189.007812 C 158.617188 189.015625 157.078125 188.519531 156.234375 187.71875 C 156.875 186.941406 157.769531 185.902344 158.6875 185.488281 C 158.839844 185.417969 158.90625 185.242188 158.835938 185.09375 C 158.769531 184.941406 158.59375 184.878906 158.445312 184.941406 C 158.4375 184.945312 158.429688 184.949219 158.425781 184.953125 C 157.300781 185.472656 156.28125 186.71875 155.605469 187.546875 C 155.464844 187.71875 155.339844 187.871094 155.238281 187.988281 C 154.945312 188.324219 154.601562 188.375 154.414062 188.359375 C 154.171875 188.351562 153.992188 188.261719 153.921875 188.171875 C 153.613281 187.777344 153.835938 187.023438 154.585938 185.929688 C 155.394531 184.75 157.207031 183.628906 157.222656 183.621094 C 157.363281 183.535156 157.410156 183.351562 157.324219 183.210938 C 157.238281 183.070312 157.054688 183.027344 156.914062 183.109375 C 156.835938 183.160156 154.976562 184.308594 154.097656 185.589844 C 153.632812 186.265625 153.109375 187.171875 153.210938 187.9375 C 153.183594 187.953125 153.15625 187.964844 153.132812 187.988281 C 152.960938 188.15625 152.667969 188.25 152.367188 188.226562 C 152.125 188.210938 151.914062 188.121094 151.808594 187.988281 C 151.582031 187.695312 151.585938 186.753906 152.574219 185.476562 C 153.550781 184.207031 155.296875 182.71875 155.3125 182.703125 C 155.347656 182.675781 155.371094 182.640625 155.386719 182.601562 C 155.4375 182.5 155.425781 182.375 155.347656 182.28125 C 155.242188 182.15625 155.054688 182.140625 154.925781 182.25 C 154.910156 182.261719 154.804688 182.351562 154.644531 182.496094 C 154.101562 182.976562 152.886719 184.09375 152.101562 185.113281 C 151.277344 186.183594 151.023438 187.117188 151.113281 187.765625 C 150.902344 187.976562 150.617188 188.089844 150.363281 188.050781 C 150.136719 188.011719 149.972656 187.855469 149.882812 187.601562 C 149.707031 187.101562 149.753906 186.132812 150.453125 185.03125 C 151.261719 183.773438 152.636719 182.640625 153.082031 182.292969 C 153.167969 182.222656 153.226562 182.183594 153.226562 182.179688 C 153.359375 182.082031 153.386719 181.894531 153.292969 181.761719 C 153.195312 181.628906 153.007812 181.601562 152.875 181.699219 C 152.800781 181.753906 151.027344 183.074219 149.992188 184.652344 C 149.535156 184.914062 149.035156 185.351562 148.550781 185.78125 C 148.058594 186.214844 147.550781 186.660156 147.253906 186.753906 C 147.027344 186.824219 146.675781 186.773438 146.503906 186.5625 C 146.3125 186.339844 146.351562 185.9375 146.609375 185.429688 C 147.828125 183.066406 151.222656 180.539062 154.335938 180.535156 C 154.335938 180.535156 154.339844 180.535156 154.339844 180.535156 C 157.109375 180.535156 158.863281 181.40625 160.863281 182.546875 C 160.921875 182.582031 160.988281 182.59375 161.058594 182.582031 L 179.371094 179.753906 C 179.453125 179.742188 179.523438 179.699219 179.570312 179.632812 C 179.617188 179.566406 179.632812 179.484375 179.621094 179.402344 L 178.871094 175.539062 L 178.859375 175.480469 L 178.8125 175.242188 L 175.917969 160.425781 C 175.890625 160.265625 175.730469 160.160156 175.570312 160.191406 C 175.410156 160.222656 175.304688 160.378906 175.335938 160.539062 L 178.273438 175.585938 L 178.277344 175.59375 L 178.976562 179.210938 L 178.773438 179.242188 L 161.070312 181.980469 C 159.023438 180.820312 157.214844 179.941406 154.339844 179.941406 C 154.339844 179.941406 154.335938 179.941406 154.335938 179.941406 C 152.929688 179.941406 151.511719 180.398438 150.234375 181.105469 C 150.222656 181.113281 150.210938 181.117188 150.199219 181.125 L 150.441406 175.550781 C 150.445312 175.515625 150.4375 175.484375 150.425781 175.453125 C 150.421875 175.441406 150.425781 175.433594 150.421875 175.425781 C 150.40625 175.386719 150.382812 175.355469 150.351562 175.324219 C 150.351562 175.324219 150.351562 175.324219 150.351562 175.320312 C 150.328125 175.300781 148.128906 173.1875 148.128906 169.839844 C 148.128906 166.445312 151.496094 160.691406 151.53125 160.632812 C 151.613281 160.492188 151.566406 160.308594 151.425781 160.226562 C 151.285156 160.144531 151.101562 160.191406 151.019531 160.332031 C 150.875 160.570312 147.535156 166.28125 147.535156 169.839844 C 147.535156 172.484375 148.773438 174.378906 149.476562 175.242188 C 149.632812 175.429688 149.761719 175.570312 149.84375 175.65625 L 149.835938 175.835938 L 149.589844 181.492188 C 148.035156 182.496094 146.753906 183.851562 146.082031 185.15625 C 145.773438 185.761719 145.746094 186.203125 145.828125 186.523438 C 144.886719 186.910156 143.796875 187.234375 142.582031 187.457031 C 142.585938 187.445312 142.59375 187.4375 142.597656 187.425781 C 142.976562 186.386719 141.136719 183.011719 139.523438 181.78125 C 138.640625 181.113281 137.585938 180.878906 136.34375 180.769531 L 139.765625 179.035156 C 139.855469 178.988281 139.914062 178.902344 139.925781 178.804688 L 140.289062 175.835938 L 140.027344 175.835938 C 139.941406 175.835938 139.859375 175.800781 139.800781 175.734375 C 139.746094 175.671875 139.722656 175.585938 139.730469 175.5 C 139.730469 175.503906 139.730469 175.503906 139.730469 175.503906 L 139.355469 178.574219 L 139.351562 178.574219 L 138.808594 178.851562 L 135.175781 180.691406 C 134.976562 180.683594 134.777344 180.675781 134.574219 180.667969 L 133.867188 180.636719 C 133.027344 180.601562 132.226562 180.75 131.492188 181.054688 L 123.597656 158.34375 C 123.378906 157.710938 122.78125 157.285156 122.109375 157.285156 Z M 149.882812 188.492188 C 149.882812 188.492188 149.886719 188.496094 149.890625 188.496094 C 150.003906 188.5625 150.128906 188.613281 150.265625 188.636719 C 150.332031 188.648438 150.402344 188.65625 150.472656 188.65625 C 150.777344 188.65625 151.082031 188.542969 151.339844 188.351562 C 151.34375 188.351562 151.34375 188.355469 151.34375 188.355469 C 151.554688 188.625 151.914062 188.792969 152.328125 188.824219 C 152.371094 188.824219 152.410156 188.828125 152.449219 188.828125 C 152.824219 188.828125 153.171875 188.707031 153.4375 188.503906 C 153.445312 188.515625 153.449219 188.53125 153.457031 188.542969 C 153.652344 188.789062 154.003906 188.945312 154.398438 188.957031 C 154.410156 188.957031 154.425781 188.957031 154.441406 188.957031 C 154.910156 188.957031 155.363281 188.75 155.683594 188.382812 C 155.738281 188.324219 155.796875 188.253906 155.859375 188.179688 C 156.21875 188.507812 156.671875 188.792969 157.199219 189.015625 L 149.859375 189.015625 Z M 146.167969 187.046875 C 146.53125 187.371094 147.054688 187.441406 147.433594 187.324219 C 147.644531 187.257812 147.882812 187.105469 148.140625 186.90625 C 148.296875 186.785156 148.460938 186.648438 148.628906 186.5 C 148.734375 186.410156 148.835938 186.320312 148.945312 186.226562 C 149.097656 186.09375 149.25 185.960938 149.402344 185.828125 L 149.398438 185.882812 C 149.289062 186.222656 149.226562 186.546875 149.210938 186.835938 C 149.195312 187.101562 149.210938 187.339844 149.253906 187.546875 C 149.273438 187.628906 149.292969 187.707031 149.316406 187.777344 L 149.261719 189.015625 L 138.195312 189.015625 C 138.320312 188.84375 138.4375 188.617188 138.546875 188.351562 C 138.769531 188.359375 138.988281 188.367188 139.203125 188.367188 C 139.90625 188.367188 140.582031 188.324219 141.238281 188.257812 C 141.40625 188.265625 141.574219 188.257812 141.726562 188.214844 C 141.746094 188.210938 141.761719 188.199219 141.78125 188.195312 C 143.441406 187.976562 144.929688 187.570312 146.167969 187.046875 Z M 138.765625 187.761719 C 138.921875 187.28125 139.054688 186.78125 139.144531 186.386719 C 139.191406 186.460938 139.234375 186.535156 139.28125 186.613281 C 139.523438 187.03125 139.777344 187.449219 140.058594 187.742188 C 139.636719 187.761719 139.203125 187.769531 138.765625 187.761719 Z M 133.839844 181.234375 L 134.546875 181.261719 C 136.5 181.339844 138.039062 181.402344 139.164062 182.257812 C 140.792969 183.496094 142.257812 186.621094 142.039062 187.21875 C 141.960938 187.4375 141.804688 187.578125 141.570312 187.640625 C 141.257812 187.726562 140.832031 187.640625 140.585938 187.4375 C 140.324219 187.21875 140.042969 186.738281 139.792969 186.3125 C 139.632812 186.039062 139.480469 185.78125 139.328125 185.578125 C 139.515625 184.816406 139.703125 183.84375 139.710938 183.800781 C 139.742188 183.636719 139.636719 183.480469 139.472656 183.453125 C 139.3125 183.421875 139.15625 183.527344 139.125 183.6875 C 139.125 183.699219 138.910156 184.816406 138.714844 185.570312 C 138.714844 185.574219 138.714844 185.578125 138.714844 185.582031 C 138.714844 185.585938 138.710938 185.585938 138.710938 185.589844 C 138.511719 186.613281 138.042969 188.378906 137.648438 188.75 C 137.410156 188.976562 137.058594 189.0625 136.78125 188.96875 C 136.617188 188.910156 136.410156 188.761719 136.355469 188.394531 C 136.226562 187.488281 136.382812 184.792969 136.945312 183.34375 C 137.003906 183.191406 136.925781 183.015625 136.773438 182.957031 C 136.617188 182.898438 136.449219 182.976562 136.386719 183.128906 C 135.789062 184.679688 135.644531 187.375 135.757812 188.390625 C 135.625 188.734375 135.378906 188.980469 135.113281 189.011719 C 134.84375 189.050781 134.644531 188.84375 134.53125 188.667969 C 134.1875 188.136719 134.078125 187.109375 134.199219 185.53125 C 134.285156 184.359375 134.6875 183.144531 134.691406 183.132812 C 134.742188 182.976562 134.660156 182.808594 134.503906 182.757812 C 134.347656 182.703125 134.179688 182.789062 134.128906 182.945312 C 134.109375 182.996094 133.699219 184.238281 133.605469 185.488281 C 133.558594 186.070312 133.550781 186.578125 133.566406 187.027344 L 132.371094 183.589844 C 132.441406 183.3125 132.5 183.140625 132.5 183.136719 C 132.554688 182.980469 132.472656 182.8125 132.316406 182.757812 C 132.238281 182.730469 132.15625 182.738281 132.085938 182.773438 L 131.683594 181.617188 C 132.347656 181.335938 133.074219 181.195312 133.839844 181.234375 Z M 173.015625 145.890625 C 173.152344 145.980469 173.191406 146.164062 173.105469 146.300781 C 173.097656 146.308594 173.046875 146.382812 172.941406 146.507812 C 172.6875 146.804688 172.082031 147.417969 170.824219 148.273438 C 169.585938 149.113281 167.191406 150.40625 164.191406 150.40625 C 163.796875 150.40625 163.394531 150.382812 162.980469 150.335938 C 160.007812 149.988281 158.269531 147.816406 157.773438 147.105469 C 157.6875 146.980469 157.632812 146.894531 157.621094 146.875 C 157.539062 146.734375 157.582031 146.550781 157.722656 146.46875 C 157.863281 146.382812 158.046875 146.429688 158.132812 146.570312 C 158.136719 146.574219 158.199219 146.679688 158.324219 146.847656 C 158.851562 147.566406 160.460938 149.441406 163.046875 149.742188 C 166.421875 150.136719 169.160156 148.683594 170.488281 147.777344 C 171.523438 147.078125 172.089844 146.550781 172.371094 146.253906 C 172.539062 146.074219 172.605469 145.976562 172.605469 145.976562 C 172.695312 145.839844 172.878906 145.800781 173.015625 145.890625 Z M 162.054688 139.867188 C 162.203125 139.867188 162.359375 139.855469 162.523438 139.824219 C 164.589844 139.425781 165.148438 137.605469 165.171875 137.527344 C 165.203125 137.425781 165.175781 137.316406 165.105469 137.238281 C 165.03125 137.160156 164.921875 137.128906 164.820312 137.152344 C 162.574219 137.675781 160.054688 137.695312 160.027344 137.695312 C 159.933594 137.695312 159.839844 137.742188 159.785156 137.820312 C 159.730469 137.902344 159.71875 138.003906 159.75 138.09375 C 159.984375 138.75 160.746094 139.867188 162.054688 139.867188 Z M 164.371094 137.855469 C 164.085938 138.339844 163.503906 139.027344 162.410156 139.238281 C 161.375 139.433594 160.777344 138.746094 160.5 138.28125 C 161.257812 138.253906 162.808594 138.164062 164.371094 137.855469 Z M 210.875 177.710938 L 216.121094 175.949219 C 216.242188 175.90625 216.324219 175.792969 216.324219 175.667969 C 216.324219 175.539062 216.246094 175.425781 216.125 175.382812 L 203.789062 171.105469 C 203.683594 171.066406 203.5625 171.097656 203.484375 171.175781 C 203.402344 171.257812 203.375 171.375 203.410156 171.484375 L 207.683594 183.839844 C 207.722656 183.960938 207.835938 184.042969 207.960938 184.042969 C 207.960938 184.042969 207.960938 184.042969 207.964844 184.042969 C 208.089844 184.042969 208.203125 183.960938 208.242188 183.84375 L 210.277344 178.070312 C 211.6875 178.785156 214.535156 180.5 216.332031 183.371094 C 218.203125 186.363281 218.382812 189.671875 216.863281 193.207031 C 214.949219 197.65625 209.683594 200.472656 204.335938 200.171875 C 203.667969 197.621094 202.65625 195.457031 201.332031 193.714844 C 200.796875 193.015625 199.949219 192.039062 198.769531 191.632812 C 197.71875 191.273438 196.285156 191.460938 195.585938 192.523438 C 194.972656 193.449219 195.199219 194.605469 195.386719 195.210938 C 196.339844 198.253906 199.539062 199.933594 202.21875 200.492188 C 202.765625 200.605469 203.316406 200.683594 203.867188 200.734375 C 203.992188 201.242188 204.101562 201.761719 204.199219 202.300781 C 204.3125 202.90625 204.398438 203.519531 204.46875 204.132812 L 205.070312 204.132812 C 204.992188 203.484375 204.902344 202.835938 204.785156 202.191406 C 204.699219 201.707031 204.597656 201.234375 204.488281 200.773438 C 210.023438 201.019531 215.421875 198.0625 217.40625 193.445312 C 220.59375 186.039062 216.011719 180.4375 210.875 177.710938 Z M 202.339844 199.90625 C 199.828125 199.382812 196.832031 197.828125 195.957031 195.03125 C 195.800781 194.527344 195.605469 193.574219 196.082031 192.855469 C 196.449219 192.300781 197.113281 192.0625 197.757812 192.0625 C 198.046875 192.0625 198.328125 192.109375 198.578125 192.195312 C 199.359375 192.464844 200.085938 193.0625 200.859375 194.078125 C 202.101562 195.710938 203.058594 197.734375 203.710938 200.117188 C 203.253906 200.070312 202.792969 200 202.339844 199.90625 Z M 196.132812 227.742188 L 197.152344 227.742188 C 194.949219 229.398438 191.203125 231.425781 188.296875 232.773438 C 184.664062 234.457031 178.652344 235.550781 172.082031 235.550781 C 164.53125 235.550781 156.25 234.105469 149.996094 230.449219 C 149.855469 230.367188 149.808594 230.183594 149.890625 230.042969 C 149.972656 229.898438 150.15625 229.851562 150.296875 229.933594 C 161.820312 236.675781 180.351562 235.796875 188.046875 232.230469 C 190.652344 231.023438 193.933594 229.269531 196.132812 227.742188 Z M 58.683594 167.5625 C 58.734375 167.664062 58.835938 167.730469 58.949219 167.730469 C 59.066406 167.730469 59.167969 167.664062 59.21875 167.5625 L 64.917969 155.796875 C 64.976562 155.683594 64.953125 155.546875 64.863281 155.457031 C 64.773438 155.367188 64.636719 155.34375 64.523438 155.398438 L 58.988281 158.050781 C 57.40625 154.402344 57.179688 149.097656 59.589844 146.621094 C 61.285156 144.882812 64.261719 144.328125 67 145.242188 C 67.710938 145.476562 68.382812 145.792969 69.015625 146.160156 C 68.597656 148.527344 69.667969 151.507812 72.1875 152.40625 C 73.085938 152.730469 74.25 152.613281 74.644531 151.761719 C 75.082031 150.820312 74.195312 149.851562 73.902344 149.53125 C 72.792969 148.320312 71.394531 146.929688 69.683594 145.863281 C 70.21875 143.625 71.835938 141.734375 73.207031 140.320312 C 74.976562 138.496094 76.933594 136.839844 79.035156 135.375 L 79.035156 144.652344 C 79.035156 144.878906 79.082031 145.09375 79.148438 145.296875 L 79.140625 145.300781 C 79.015625 145.40625 79 145.59375 79.105469 145.71875 C 79.164062 145.789062 79.25 145.828125 79.332031 145.828125 C 79.351562 145.828125 79.371094 145.820312 79.390625 145.816406 C 79.765625 146.382812 80.410156 146.761719 81.140625 146.761719 L 112.835938 146.761719 C 113.566406 146.761719 114.210938 146.382812 114.585938 145.816406 C 114.605469 145.820312 114.625 145.828125 114.640625 145.828125 C 114.726562 145.828125 114.8125 145.789062 114.871094 145.71875 C 114.976562 145.59375 114.960938 145.40625 114.835938 145.300781 L 114.828125 145.296875 C 114.894531 145.09375 114.941406 144.878906 114.941406 144.652344 L 114.941406 129.695312 C 115.933594 129.996094 116.917969 130.332031 117.882812 130.707031 C 121.269531 132.015625 128.347656 136.121094 130.679688 138.707031 C 130.789062 138.828125 130.976562 138.835938 131.101562 138.726562 C 131.222656 138.617188 131.230469 138.429688 131.121094 138.304688 C 128.738281 135.664062 121.535156 131.480469 118.097656 130.148438 C 117.0625 129.75 116.007812 129.394531 114.941406 129.078125 L 114.941406 125.257812 C 114.941406 124.097656 113.996094 123.148438 112.835938 123.148438 L 81.140625 123.148438 C 79.980469 123.148438 79.035156 124.097656 79.035156 125.257812 L 79.035156 134.65625 C 76.773438 136.199219 74.667969 137.957031 72.78125 139.902344 C 71.390625 141.339844 69.757812 143.25 69.152344 145.550781 C 68.535156 145.207031 67.878906 144.90625 67.1875 144.675781 C 64.238281 143.691406 61.015625 144.304688 59.164062 146.203125 C 56.648438 148.789062 56.730469 153.960938 58.246094 157.828125 L 53.382812 155.402344 C 53.269531 155.34375 53.128906 155.367188 53.039062 155.457031 C 52.949219 155.546875 52.925781 155.683594 52.980469 155.796875 Z M 112.835938 146.164062 L 81.140625 146.164062 C 80.605469 146.164062 80.136719 145.882812 79.871094 145.464844 L 91.324219 135.78125 L 95.464844 139.285156 C 95.921875 139.667969 96.453125 139.863281 96.988281 139.863281 C 97.519531 139.863281 98.054688 139.667969 98.507812 139.285156 L 102.652344 135.78125 L 114.105469 145.464844 C 113.835938 145.882812 113.367188 146.164062 112.835938 146.164062 Z M 114.34375 144.652344 C 114.34375 144.726562 114.332031 144.796875 114.324219 144.867188 L 103.113281 135.394531 L 114.34375 125.898438 Z M 81.140625 123.746094 L 112.835938 123.746094 C 113.625 123.746094 114.265625 124.359375 114.332031 125.128906 L 98.125 138.828125 C 97.433594 139.414062 96.539062 139.414062 95.847656 138.828125 L 79.644531 125.128906 C 79.707031 124.359375 80.351562 123.746094 81.140625 123.746094 Z M 79.628906 125.898438 L 90.859375 135.394531 L 79.652344 144.867188 C 79.640625 144.796875 79.628906 144.726562 79.628906 144.652344 Z M 69.566406 146.496094 C 71.128906 147.507812 72.425781 148.800781 73.464844 149.933594 C 74.078125 150.605469 74.289062 151.121094 74.105469 151.511719 C 73.871094 152.015625 73.03125 152.078125 72.386719 151.847656 C 70.246094 151.082031 69.296875 148.578125 69.566406 146.496094 Z M 69.566406 146.496094 " fill-opacity="1" fill-rule="nonzero"/></g></svg>