<svg xmlns="http://www.w3.org/2000/svg" xmlns:xlink="http://www.w3.org/1999/xlink" width="480" zoomAndPan="magnify" viewBox="0 0 360 359.999987" height="480" preserveAspectRatio="xMidYMid meet" version="1.0"><defs><clipPath id="7b9ab26f2f"><path d="M 194 220 L 234.101562 220 L 234.101562 264.859375 L 194 264.859375 Z M 194 220 " clip-rule="nonzero"/></clipPath><clipPath id="5ea885b6cc"><path d="M 128 220 L 169 220 L 169 264.859375 L 128 264.859375 Z M 128 220 " clip-rule="nonzero"/></clipPath><clipPath id="dcbb9fb598"><path d="M 76 220 L 117 220 L 117 264.859375 L 76 264.859375 Z M 76 220 " clip-rule="nonzero"/></clipPath><clipPath id="1f1e072cd7"><path d="M 11.023438 220 L 51 220 L 51 264.859375 L 11.023438 264.859375 Z M 11.023438 220 " clip-rule="nonzero"/></clipPath></defs><rect x="-36" width="432" fill="#ffffff" y="-35.999999" height="431.999984" fill-opacity="1"/><rect x="-36" width="432" fill="#ffffff" y="-35.999999" height="431.999984" fill-opacity="1"/><path fill="#d9d9d9" d="M -0.113281 -0.195312 L 358.746094 -0.195312 L 358.746094 365.113281 L -0.113281 365.113281 Z M -0.113281 -0.195312 " fill-opacity="1" fill-rule="nonzero"/><path stroke-linecap="butt" transform="matrix(0, -0.75, 0.75, 0, 245.107927, 359.999972)" fill="none" stroke-linejoin="miter" d="M -0.0000378667 2.001931 L 480 2.001931 " stroke="#000000" stroke-width="4" stroke-opacity="1" stroke-miterlimit="4"/><g clip-path="url(#7b9ab26f2f)"><path fill="#040606" d="M 214.035156 220.925781 C 207.855469 221.042969 202.941406 226.144531 203.058594 232.3125 C 203.140625 236.066406 205.101562 239.546875 208.289062 241.542969 L 208.191406 241.542969 L 208.191406 243.441406 C 208.191406 243.460938 208.191406 243.460938 208.191406 243.460938 C 208.191406 243.480469 208.191406 243.480469 208.191406 243.480469 C 208.191406 243.5 208.191406 243.5 208.191406 243.5 C 208.191406 243.519531 208.191406 243.519531 208.191406 243.519531 L 199.214844 246.328125 C 197.730469 246.800781 196.621094 248.027344 196.304688 249.546875 L 194.363281 258.898438 C 193.867188 261.210938 195.355469 263.484375 197.671875 263.960938 C 197.808594 263.980469 197.929688 264 198.066406 264.019531 C 208.785156 265.265625 219.621094 265.265625 230.335938 264.019531 C 232.695312 263.742188 234.359375 261.625 234.082031 259.273438 C 234.0625 259.15625 234.042969 259.035156 234.023438 258.898438 L 232.101562 249.546875 C 231.785156 248.027344 230.65625 246.800781 229.1875 246.328125 L 220.195312 243.519531 C 220.195312 243.519531 220.195312 243.519531 220.195312 243.5 C 220.195312 243.5 220.195312 243.5 220.195312 243.480469 C 220.195312 243.480469 220.195312 243.480469 220.195312 243.460938 C 220.195312 243.460938 220.195312 243.460938 220.195312 243.441406 L 220.195312 241.542969 C 225.445312 238.261719 227.007812 231.382812 223.742188 226.164062 C 221.640625 222.84375 217.957031 220.867188 214.035156 220.925781 " fill-opacity="1" fill-rule="nonzero"/></g><g clip-path="url(#5ea885b6cc)"><path fill="#040606" d="M 148.34375 220.925781 C 142.164062 221.0625 137.25 226.144531 137.371094 232.3125 C 137.449219 236.066406 139.429688 239.546875 142.621094 241.542969 L 142.5 243.441406 C 142.5 243.460938 142.5 243.460938 142.5 243.460938 C 142.5 243.480469 142.5 243.480469 142.5 243.480469 C 142.5 243.5 142.5 243.5 142.5 243.5 C 142.5 243.519531 142.5 243.519531 142.5 243.519531 L 133.527344 246.328125 C 132.042969 246.800781 130.953125 248.027344 130.632812 249.546875 L 128.695312 258.917969 C 128.199219 261.230469 129.703125 263.484375 132.019531 263.960938 C 132.140625 263.980469 132.257812 264 132.378906 264.019531 C 143.113281 265.265625 153.929688 265.265625 164.648438 264.019531 C 167.003906 263.742188 168.691406 261.625 168.414062 259.273438 C 168.390625 259.15625 168.371094 259.035156 168.351562 258.917969 L 166.410156 249.546875 C 166.09375 248.027344 164.984375 246.800781 163.519531 246.347656 L 154.527344 243.539062 C 154.527344 243.519531 154.527344 243.519531 154.527344 243.519531 C 154.527344 243.5 154.527344 243.5 154.527344 243.5 C 154.527344 243.480469 154.527344 243.480469 154.527344 243.480469 C 154.527344 243.460938 154.527344 243.460938 154.527344 243.460938 L 154.527344 241.542969 C 159.753906 238.261719 161.339844 231.382812 158.050781 226.164062 C 155.972656 222.84375 152.285156 220.867188 148.363281 220.945312 L 148.34375 220.925781 " fill-opacity="1" fill-rule="nonzero"/></g><g clip-path="url(#dcbb9fb598)"><path fill="#040606" d="M 96.421875 220.925781 C 90.242188 221.042969 85.347656 226.144531 85.449219 232.3125 C 85.527344 236.066406 87.507812 239.546875 90.699219 241.542969 L 90.597656 241.542969 L 90.597656 243.441406 C 90.597656 243.460938 90.597656 243.460938 90.597656 243.460938 C 90.597656 243.480469 90.597656 243.480469 90.597656 243.480469 C 90.597656 243.5 90.597656 243.5 90.597656 243.5 C 90.597656 243.519531 90.597656 243.519531 90.597656 243.519531 L 81.625 246.328125 C 80.140625 246.800781 79.03125 248.027344 78.714844 249.546875 L 76.773438 258.898438 C 76.277344 261.210938 77.761719 263.484375 80.078125 263.960938 C 80.21875 263.980469 80.335938 264 80.457031 264.019531 C 91.171875 265.265625 102.007812 265.265625 112.726562 264.019531 C 115.085938 263.742188 116.769531 261.625 116.492188 259.292969 C 116.472656 259.15625 116.449219 259.035156 116.429688 258.898438 L 114.488281 249.546875 C 114.171875 248.027344 113.0625 246.800781 111.578125 246.328125 L 102.605469 243.519531 C 102.605469 243.519531 102.605469 243.519531 102.605469 243.5 C 102.605469 243.5 102.605469 243.5 102.605469 243.480469 C 102.605469 243.480469 102.605469 243.480469 102.605469 243.460938 C 102.605469 243.460938 102.605469 243.460938 102.605469 243.441406 L 102.605469 241.542969 C 107.832031 238.261719 109.417969 231.382812 106.128906 226.164062 C 104.050781 222.84375 100.367188 220.867188 96.441406 220.925781 L 96.421875 220.925781 " fill-opacity="1" fill-rule="nonzero"/></g><g clip-path="url(#1f1e072cd7)"><path fill="#040606" d="M 30.675781 220.945312 C 24.492188 221.0625 19.601562 226.144531 19.699219 232.3125 C 19.777344 236.085938 21.738281 239.546875 24.949219 241.542969 L 24.949219 243.460938 C 24.949219 243.480469 24.949219 243.480469 24.949219 243.480469 C 24.949219 243.5 24.949219 243.5 24.949219 243.5 C 24.949219 243.519531 24.949219 243.519531 24.949219 243.519531 C 24.949219 243.539062 24.949219 243.539062 24.949219 243.539062 L 15.976562 246.347656 C 14.488281 246.820312 13.378906 248.046875 13.0625 249.546875 L 11.121094 258.917969 C 10.625 261.230469 12.113281 263.484375 14.429688 263.960938 C 14.570312 264 14.6875 264.019531 14.804688 264.019531 C 25.542969 265.265625 36.359375 265.265625 47.097656 264.019531 L 46.996094 264.019531 C 49.335938 263.761719 51.019531 261.625 50.742188 259.292969 C 50.722656 259.175781 50.703125 259.035156 50.683594 258.917969 L 48.742188 249.570312 C 48.425781 248.046875 47.316406 246.820312 45.828125 246.347656 L 36.855469 243.539062 C 36.855469 243.519531 36.855469 243.519531 36.855469 243.519531 C 36.855469 243.5 36.855469 243.5 36.855469 243.5 C 36.855469 243.480469 36.855469 243.480469 36.855469 243.480469 C 36.855469 243.460938 36.855469 243.460938 36.855469 243.460938 L 36.855469 241.5625 C 42.085938 238.28125 43.667969 231.382812 40.382812 226.164062 C 38.300781 222.863281 34.617188 220.867188 30.695312 220.945312 L 30.675781 220.945312 " fill-opacity="1" fill-rule="nonzero"/></g><path fill="#040606" d="M 64.171875 150.492188 C 56.148438 150.21875 49.414062 156.484375 49.136719 164.488281 C 48.9375 169.945312 51.832031 175.046875 56.625 177.675781 L 56.625 181.210938 C 56.625 181.902344 56.167969 182.496094 55.515625 182.695312 L 42.699219 186.726562 C 41.074219 187.242188 39.867188 188.585938 39.527344 190.226562 L 36.734375 203.609375 C 36.222656 206.140625 37.84375 208.609375 40.382812 209.125 C 40.5 209.164062 40.636719 209.183594 40.777344 209.203125 C 55.992188 210.960938 71.34375 210.960938 86.558594 209.203125 C 89.132812 208.886719 90.976562 206.574219 90.679688 204.023438 C 90.660156 203.886719 90.636719 203.746094 90.597656 203.609375 L 87.824219 190.226562 C 87.488281 188.566406 86.261719 187.222656 84.636719 186.726562 L 71.820312 182.695312 C 71.164062 182.496094 70.730469 181.902344 70.730469 181.210938 L 70.730469 177.675781 C 77.761719 173.800781 80.296875 164.964844 76.394531 157.964844 C 73.917969 153.5 69.285156 150.671875 64.171875 150.492188 " fill-opacity="1" fill-rule="nonzero"/><path fill="#040606" d="M 181.785156 150.492188 C 173.761719 150.195312 167.027344 156.464844 166.75 164.46875 C 166.53125 169.925781 169.421875 175.046875 174.214844 177.675781 L 174.214844 181.210938 C 174.214844 181.902344 173.78125 182.496094 173.125 182.695312 L 160.289062 186.726562 C 158.683594 187.242188 157.476562 188.566406 157.121094 190.226562 L 154.347656 203.609375 C 153.832031 206.140625 155.457031 208.609375 157.972656 209.125 C 158.128906 209.164062 158.25 209.183594 158.386719 209.203125 C 173.601562 210.960938 188.953125 210.960938 204.167969 209.203125 C 206.722656 208.886719 208.566406 206.574219 208.269531 204.023438 C 208.25 203.886719 208.230469 203.746094 208.210938 203.609375 L 205.4375 190.226562 C 205.082031 188.566406 203.871094 187.242188 202.246094 186.726562 L 189.429688 182.695312 C 188.777344 182.496094 188.339844 181.902344 188.339844 181.210938 L 188.339844 177.675781 C 195.355469 173.800781 197.890625 164.964844 194.007812 157.964844 C 191.53125 153.5 186.894531 150.671875 181.785156 150.492188 " fill-opacity="1" fill-rule="nonzero"/><path fill="#040606" d="M 122.988281 77.117188 C 114.964844 76.839844 108.230469 83.105469 107.953125 91.113281 C 107.753906 96.566406 110.648438 101.648438 115.421875 104.296875 L 115.421875 107.835938 C 115.421875 108.527344 114.964844 109.121094 114.332031 109.316406 L 101.496094 113.351562 C 99.890625 113.84375 98.660156 115.1875 98.324219 116.847656 L 95.550781 130.230469 C 95.015625 132.761719 96.640625 135.234375 99.175781 135.746094 C 99.316406 135.785156 99.453125 135.804688 99.59375 135.828125 C 114.808594 137.585938 130.160156 137.585938 145.351562 135.828125 C 147.929688 135.511719 149.769531 133.195312 149.453125 130.628906 C 149.433594 130.488281 149.414062 130.371094 149.394531 130.230469 L 146.621094 116.847656 C 146.285156 115.1875 145.054688 113.84375 143.433594 113.351562 L 130.632812 109.316406 C 129.980469 109.121094 129.527344 108.527344 129.527344 107.835938 L 129.527344 104.296875 C 136.558594 100.402344 139.074219 91.566406 135.171875 84.570312 C 132.695312 80.121094 128.078125 77.292969 122.988281 77.117188 " fill-opacity="1" fill-rule="nonzero"/><path fill="#f2c9cd" d="M 214.074219 222.941406 C 219.144531 222.941406 223.246094 227.035156 223.246094 232.09375 C 223.246094 235.613281 221.226562 238.835938 218.035156 240.355469 L 218.035156 243.441406 C 218.035156 244.371094 218.628906 245.179688 219.5 245.457031 L 228.476562 248.265625 C 229.269531 248.5 229.863281 249.152344 230.019531 249.964844 L 231.980469 259.332031 C 232.21875 260.539062 231.445312 261.746094 230.199219 262.003906 C 230.140625 262.023438 230.082031 262.023438 230 262.042969 C 219.441406 263.265625 208.765625 263.265625 198.207031 262.042969 C 196.957031 261.882812 196.066406 260.757812 196.226562 259.53125 C 196.226562 259.453125 196.246094 259.394531 196.246094 259.332031 L 198.1875 249.964844 C 198.363281 249.152344 198.957031 248.5 199.75 248.265625 L 208.707031 245.457031 C 209.597656 245.179688 210.191406 244.371094 210.191406 243.441406 L 210.191406 240.355469 C 205.613281 238.183594 203.671875 232.726562 205.851562 228.160156 C 207.378906 224.976562 210.585938 222.941406 214.113281 222.941406 L 214.074219 222.941406 " fill-opacity="1" fill-rule="nonzero"/><path fill="#f2c9cd" d="M 148.382812 222.941406 C 153.457031 222.941406 157.574219 227.035156 157.574219 232.09375 C 157.574219 235.613281 155.535156 238.835938 152.328125 240.355469 L 152.328125 243.441406 C 152.347656 244.371094 152.941406 245.179688 153.8125 245.457031 L 162.785156 248.265625 C 163.578125 248.5 164.171875 249.152344 164.332031 249.964844 L 166.253906 259.332031 C 166.511719 260.539062 165.71875 261.746094 164.488281 262.003906 C 164.429688 262.023438 164.351562 262.023438 164.292969 262.042969 C 153.734375 263.265625 143.035156 263.265625 132.476562 262.042969 C 131.25 261.882812 130.335938 260.757812 130.476562 259.53125 C 130.496094 259.453125 130.496094 259.394531 130.515625 259.332031 L 132.476562 249.964844 C 132.636719 249.152344 133.230469 248.5 134.023438 248.265625 L 142.996094 245.457031 C 143.867188 245.179688 144.460938 244.371094 144.460938 243.441406 L 144.460938 240.355469 C 139.886719 238.183594 137.964844 232.726562 140.144531 228.160156 C 141.648438 224.976562 144.859375 222.941406 148.382812 222.941406 " fill-opacity="1" fill-rule="nonzero"/><path fill="#f2c9cd" d="M 96.484375 222.941406 C 101.554688 222.941406 105.65625 227.035156 105.65625 232.09375 C 105.65625 235.613281 103.632812 238.835938 100.445312 240.355469 L 100.445312 243.441406 C 100.445312 244.371094 101.039062 245.179688 101.910156 245.457031 L 110.882812 248.265625 C 111.675781 248.5 112.269531 249.152344 112.429688 249.964844 L 114.390625 259.332031 C 114.628906 260.539062 113.855469 261.746094 112.609375 262.003906 C 112.546875 262.023438 112.488281 262.023438 112.410156 262.042969 C 101.851562 263.265625 91.171875 263.265625 80.59375 262.042969 C 79.347656 261.882812 78.457031 260.757812 78.613281 259.511719 C 78.613281 259.453125 78.632812 259.394531 78.652344 259.332031 L 80.59375 249.964844 C 80.753906 249.152344 81.347656 248.5 82.140625 248.265625 L 91.113281 245.457031 C 91.984375 245.179688 92.601562 244.371094 92.601562 243.441406 L 92.601562 240.355469 C 88.023438 238.183594 86.082031 232.726562 88.261719 228.160156 C 89.765625 224.976562 92.976562 222.960938 96.503906 222.941406 L 96.484375 222.941406 " fill-opacity="1" fill-rule="nonzero"/><path fill="#f2c9cd" d="M 30.773438 222.941406 C 35.84375 222.941406 39.964844 227.035156 39.964844 232.09375 C 39.964844 235.613281 37.925781 238.835938 34.734375 240.355469 L 34.734375 243.441406 C 34.734375 244.371094 35.328125 245.179688 36.222656 245.457031 L 45.175781 248.265625 C 45.96875 248.5 46.5625 249.152344 46.738281 249.964844 L 48.640625 259.332031 C 48.898438 260.539062 48.105469 261.746094 46.878906 262.003906 C 46.820312 262.023438 46.761719 262.023438 46.679688 262.042969 C 36.121094 263.265625 25.445312 263.265625 14.886719 262.042969 C 13.636719 261.882812 12.746094 260.757812 12.886719 259.53125 C 12.886719 259.453125 12.90625 259.394531 12.925781 259.332031 L 14.847656 249.964844 C 15.023438 249.152344 15.617188 248.5 16.410156 248.265625 L 25.386719 245.4375 C 26.257812 245.179688 26.851562 244.371094 26.871094 243.441406 L 26.871094 240.355469 C 22.292969 238.183594 20.351562 232.726562 22.53125 228.160156 C 24.039062 224.976562 27.246094 222.941406 30.773438 222.941406 " fill-opacity="1" fill-rule="nonzero"/><path fill="#f78e9f" d="M 181.644531 152.488281 C 188.558594 152.6875 194.007812 158.441406 193.808594 165.339844 C 193.691406 170.183594 190.777344 174.492188 186.339844 176.429688 L 186.339844 181.210938 C 186.339844 182.773438 187.371094 184.15625 188.855469 184.613281 L 201.671875 188.644531 C 202.605469 188.921875 203.296875 189.691406 203.496094 190.640625 L 206.269531 204.003906 C 206.566406 205.449219 205.65625 206.871094 204.207031 207.167969 C 204.128906 207.167969 204.050781 207.1875 203.972656 207.1875 C 188.914062 208.945312 173.703125 208.945312 158.644531 207.1875 C 157.179688 207.027344 156.128906 205.703125 156.328125 204.242188 C 156.328125 204.164062 156.347656 204.082031 156.347656 204.003906 L 159.121094 190.640625 C 159.320312 189.691406 160.011719 188.921875 160.945312 188.644531 L 173.761719 184.613281 C 175.265625 184.15625 176.277344 182.773438 176.277344 181.210938 L 176.277344 176.429688 C 169.9375 173.640625 167.085938 166.269531 169.859375 159.941406 C 171.917969 155.316406 176.574219 152.371094 181.664062 152.488281 L 181.644531 152.488281 " fill-opacity="1" fill-rule="nonzero"/><path fill="#f14357" d="M 122.828125 79.113281 C 129.742188 79.292969 135.210938 85.042969 135.03125 91.941406 C 134.894531 96.785156 131.980469 101.113281 127.523438 103.050781 L 127.523438 107.835938 C 127.523438 109.398438 128.554688 110.78125 130.039062 111.234375 L 142.835938 115.25 C 143.769531 115.542969 144.460938 116.316406 144.660156 117.265625 L 147.433594 130.648438 C 147.730469 132.070312 146.800781 133.492188 145.351562 133.789062 C 145.273438 133.789062 145.214844 133.808594 145.136719 133.828125 C 130.058594 135.570312 114.867188 135.570312 99.832031 133.828125 C 98.363281 133.652344 97.316406 132.328125 97.472656 130.863281 C 97.492188 130.785156 97.492188 130.726562 97.511719 130.648438 L 100.285156 117.265625 C 100.484375 116.316406 101.175781 115.542969 102.109375 115.25 L 114.925781 111.234375 C 116.410156 110.78125 117.421875 109.398438 117.421875 107.835938 L 117.421875 103.050781 C 111.082031 100.285156 108.210938 92.910156 110.984375 86.585938 C 113.023438 81.921875 117.71875 78.976562 122.808594 79.113281 L 122.828125 79.113281 " fill-opacity="1" fill-rule="nonzero"/><path fill="#040606" d="M 99.769531 180.835938 L 101.15625 183.207031 L 122.472656 170.933594 L 143.808594 183.207031 L 145.195312 180.835938 L 123.859375 168.542969 L 123.859375 143.96875 L 121.105469 143.96875 L 121.105469 168.542969 L 99.769531 180.835938 " fill-opacity="1" fill-rule="nonzero"/><path fill="#f78e9f" d="M 64.015625 152.488281 C 70.949219 152.6875 76.394531 158.441406 76.195312 165.339844 C 76.058594 170.183594 73.167969 174.492188 68.730469 176.429688 L 68.730469 181.210938 C 68.730469 182.773438 69.738281 184.15625 71.226562 184.613281 L 84.042969 188.644531 C 84.972656 188.921875 85.6875 189.691406 85.882812 190.640625 L 88.65625 204.003906 C 88.953125 205.449219 88.023438 206.871094 86.578125 207.167969 C 86.5 207.167969 86.417969 207.1875 86.339844 207.1875 C 71.304688 208.945312 56.089844 208.945312 41.035156 207.1875 C 39.570312 207.027344 38.519531 205.703125 38.695312 204.242188 C 38.71875 204.164062 38.71875 204.082031 38.738281 204.003906 L 41.511719 190.640625 C 41.707031 189.691406 42.402344 188.921875 43.3125 188.644531 L 56.128906 184.613281 C 57.617188 184.15625 58.644531 182.773438 58.625 181.210938 L 58.625 176.429688 C 52.304688 173.640625 49.433594 166.269531 52.226562 159.941406 C 54.289062 155.316406 58.941406 152.371094 64.015625 152.488281 " fill-opacity="1" fill-rule="nonzero"/><path fill="#040606" d="M 47.769531 241.148438 L 48.742188 242.828125 L 63.65625 234.210938 L 78.59375 242.828125 L 79.546875 241.148438 L 64.628906 232.546875 L 64.628906 215.351562 L 62.6875 215.351562 L 62.6875 232.546875 L 47.769531 241.148438 " fill-opacity="1" fill-rule="nonzero"/><path fill="#040606" d="M 197.175781 241.148438 L 196.226562 242.828125 L 181.289062 234.210938 L 166.351562 242.828125 L 165.402344 241.148438 L 180.335938 232.546875 L 180.335938 215.351562 L 182.257812 215.351562 L 182.257812 232.546875 L 197.175781 241.148438 " fill-opacity="1" fill-rule="nonzero"/></svg>