<svg xmlns="http://www.w3.org/2000/svg" xmlns:xlink="http://www.w3.org/1999/xlink" width="480" zoomAndPan="magnify" viewBox="0 0 360 359.999987" height="480" preserveAspectRatio="xMidYMid meet" version="1.0"><rect x="-36" width="432" fill="#ffffff" y="-35.999999" height="431.999984" fill-opacity="1"/><rect x="-36" width="432" fill="#ffffff" y="-35.999999" height="431.999984" fill-opacity="1"/><path fill="#d9d9d9" d="M -0.113281 -0.195312 L 358.746094 -0.195312 L 358.746094 365.113281 L -0.113281 365.113281 Z M -0.113281 -0.195312 " fill-opacity="1" fill-rule="nonzero"/><path stroke-linecap="butt" transform="matrix(0, -0.75, 0.75, 0, 245.107927, 359.999972)" fill="none" stroke-linejoin="miter" d="M -0.0000378667 2.001931 L 480 2.001931 " stroke="#000000" stroke-width="4" stroke-opacity="1" stroke-miterlimit="4"/><path fill="#ff0063" d="M 88.507812 193.160156 L 80.738281 200.65625 L 69.390625 188.847656 L 60.726562 197.207031 L 72.074219 209.015625 L 60.289062 220.386719 L 68.628906 229.070312 L 80.414062 217.699219 L 91.761719 229.511719 L 100.425781 221.152344 L 89.078125 209.339844 L 96.847656 201.84375 C 112.6875 214.121094 135.539062 213.230469 150.382812 198.910156 C 166.695312 183.167969 167.183594 157.109375 151.480469 140.765625 C 135.78125 124.421875 109.777344 123.921875 93.460938 139.664062 C 78.621094 153.984375 76.867188 176.835938 88.507812 193.160156 Z M 142.816406 149.125 C 153.917969 160.679688 153.574219 179.101562 142.039062 190.226562 C 130.507812 201.351562 112.128906 201.003906 101.027344 189.449219 C 89.925781 177.890625 90.273438 159.472656 101.804688 148.347656 C 113.335938 137.21875 131.714844 137.570312 142.816406 149.125 Z M 142.816406 149.125 " fill-opacity="1" fill-rule="evenodd"/></svg>