<svg xmlns="http://www.w3.org/2000/svg" xmlns:xlink="http://www.w3.org/1999/xlink" width="480" zoomAndPan="magnify" viewBox="0 0 360 359.999987" height="480" preserveAspectRatio="xMidYMid meet" version="1.0"><defs><clipPath id="e8df4524f3"><path d="M 69 229 L 135 229 L 135 265.835938 L 69 265.835938 Z M 69 229 " clip-rule="nonzero"/></clipPath><clipPath id="cf48b4ea60"><path d="M 69 109.835938 L 226 109.835938 L 226 210 L 69 210 Z M 69 109.835938 " clip-rule="nonzero"/></clipPath><clipPath id="daaaf7183e"><path d="M 13.867188 147 L 95 147 L 95 228 L 13.867188 228 Z M 13.867188 147 " clip-rule="nonzero"/></clipPath></defs><rect x="-36" width="432" fill="#ffffff" y="-35.999999" height="431.999984" fill-opacity="1"/><rect x="-36" width="432" fill="#ffffff" y="-35.999999" height="431.999984" fill-opacity="1"/><path fill="#d9d9d9" d="M -0.113281 -0.195312 L 358.746094 -0.195312 L 358.746094 365.113281 L -0.113281 365.113281 Z M -0.113281 -0.195312 " fill-opacity="1" fill-rule="nonzero"/><path stroke-linecap="butt" transform="matrix(0, -0.75, 0.75, 0, 245.107927, 359.999972)" fill="none" stroke-linejoin="miter" d="M -0.0000378667 2.001931 L 480 2.001931 " stroke="#000000" stroke-width="4" stroke-opacity="1" stroke-miterlimit="4"/><path fill="#000000" d="M 128.050781 138.574219 C 124.378906 138.574219 121.394531 141.554688 121.394531 145.226562 L 121.394531 187.835938 C 121.394531 190.304688 122.753906 192.574219 124.957031 193.734375 L 147.085938 205.398438 C 148.085938 205.910156 149.132812 206.15625 150.179688 206.15625 C 152.5625 206.15625 154.878906 204.863281 156.078125 202.59375 C 157.792969 199.34375 156.546875 195.3125 153.296875 193.601562 L 134.730469 183.804688 L 134.730469 145.226562 C 134.707031 141.554688 131.726562 138.574219 128.050781 138.574219 Z M 128.050781 138.574219 " fill-opacity="1" fill-rule="nonzero"/><g clip-path="url(#e8df4524f3)"><path fill="#000000" d="M 134.730469 259.15625 C 134.730469 262.828125 131.726562 265.835938 128.050781 265.835938 C 104.632812 265.835938 83.617188 255.484375 69.28125 239.03125 C 73.667969 237.519531 77.160156 234.046875 78.675781 229.574219 C 90.609375 243.597656 108.304688 252.457031 128.050781 252.457031 C 131.703125 252.476562 134.730469 255.484375 134.730469 259.15625 Z M 134.730469 259.15625 " fill-opacity="1" fill-rule="nonzero"/></g><g clip-path="url(#cf48b4ea60)"><path fill="#000000" d="M 223.421875 188.234375 L 204.097656 207.558594 C 202.785156 208.894531 201.09375 209.539062 199.398438 209.539062 C 197.664062 209.539062 195.972656 208.871094 194.703125 207.558594 L 175.3125 188.234375 C 172.730469 185.652344 172.730469 181.421875 175.3125 178.839844 C 177.960938 176.191406 182.167969 176.191406 184.773438 178.839844 L 192.65625 186.722656 C 192.054688 151.550781 163.335938 123.144531 128.050781 123.144531 C 108.304688 123.144531 90.609375 132.050781 78.675781 146.03125 C 77.160156 141.644531 73.734375 138.148438 69.347656 136.570312 C 83.683594 120.183594 104.699219 109.835938 128.050781 109.835938 C 170.75 109.835938 205.476562 144.269531 206.035156 186.832031 L 214.046875 178.820312 C 216.628906 176.171875 220.859375 176.171875 223.441406 178.820312 C 226.070312 181.421875 226.070312 185.628906 223.421875 188.234375 Z M 223.421875 188.234375 " fill-opacity="1" fill-rule="nonzero"/></g><path fill="#000000" d="M 148.933594 248.492188 C 145.195312 249.785156 143.191406 253.859375 144.480469 257.621094 C 145.773438 261.359375 149.847656 263.363281 153.609375 262.074219 C 157.347656 260.78125 159.351562 256.707031 158.0625 252.945312 C 156.769531 249.183594 152.671875 247.203125 148.933594 248.492188 Z M 148.933594 248.492188 " fill-opacity="1" fill-rule="nonzero"/><path fill="#000000" d="M 168.414062 237.675781 C 165.339844 240.167969 164.851562 244.6875 167.34375 247.757812 C 169.835938 250.832031 174.355469 251.320312 177.429688 248.828125 C 180.5 246.335938 180.988281 241.816406 178.496094 238.742188 C 176.027344 235.671875 171.507812 235.183594 168.414062 237.675781 Z M 168.414062 237.675781 " fill-opacity="1" fill-rule="nonzero"/><path fill="#000000" d="M 192.878906 218.421875 C 189.472656 216.371094 185.0625 217.484375 183.039062 220.867188 C 180.988281 224.273438 182.101562 228.683594 185.488281 230.707031 C 188.894531 232.753906 193.300781 231.644531 195.328125 228.257812 C 197.375 224.851562 196.285156 220.445312 192.878906 218.421875 Z M 192.878906 218.421875 " fill-opacity="1" fill-rule="nonzero"/><g clip-path="url(#daaaf7183e)"><path fill="#000000" d="M 94.015625 198.207031 C 94.015625 199.878906 92.65625 201.234375 91.007812 201.234375 L 67.367188 201.234375 L 67.367188 224.851562 C 67.367188 226.523438 66.007812 227.859375 64.363281 227.859375 L 43.570312 227.859375 C 41.898438 227.859375 40.5625 226.5 40.5625 224.851562 L 40.5625 201.234375 L 16.921875 201.234375 C 15.253906 201.234375 13.917969 199.878906 13.917969 198.207031 L 13.917969 177.417969 C 13.917969 175.746094 15.253906 174.410156 16.921875 174.410156 L 40.542969 174.410156 L 40.542969 150.792969 C 40.542969 149.125 41.898438 147.789062 43.546875 147.789062 L 64.339844 147.789062 C 66.007812 147.789062 67.34375 149.144531 67.34375 150.792969 L 67.34375 174.433594 L 90.964844 174.433594 C 92.632812 174.433594 93.96875 175.792969 93.96875 177.4375 L 93.96875 198.207031 Z M 94.015625 198.207031 " fill-opacity="1" fill-rule="nonzero"/></g></svg>