<svg xmlns="http://www.w3.org/2000/svg" xmlns:xlink="http://www.w3.org/1999/xlink" width="480" zoomAndPan="magnify" viewBox="0 0 360 359.999987" height="480" preserveAspectRatio="xMidYMid meet" version="1.0"><defs><clipPath id="d1e3453aa5"><path d="M 199 245 L 240.023438 245 L 240.023438 286.164062 L 199 286.164062 Z M 199 245 " clip-rule="nonzero"/></clipPath><clipPath id="33e9e28ce1"><path d="M 21.773438 88.164062 L 172 88.164062 L 172 267 L 21.773438 267 Z M 21.773438 88.164062 " clip-rule="nonzero"/></clipPath></defs><rect x="-36" width="432" fill="#ffffff" y="-35.999999" height="431.999984" fill-opacity="1"/><rect x="-36" width="432" fill="#ffffff" y="-35.999999" height="431.999984" fill-opacity="1"/><path fill="#d9d9d9" d="M -0.113281 -0.195312 L 358.746094 -0.195312 L 358.746094 365.113281 L -0.113281 365.113281 Z M -0.113281 -0.195312 " fill-opacity="1" fill-rule="nonzero"/><path stroke-linecap="butt" transform="matrix(0, -0.75, 0.75, 0, 245.107927, 359.999972)" fill="none" stroke-linejoin="miter" d="M -0.0000378667 2.001931 L 480 2.001931 " stroke="#000000" stroke-width="4" stroke-opacity="1" stroke-miterlimit="4"/><path fill="#f4a996" d="M 204.214844 252.878906 C 203.789062 252.878906 202.9375 252.878906 202.511719 252.453125 L 191.425781 240.929688 C 190.148438 240.078125 190.148438 238.371094 191.425781 237.515625 C 192.28125 236.234375 193.984375 236.234375 194.835938 237.515625 L 205.921875 248.609375 C 207.199219 249.464844 207.199219 251.171875 205.921875 252.453125 C 205.496094 252.878906 205.066406 252.878906 204.214844 252.878906 Z M 204.214844 252.878906 " fill-opacity="1" fill-rule="evenodd"/><g clip-path="url(#d1e3453aa5)"><path fill="#f4a996" d="M 229.792969 286.160156 C 227.234375 286.160156 224.25 285.308594 222.546875 283.175781 L 202.511719 263.121094 C 198.675781 259.277344 198.675781 252.453125 202.511719 248.609375 C 204.640625 246.902344 207.199219 245.625 209.757812 245.625 C 212.316406 245.625 214.871094 246.902344 217.003906 248.609375 L 237.039062 268.667969 C 239.167969 270.800781 240.023438 273.359375 240.023438 275.921875 C 240.023438 278.90625 239.167969 281.46875 237.039062 283.175781 C 234.90625 285.308594 232.347656 286.160156 229.792969 286.160156 Z M 229.792969 286.160156 " fill-opacity="1" fill-rule="evenodd"/></g><path fill="#f4a996" d="M 162.441406 254.585938 C 150.078125 254.585938 138.570312 249.890625 130.042969 240.929688 C 121.09375 232.394531 116.402344 220.875 116.402344 208.5 C 116.402344 196.125 121.09375 184.601562 130.042969 176.070312 C 138.570312 167.535156 150.078125 162.414062 162.441406 162.414062 C 174.804688 162.414062 186.3125 167.535156 194.835938 176.070312 C 203.789062 184.601562 208.476562 196.125 208.476562 208.5 C 208.476562 220.875 203.789062 232.394531 194.835938 240.929688 C 186.3125 249.890625 174.804688 254.585938 162.441406 254.585938 Z M 176.933594 225.566406 C 176.082031 225.566406 175.65625 225.140625 175.230469 224.714844 C 173.949219 223.859375 173.949219 222.152344 175.230469 221.300781 C 178.640625 217.886719 180.34375 213.191406 180.34375 208.5 C 180.34375 203.804688 178.640625 199.109375 175.230469 195.699219 C 173.949219 194.84375 173.949219 193.136719 175.230469 192.285156 C 176.082031 191.429688 177.785156 191.429688 178.640625 192.285156 C 182.902344 196.550781 185.460938 202.523438 185.460938 208.5 C 185.460938 214.898438 182.902344 220.445312 178.640625 224.714844 C 178.214844 225.140625 177.359375 225.566406 176.933594 225.566406 Z M 162.441406 240.078125 C 153.914062 240.078125 146.242188 236.664062 140.273438 230.6875 C 134.308594 224.714844 130.898438 217.035156 130.898438 208.5 C 130.898438 199.964844 134.308594 192.285156 140.273438 186.308594 C 146.242188 180.335938 153.914062 176.921875 162.441406 176.921875 C 170.964844 176.921875 178.640625 180.335938 184.605469 186.308594 C 190.574219 192.285156 193.984375 199.964844 193.984375 208.5 C 193.984375 217.035156 190.574219 224.714844 184.605469 230.6875 C 178.640625 236.664062 170.964844 240.078125 162.441406 240.078125 Z M 162.441406 182.042969 C 155.195312 182.042969 148.800781 185.03125 143.683594 189.722656 C 138.570312 194.84375 136.011719 201.671875 136.011719 208.5 C 136.011719 215.753906 138.570312 222.152344 143.683594 227.273438 C 148.800781 232.394531 155.195312 234.957031 162.441406 234.957031 C 169.6875 234.957031 176.082031 232.394531 181.195312 227.273438 C 186.3125 222.152344 188.871094 215.753906 188.871094 208.5 C 188.871094 201.671875 186.3125 194.84375 181.195312 189.722656 C 176.082031 185.03125 169.6875 182.042969 162.441406 182.042969 Z M 162.441406 182.042969 " fill-opacity="1" fill-rule="evenodd"/><g clip-path="url(#33e9e28ce1)"><path fill="#368498" d="M 98.074219 128.277344 L 93.386719 128.277344 L 93.386719 137.238281 L 101.058594 137.238281 C 103.191406 137.238281 105.320312 135.53125 105.320312 132.96875 C 105.320312 130.410156 103.191406 128.277344 101.058594 128.277344 Z M 165.425781 266.53125 L 28.167969 266.53125 C 24.757812 266.53125 21.773438 263.546875 21.773438 260.132812 L 21.773438 94.566406 C 21.773438 91.152344 24.757812 88.164062 28.167969 88.164062 L 165.425781 88.164062 C 168.835938 88.164062 171.820312 91.152344 171.820312 94.566406 L 171.820312 158.144531 C 168.835938 157.71875 165.425781 157.292969 162.441406 157.292969 C 148.800781 157.292969 136.011719 162.839844 126.207031 172.226562 C 121.519531 176.921875 118.109375 182.46875 115.550781 188.441406 L 39.675781 188.441406 C 38.398438 188.441406 37.117188 189.296875 37.117188 191.003906 C 37.117188 192.285156 38.398438 193.5625 39.675781 193.5625 L 113.847656 193.5625 C 112.140625 198.257812 111.289062 203.378906 111.289062 208.5 C 111.289062 210.632812 111.289062 212.765625 111.714844 214.898438 L 39.675781 214.898438 C 38.398438 214.898438 37.117188 215.753906 37.117188 217.460938 C 37.117188 218.742188 38.398438 220.019531 39.675781 220.019531 L 112.566406 220.019531 C 114.273438 227.703125 118.109375 234.957031 123.222656 241.355469 L 39.675781 241.355469 C 38.398438 241.355469 37.117188 242.636719 37.117188 243.917969 C 37.117188 245.195312 38.398438 246.476562 39.675781 246.476562 L 128.339844 246.476562 C 137.71875 255.011719 149.652344 259.707031 162.441406 259.707031 C 165.425781 259.707031 168.835938 259.277344 171.820312 258.851562 L 171.820312 260.132812 C 171.820312 263.546875 168.835938 266.53125 165.425781 266.53125 Z M 127.488281 166.679688 L 39.675781 166.679688 C 38.398438 166.679688 37.117188 165.828125 37.117188 164.121094 C 37.117188 162.839844 38.398438 161.558594 39.675781 161.558594 L 127.488281 161.558594 C 128.765625 161.558594 130.042969 162.839844 130.042969 164.121094 C 130.042969 165.828125 128.765625 166.679688 127.488281 166.679688 Z M 132.601562 142.359375 C 123.222656 142.359375 115.550781 134.675781 115.550781 125.289062 C 115.550781 115.902344 123.222656 108.21875 132.601562 108.21875 C 133.882812 108.21875 135.160156 109.5 135.160156 110.78125 C 135.160156 112.0625 133.882812 113.339844 132.601562 113.339844 C 126.207031 113.339844 120.667969 118.886719 120.667969 125.289062 C 120.667969 132.117188 126.207031 137.238281 132.601562 137.238281 C 133.882812 137.238281 135.160156 138.515625 135.160156 139.796875 C 135.160156 141.503906 133.882812 142.359375 132.601562 142.359375 Z M 75.480469 131.261719 L 63.546875 131.261719 L 63.546875 139.796875 C 63.546875 141.078125 62.269531 142.359375 60.988281 142.359375 C 59.285156 142.359375 58.429688 141.078125 58.429688 139.796875 L 58.429688 120.59375 C 58.429688 113.765625 63.121094 108.648438 69.515625 108.648438 C 75.480469 108.648438 80.597656 113.765625 80.597656 120.59375 L 80.597656 139.796875 C 80.597656 141.078125 79.320312 142.359375 78.039062 142.359375 C 76.335938 142.359375 75.480469 141.078125 75.480469 139.796875 Z M 63.546875 126.140625 L 75.480469 126.140625 L 75.480469 120.59375 C 75.480469 116.753906 72.5 113.765625 69.515625 113.765625 C 66.105469 113.765625 63.546875 116.753906 63.546875 120.59375 Z M 88.269531 125.714844 L 88.269531 110.78125 C 88.269531 109.5 89.550781 108.21875 90.828125 108.21875 L 98.074219 108.21875 C 103.191406 108.21875 107.453125 112.488281 107.453125 117.609375 L 107.453125 118.886719 C 107.453125 121.023438 106.601562 123.15625 105.746094 124.433594 C 108.304688 126.140625 110.4375 129.554688 110.4375 132.96875 C 110.4375 138.089844 106.171875 142.359375 101.058594 142.359375 L 90.828125 142.359375 C 89.550781 142.359375 88.269531 141.503906 88.269531 139.796875 Z M 93.386719 123.15625 L 98.074219 123.15625 C 100.207031 123.15625 102.335938 121.449219 102.335938 118.886719 L 102.335938 117.609375 C 102.335938 115.472656 100.207031 113.339844 98.074219 113.339844 L 93.386719 113.339844 Z M 93.386719 123.15625 " fill-opacity="1" fill-rule="evenodd"/></g></svg>